<svg xmlns="http://www.w3.org/2000/svg" viewBox="0 0 188.41 139.3"><defs><style>.cls-1{fill:#0601fe;}.cls-2{fill:#0803fe;}.cls-3{fill:#fefefe;}.cls-4{fill:#9a98fe;}.cls-5{fill:#fcfbfe;}.cls-6{fill:#018be0;}.cls-7{fill:#6f8efe;}.cls-8{fill:#40a7e7;}.cls-9{fill:#dae2fe;}.cls-10{fill:#b3c4fe;}.cls-11{fill:#8fa8fe;}.cls-12{fill:#1599fe;}.cls-13{fill:#f7f7f8;}.cls-14{fill:#fdfbfc;}.cls-15{fill:#fcfcfc;}.cls-16{fill:#fdfbf9;}.cls-17{fill:#fdfafc;}.cls-18{fill:#f8f8fa;}.cls-19{fill:#f8f4f6;}.cls-20{fill:#2aa2f9;}.cls-21{fill:#f8fafa;}.cls-22{fill:#fcfbf8;}</style></defs><title>Asset 26</title><g id="Layer_2" data-name="Layer 2"><g id="Objects"><path class="cls-1" d="M59.83,69.94c0,21.63-.08,43.27.07,64.9,0,3.44-.84,4.58-4.41,4.45-7.49-.29-15-.29-22.48,0-3.51.14-4.39-.82-4.37-4.34.16-27.12-.08-54.25.24-81.37.06-5.45-1.64-6.71-6.63-6.33-5.47.42-11-.15-16.48.18-4,.23-5-.88-5.49-5.07C-1,31.52,2.16,23.63,11.7,17.87A66.44,66.44,0,0,0,25.11,6.73C30.42,1.16,36.54-.62,43.93.18a56,56,0,0,0,11,0C58.79-.18,60,1,59.92,5,59.71,26.67,59.83,48.3,59.83,69.94Z"/><path class="cls-2" d="M146.34,138.38c-6.16,0-12.32.22-18.47,0a23.67,23.67,0,0,1-23.09-23c-.41-12.29-.39-24.62,0-36.91a23.77,23.77,0,0,1,23.08-23.06q18.45-.51,36.94,0c12.67.33,22.08,9.21,22.94,21.82a280.71,280.71,0,0,1,0,39.87c-.89,12-10.2,20.71-22.37,21.26-6.31.28-12.64.05-19,.05Z"/><path class="cls-3" d="M108.3,96.88c0-6.32-.28-12.66.06-19a19.89,19.89,0,0,1,19.33-19.18c12.47-.4,25-.37,37.45,0a20.11,20.11,0,0,1,19.41,19.21c.44,12.63.41,25.29,0,37.91a20.3,20.3,0,0,1-19.43,19.27c-12.3.46-24.65.47-36.95,0-11.51-.41-19.45-8.8-19.92-20.3-.24-6,0-12,0-18Z"/><path class="cls-4" d="M160.67,95.32c4.17,3.6,8.26,5.85,13.68,1.73,2.72-2.07,5,.1,5.12,3,.23,5.45.78,11-.37,16.37-1.78,8.3-7.41,13.3-17.22,13.61-11.58.35-23.23,1.06-34.8-.6a15.65,15.65,0,0,1-13.5-14.91c-.15-4.8-.14-9.63,0-14.43.12-3.73,2.43-5,5.29-2.85,5.12,3.8,8.92,1.8,12.66-1.95,2.55,3.23,1.06,7,1.38,10.52.29,3.23-.7,7.48,5.12,4.5,1.14-.59,2.51.54,3.76,1,10.25,3.32,17.49-1.61,18-12.24C159.84,97.73,159.5,96.35,160.67,95.32Z"/><path class="cls-5" d="M152.62,94.36c-2.46,6.52-7.76,6.88-13.1.89C143.77,91.15,147.45,90.9,152.62,94.36Z"/><path class="cls-6" d="M164.41,102.21a9.43,9.43,0,0,1-.78,2.69,6.21,6.21,0,0,1-6.59,3.73c-2.14-.24-3.17.52-4,2.41-1.51,3.3-3.34,6.46-5,9.68-.1.19-.18.43-.45.43s-.46-.35-.59-.6c-1.87-3.53-3.76-7-5.58-10.61a2,2,0,0,0-2.13-1.28,15.92,15.92,0,0,1-3.31-.06,6.38,6.38,0,0,1-5.52-5.39,4.09,4.09,0,0,1-.39-2.33,10.3,10.3,0,0,1,.15-2.66,5.29,5.29,0,0,0,0-.89c0-.8,0-1.6,0-2.4s.22-1.58.17-2.39c.06-.56-.18-1.15.21-1.67.16-3.93.12-7.88.53-11.8.34-3.27,2.25-5.21,5.46-5.89.07,0,.12-.09.17-.14h.17a1.27,1.27,0,0,0,.72.08H157a1.31,1.31,0,0,0,.73-.08h.16c3.61.68,5.44,2.72,5.9,6.45.17,1.43.09,2.86.14,4.29.12,2.17.23,4.33.17,6.51a2.32,2.32,0,0,0,.11.64c.1,1.7.07,3.4.23,5.09,0,.56,0,1.12,0,1.68a19.69,19.69,0,0,0,.16,2.54A3.68,3.68,0,0,1,164.41,102.21Z"/><path class="cls-7" d="M164,90.92a1.81,1.81,0,0,1-.12-1.12c.1-2.06-.19-4.1-.14-6.16a1.16,1.16,0,0,0,1.45.35,4.57,4.57,0,0,1,2.21-.12,5.21,5.21,0,0,0,2.17-.15,1.29,1.29,0,0,0-.47-.74c-.35-.39-.75-.73-1.09-1.13a1.3,1.3,0,0,1,0-2.09c.85-.83,1.59-1.76,2.43-2.6.65-.64,1.06-.66,1.69,0,.93,1,1.81,1.94,2.71,2.9.54.57.5,1,0,1.61s-1.27,1.22-1.82,1.9c.15.3.4.19.6.2.57,0,1.15,0,1.73,0,2.78.14,4.22,1.58,4.24,4.35,0,2.18.16,4.35.1,6.53v2c0,.3-.09.61.08.9v1.82a3.72,3.72,0,0,0-.19.34,3.34,3.34,0,0,1-3.57,2.6,2.15,2.15,0,0,0-2.21,1.44c-.64,1.37-1.39,2.69-2.12,4-.4.73-.63.73-1,0-.8-1.48-1.59-3-2.34-4.46a1.47,1.47,0,0,0-1.63-1,10.46,10.46,0,0,1-2.3-.14c0-.67,0-1.34,0-2a1,1,0,0,1,.53-.21,1,1,0,0,0,.86-1.06,1.07,1.07,0,0,0-1-1.05c-.19,0-.39,0-.55-.14l0-1.67a.71.71,0,0,1,.57,0,11.6,11.6,0,0,0,4.57.56,58.15,58.15,0,0,0,6.19-.16c2.51-.33,2.68-.46,2.66-2.94a28.05,28.05,0,0,0-.11-4.3c-.16-.93-.36-1.12-1.27-1.2a81.08,81.08,0,0,0-11.24,0c-1.06.07-1.26.32-1.3,1.38C164.28,89.94,164.45,90.49,164,90.92Z"/><path class="cls-8" d="M157.76,73c-.18.26-.45.16-.69.16H137.55c-.23,0-.5.1-.68-.16Z"/><path class="cls-9" d="M179.66,94.57h.14V95.9c-.05.08-.1.07-.14,0Z"/><path class="cls-10" d="M179.66,95.89h.14v.83c-.05.08-.1.07-.15,0Z"/><path class="cls-11" d="M179.65,96.72h.15v.83C179.53,97.32,179.67,97,179.65,96.72Z"/><path class="cls-12" d="M130.54,90.87v1.75c-.35,0-.52-.27-.72-.49a2.85,2.85,0,0,0-2.2-1c-2.4,0-4.8,0-7.2,0a3.43,3.43,0,0,0-3.37,2.87c-.07.36.06.53.39.58a5.76,5.76,0,0,0,.83,0h10.92a1.74,1.74,0,0,1,1.2.22V97.4c-.17.2,0,.45-.11.66a.77.77,0,0,1-.14.21c-1.19,1.1-1.17,1.58.08,2.59a13.2,13.2,0,0,0,.16,2.35,2.75,2.75,0,0,0-3.84.75c-.67,1.27-1.29,2.56-1.94,3.84a2,2,0,0,1-.6.83c-.73-1.37-1.48-2.7-2.15-4.07-.81-1.63-1-1.72-2.79-1.62a13.69,13.69,0,0,1-2.56-.12,3.81,3.81,0,0,1-3-3.45,20.36,20.36,0,0,1,0-2.07,2.22,2.22,0,0,1,1-1.92,3.76,3.76,0,0,0,1.39-1.79c.15-.32.32-.64.47-1,1-2.2,1.85-2.72,4.24-2.62.78,0,1.5.08,1.7-.92,0,0,.06-.09.09-.13.66-.75,3.19-.45,3.59.46A.9.9,0,0,0,127,90,4.52,4.52,0,0,1,130.54,90.87Z"/><path class="cls-13" d="M147.08,126.54a26,26,0,0,0,9.31-1.28,8.22,8.22,0,0,0,2.2-1.14c.8-.59.83-1.13.13-1.82a7.77,7.77,0,0,0-3.36-1.7c-.55-.17-1.12-.26-1.68-.41-.41-.1-.82-.22-.72-.8s.62-.51,1-.44a12.25,12.25,0,0,1,2.78.79,1.37,1.37,0,0,0,1.58-.29c1.6-1.42,3.19-2.86,4.8-4.28,1.25-1.11,2.53-2.21,3.78-3.31.23-.2.59-.39.57-.68s-.5-.36-.79-.46c-.79-.29-1.72-.57-1.73-1.54s.94-1.31,1.77-1.59a4.31,4.31,0,0,1,.87-.24c.19,0,.49-.11.57.17s-.25.3-.42.38c-.54.27-1.18.25-1.68.65-.65.51-.66.87.05,1.28a6.74,6.74,0,0,0,2.44.72,14,14,0,0,0,6.74-.47c.48-.17,1.14-.38,1.12-1s-.64-.7-1.1-.89-.84-.26-1.25-.4c-.15,0-.32-.15-.28-.35s.22-.17.34-.15a4,4,0,0,1,2.71,1.24,1.1,1.1,0,0,1-.42,1.62,7.7,7.7,0,0,1-4,1.09,17.38,17.38,0,0,1-3.88-.11,1,1,0,0,0-.85.43c-2.69,3-5.59,5.73-8.42,8.56-.55.55,0,.76.24,1,1,1,1.28,2.2.64,3a6.22,6.22,0,0,1-2.6,2,27.43,27.43,0,0,1-6.81,1.53A25.64,25.64,0,0,1,147,128a27.65,27.65,0,0,1-6.45-.7,15.91,15.91,0,0,1-5.09-1.82c-1.92-1.27-2.21-3.18-.16-4.58.49-.34.22-.55-.05-.82q-2.2-2.19-4.4-4.39c-1-1-2-2.1-3-3.18a4,4,0,0,0-3.7-1.13,9.11,9.11,0,0,1-5.76-1.25,1.2,1.2,0,0,1-.14-1.75,4,4,0,0,1,2.47-1c.19,0,.43,0,.44.25s-.19.25-.35.3a7.77,7.77,0,0,0-1.85.68c-.24.14-.49.25-.49.6s.28.43.52.58a7.52,7.52,0,0,0,3.14.89,15.73,15.73,0,0,0,5.47-.33c.72-.15,1.63-.41,1.68-1.11s-.91-.88-1.54-1.12c-.28-.11-.58-.17-.86-.28s-.29-.19-.21-.39.21-.22.4-.17a4.38,4.38,0,0,1,2.62,1.28,1,1,0,0,1-.17,1.56,5,5,0,0,1-1.87.85c-.52.14-.6.32-.18.68,1.56,1.35,3.12,2.69,4.67,4,1.24,1.09,2.48,2.18,3.68,3.31a2,2,0,0,0,2.36.57,13.08,13.08,0,0,1,2.23-.59.68.68,0,0,1,.88.43c.12.42-.16.65-.55.77a18.12,18.12,0,0,0-4.13,1.4,1.68,1.68,0,0,0-.3.15c-1.78,1.22-1.53,1.9-.08,2.77a14.54,14.54,0,0,0,5.31,1.72A24.68,24.68,0,0,0,147.08,126.54Z"/><path class="cls-14" d="M133.39,91.38c0-2.92,0-5.84,0-8.76,0-1.4.51-2,1.88-2.11,2.19-.21,4.39-.3,6.6-.4s4.63.08,6.94,0a77,77,0,0,1,9.49.22c2.79.28,3.23.18,3.24,3.21,0,3.64.15,7.28.22,10.92,0,1.65-.59,2.34-2.32,2.61a67.45,67.45,0,0,1-13.07,1.09c-3.61-.13-7.22-.09-10.76-.93-1.88-.45-2.39-1-2.39-3v-2.9Z"/><path class="cls-15" d="M164,90.92c0-.68,0-1.37,0-2.06a.86.86,0,0,1,.81-1,21.41,21.41,0,0,1,3.29-.23,67.75,67.75,0,0,1,9,.14A1.12,1.12,0,0,1,178.36,89c.13,2,.06,3.91.14,5.87a1.34,1.34,0,0,1-1.21,1.5,32.49,32.49,0,0,1-7.81.49,11.4,11.4,0,0,1-4.88-.65l-.37-.18Z"/><path class="cls-16" d="M130.39,94.88h-13c-.8,0-.9-.15-.61-.87a13.14,13.14,0,0,1,.73-1.57,3,3,0,0,1,2.67-1.53q3.91,0,7.85,0a3.22,3.22,0,0,1,2.5,1.68Z"/><path class="cls-17" d="M146.73,78.66c-.93,0-1.87,0-2.81,0a1.91,1.91,0,0,1-1.45-2.52.78.78,0,0,1,.79-.47h7A.76.76,0,0,1,151,76a2,2,0,0,1-1.35,2.66C148.66,78.69,147.69,78.66,146.73,78.66Z"/><path class="cls-17" d="M132.86,102.13a2.43,2.43,0,0,1,2.34-2.57,2.51,2.51,0,0,1,2.33,2.61,2.56,2.56,0,0,1-2.37,2.68A2.51,2.51,0,0,1,132.86,102.13Z"/><path class="cls-17" d="M161.76,102.2a2.35,2.35,0,0,1-2.48,2.48c-1.39,0-2.21-1-2.19-2.6a2.35,2.35,0,1,1,4.67.12Z"/><path class="cls-18" d="M164.25,97.74a1.26,1.26,0,0,1,1.53.46,1.22,1.22,0,0,1,.1,1.39,1.25,1.25,0,0,1-1.48.61A11.26,11.26,0,0,1,164.25,97.74Z"/><path class="cls-19" d="M130.23,100.86c-.77,0-1-.56-1.12-1.19a1.43,1.43,0,0,1,1.12-1.6c.11,0,.12.11.15.18A17.5,17.5,0,0,0,130.23,100.86Z"/><path class="cls-20" d="M130.38,98.25l-.15-.18c0-.23-.07-.49.17-.67C130.39,97.68,130.38,98,130.38,98.25Z"/><path class="cls-21" d="M178.47,98.92a1.58,1.58,0,0,1-1.23,1.46c-.61,0-1.26-.81-1.25-1.6a1.09,1.09,0,0,1,1.11-1.18A1.25,1.25,0,0,1,178.47,98.92Z"/><path class="cls-22" d="M117.43,100.9a1.29,1.29,0,0,1-1.28-1.39,1.46,1.46,0,0,1,1.29-1.45,1.5,1.5,0,0,1,1.35,1.49A1.33,1.33,0,0,1,117.43,100.9Z"/></g></g></svg>