<svg xmlns="http://www.w3.org/2000/svg" viewBox="0 0 250.85 141.99"><defs><style>.cls-1{fill:#0601fe}.cls-2{fill:#9b99fe}.cls-3{fill:#0702fe}.cls-4{fill:#fdfdfe}.cls-5{fill:#1612fe}.cls-6{fill:#f8f7fe}</style></defs><title>Asset 25</title><g id="Layer_2" data-name="Layer 2"><g id="Objects"><path d="M60.31,141.88c-18.66,0-37.32-.1-56,.09-3.55,0-4.48-.92-4.31-4.38.4-8.14-.48-16.43.75-24.41C3.18,97.5,14.86,89.42,28,83.12c12.63-6,26.21-9.62,39.08-15A67.85,67.85,0,0,0,80.25,61c6.68-4.76,10.23-11,8.64-19.28S81.4,29.46,73.65,27.88a48.78,48.78,0,0,0-22.73.27c-10.06,2.72-15.73,9.57-15.43,19.92.16,5.56-1.77,6.62-6.72,6.34-7-.4-14-.26-21,0-3,.1-3.86-.68-3.9-3.81C3.48,23.61,15.38,8,41.7,2.27A94.9,94.9,0,0,1,89.6,4c17.2,5.15,28.07,16,30.47,34.26,2.28,17.35-3.56,31.33-17.79,41.73C91.25,88,78.6,92.62,65.92,97.18c-6.1,2.2-12.15,4.53-18.19,6.88a29.07,29.07,0,0,0-4.89,2.46c-2.94,1.86-7.23,3.93-6.36,7.46.74,3,5.26,1.17,8,1.19q35.75.22,71.48,0c3.6,0,5.06.7,4.82,4.63a149.74,149.74,0,0,0,0,17.47c.21,3.63-.59,4.76-4.51,4.71C97.63,141.75,79,141.88,60.31,141.88Z" class="cls-1"/><path d="M191.15,132.06a20.39,20.39,0,0,1-10.21,2c-6.24-.61-10.78-4.7-10.83-10.86q-.2-24.21,0-48.43a11.46,11.46,0,0,1,11.74-11.75q17.47-.27,35,0c6.76.12,11.54,5.06,11.59,11.88.09,13.65,0,27.29-.09,40.94-1.14,1.27-2.48,1.22-3.91.61A3.78,3.78,0,0,1,223,113c.5-5-1.93-7.11-6.7-7.09-2.81-2-5.62-4-3.91-8.17,1.62-.6,3.29-.23,4.94-.27,3.66-.1,5.45-1.83,5.42-5.59s-2.17-4.43-5.21-4.44c-11.81,0-23.61,0-35.42,0-3.07,0-5.19.87-5.33,4.4-.16,3.78,1.72,5.49,5.34,5.66,2.83.14,5.65,0,8.48.17,3.73.18,4.81,2.57,4.78,5.7s-2.75,2.81-4.77,3c-3.14.25-6.31.06-9.47.12s-4.37,1.89-4.36,4.82,1,4.91,4.19,5.12c5.14.35,10.31.25,15.46.11,4.5-.11,7.65,1.47,9.56,5.65,1.64,3.59,4.59,6.58,4.85,10.78-1.54,2.43-2.63.57-3.62-.49-1.34-1.44-2.26-3.22-3.61-4.68-4.7-5.07-9-4.22-11.23,2.22A3.5,3.5,0,0,1,191.15,132.06Z" class="cls-2"/><path d="M191.15,132.06c-.12-3.81.29-7.11,4.81-8.56s6.76,1.29,9.25,3.92c1.88,2,2.48,5,5.16,6.36,2.41-2,1.28-4.16.22-6.26-4.27-8.42-9-16.62-13.54-24.88a12.78,12.78,0,0,1-1.92-5.06c-.35-3.94,1.9-8,5.47-9.14,3.82-1.27,6.86.26,9.12,3.31,1.36,1.84,2.69,3.82,2.46,6.34a17.68,17.68,0,0,0,4,6.94c3.34,3.15,4.68,7.77,8,10.94a6.83,6.83,0,0,0,4.1-.08c3.58,1,5,0,4.85-4-.27-11.81,0-23.63-.11-35.44-.07-11.19-6.45-17.64-17.69-17.78-10.66-.13-21.32-.11-32,0-11.55.12-17.9,6.53-17.95,18-.06,15,0,29.95,0,44.93,0,1.17,0,2.33,0,3.5-.05,1-.24,2.14-1.59,2s-1.53-1.1-1.54-2.18c0-.83,0-1.66,0-2.49,0-15.15,0-30.29,0-45.43,0-13.95,7.77-21.72,21.59-21.77,10.49,0,21-.07,31.48,0,12.93.1,20.85,8,20.9,20.88,0,11.82.11,23.63-.06,35.45,0,3,.29,4.7,3.89,5.2,4.77.67,7.72,4.28,10.14,8.21.54.87,1.09,1.85.06,2.65-1.26,1-2.32.22-2.82-.91-3.33-7.49-9.95-7.81-16.54-7.1-8.1.87-13.26-1.95-16.26-9.65-1.86-4.77-4.73-9.15-7.13-13.71-1.29-2.44-2.78-5-6-3.35-3.75,1.87-2,4.63-.61,7.18,4.9,9.06,9.74,18.17,14.74,27.18,1.94,3.51,2.38,6.84-1.3,9.15s-6.6.37-8.81-2.88a55.74,55.74,0,0,0-4.07-5.64c-1.58-1.8-3.75-2.4-5.78-.81-1.81,1.41-1.91,3.51-.81,5.41,1.25,2.15,2.8,4.12,4.17,6.2a2,2,0,0,1-.19,2.73,1.91,1.91,0,0,1-2.52-.92C194.62,137.69,192.08,135.36,191.15,132.06Z" class="cls-3"/><path d="M212.18,98.09c-.9-1.59-1.76-3.21-2.71-4.76-2.49-4.08-6.2-5.39-9.64-3.46a7.52,7.52,0,0,0-2.79,10c2,4,4.34,7.86,6.5,11.8,3.2,5.83,6.41,11.66,9.53,17.54,1.49,2.82,1.32,4.88-2.7,4.54-1.62-4.93-4.93-9-7.05-13.67-1.06-2.32-2.94-2.32-5-2.31-6,0-12-.11-18,0-5.06.13-5-3.16-4.94-6.69s0-6.38,4.89-6.09c4.62.27,9.27.06,13.87.06.7-5.67-2.1-7-6.82-6.33a34.46,34.46,0,0,1-5,0c-6.42-.07-7-.77-7-7.27,0-3.84,1-5.7,5.41-5.61,12.8.26,25.61.15,38.41,0,3.11,0,5.29.52,5,4.29-.25,3.58,1.37,8.2-4.71,8.48C217.08,98.89,214.55,99.17,212.18,98.09Z" class="cls-4"/><path d="M199.18,71.85c3.17,0,6.33,0,9.5,0,.78,0,1.82,0,2,1,.29,1.39-1,1.79-1.84,1.8-6.49.12-13,.12-19.47.08a1.5,1.5,0,0,1-1.53-1.62c.06-1.1,1-1.24,1.82-1.25C192.85,71.82,196,71.85,199.18,71.85Z" class="cls-5"/><path d="M224.22,116c-4,.24-3.93-3.48-5.41-5.62a36.35,36.35,0,0,1-2.59-5.32C224.73,105.33,224.42,103.55,224.22,116Z" class="cls-6"/></g></g></svg>