<svg xmlns="http://www.w3.org/2000/svg" viewBox="0 0 248.26 141.63"><defs><style>.cls-1{fill:#0601fe}.cls-2{fill:#0702fe}.cls-3{fill:#9a98fe}.cls-4{fill:#9997fe}.cls-5{fill:#0b07fe}.cls-6{fill:#0e09fe}.cls-7{fill:#100bfe}.cls-8{fill:#e3e2fe}.cls-9{fill:#fbfbfe}</style></defs><title>Asset 24</title><g id="Layer_2" data-name="Layer 2"><g id="Objects"><path d="M59.83.07c16.49,0,33,.09,49.48-.07,3.41,0,4.77.8,4.55,4.4a86.87,86.87,0,0,0,0,14c.52,5.21-1.38,8.08-6.06,10.44-9.19,4.64-18.14,9.79-27,15.07a81.58,81.58,0,0,1-23,9.27c-1.44.35-4.05.38-3.55,2.55.57,2.48,3,.87,4.21.5,11.06-3.34,22.07-4,33.36-.92,17.3,4.78,28.21,19.21,28.9,36.88,1.15,29.35-17.1,43.62-41.47,47.76-15.53,2.65-31.19,2.41-46.48-2C11.74,131.81-.42,115.63,0,95.07c.06-3,.84-4,4-3.93,7.82.21,15.66.18,23.48,0,2.66-.06,3.7.63,4.11,3.4,2,13.48,7.24,18.57,21,20,8.64.94,17.29,1,25.55-2.48,7.33-3.07,11.75-9.46,11.56-17.06-.21-8.2-3.65-14.39-11.51-17.64-6.29-2.61-13-2.79-19.61-2.89q-17.49-.27-35,0c-3.44,0-4.59-1-4.65-4.51-.22-14.56-.31-14.54,12-22.16,5.51-3.41,11-6.82,16.42-10.44,7.78-5.22,15.83-9.7,25.23-11.31,1.4-.23,3.49-.6,3.07-2.51-.51-2.29-2.45-.84-3.72-.58-20.78,4.29-41.82,1.33-62.71,2.24-2.72.12-3.38-1.05-3.32-3.55.15-6,.27-12,0-18C5.67.42,7,0,9.85,0,26.51.13,43.17.07,59.83.07Z" class="cls-1"/><path d="M208,80.06c8.7.38,15.91,4.07,22.29,9.82,3.31,3,7,5.61,10.45,8.4,2.91-.13,1.58-1.9,1.27-3.28a31.84,31.84,0,0,0-3.21-13.44c-3-6.65-5.93-13.33-8.93-20-1.41-3.11-2.52-7.49-7.23-5.15s-1.68,5.89-.28,8.91c3.16,6.82,7.23,13.24,9.75,20.83-7.06-3.37-8.24-10.25-11.39-15.74-1.15-2-2-4.2-3.1-6.23A4,4,0,0,0,212,62.42a3.84,3.84,0,0,0-2,5.44c1.34,3,3,5.89,4.59,8.86-4.13,0-8.25-4.75-8.65-9.9a7.63,7.63,0,0,1,7.24-8.47,5.51,5.51,0,0,0,5-2.82,7.47,7.47,0,0,1,13.13.74c9.13,17.63,16.65,35.92,16.94,56.15.12,8.5-3.77,16.44-5.66,24.67a1.67,1.67,0,0,1-2.26,1.35c-1.43-.51-1.42-1.66-1.1-2.88,1.41-5.29,2.53-10.67,4.29-15.84,2.51-7.4.8-13.33-5.15-18.22-5.13-4.21-10.15-8.59-15.42-12.64a19.85,19.85,0,0,0-11.91-4.47c-1.68,1.48-3.76,1-5.7,1.1A21.4,21.4,0,0,0,194.59,89c-1,.63-2,1.53-1.47,2.83.64,1.58,2.07,1.42,3.4,1,1.73-.58,3.33-1.53,5.1-2,4.25-1.07,8.49-1.84,12.23,1.46,3.49,2.68,7.92,4.4,9.06,9.41,1.37,6-1.17,11.87-7,15.79-4.62,3.11-10,2.33-16-2.3-3.15-1.38-3.94-4.16-4.42-7.2-.28-1.81-.74-4-3-3.87-2.62.09-2.09,2.49-2.23,4.2-.23,2.62.28,5.27-.19,7.89,3.61,6.39,9.35,11,13.88,16.64.72.9,1.51,1.75,2.27,2.63a1.78,1.78,0,0,1,.08,2.63,1.54,1.54,0,0,1-2.55,0c-6-7.56-14.17-13.46-18.07-22.71-3.53-4.44-2.74-9.26-.21-13.49,1.75-2.92,2.92-5.12,1.22-8.47A6,6,0,0,1,188.29,86C194,81.37,200.28,78.29,208,80.06Z" class="cls-2"/><path d="M208,80.06c-5.77.83-11.5,1.75-16.57,5-4.5,2.86-5.4,6.52-2.2,10.83,1.24,1.67,2.2,2.18-.37,3.91-5.8,3.91-3.53,10-3.17,15.55A22.56,22.56,0,0,1,173.41,105c-.83-1.52-1.6-2.89-3.58-2.9.2-2.59,2.88-1.56,4.08-2.86-.82-.94-2.56.18-3.13-1.3q.56-5.34,1.09-10.69c2.5-1.72,4.25.85,6.65,1.08-1.53-2.24-5.36-1.75-5.7-5l8.25-7.21c2.06,1.18,3.47,1,3.71-1.75C193.57,71.93,201.44,73.28,208,80.06Z" class="cls-3"/><path d="M213.85,92.24c-5.86-2-11.38-1.11-16.72,1.83-2.35,1.29-4.61,1.23-5.87-1.45s.45-4,2.57-5c5.43-2.8,11-4.45,17.22-3.19A23.21,23.21,0,0,1,213.85,92.24Z" class="cls-3"/><path d="M190.05,116.16c-2.27-3.7-1-7.74-.91-11.61,0-1.9,1.86-2.57,3.72-2.47a3.71,3.71,0,0,1,3.67,4,13.84,13.84,0,0,0,3.39,9.07C196.65,115.65,193.41,116.53,190.05,116.16Z" class="cls-4"/><path d="M172.82,83.28l6.9,3.62c1,.52,2.44.93,1.84,2.39-.68,1.66-2.18,1-3.38.59-2.13-.83-4.21-1.76-6.31-2.65-2.81-1.4-5.62-2.78-8.42-4.2-1.28-.66-3.25-1.19-2.22-3.12.94-1.76,2.57-.77,3.93-.14C167.71,81,170.27,82.11,172.82,83.28Z" class="cls-5"/><path d="M170.78,97.92c2,.36,5.15-2.65,5.8.76.47,2.44-3,2.12-5,2.58a8.87,8.87,0,0,0-1.74.82c-1.49-.06-3.91,1-3.74-1.6S169,98.51,170.78,97.92Z" class="cls-6"/><path d="M184.78,74.32a7.92,7.92,0,0,0,.31,1.4c.55,1.28,1.78,2.8-.16,3.68s-2.34-1-3.05-2.19c-.24-.4-.54-.76-.81-1.14l-.68-1.83c-.49-1.3-1.84-2.86-.06-3.88,2.17-1.24,2.67,1,3.48,2.29C184.15,73.2,184.46,73.76,184.78,74.32Z" class="cls-7"/><path d="M242,95c1,1.83,1.05,3.76.74,6.53-.94-1.52-1.48-2.38-2-3.25C242.07,97.55,241.68,96.14,242,95Z" class="cls-8"/><path d="M203.75,113.29c-2.1-1.47-3.91-3.2-3.76-6,.21-3.83-1.47-6.6-4.79-8.77,6.32-2.23,12.09-7,18.72-1.51C214.92,103.53,210.1,111.24,203.75,113.29Z" class="cls-3"/><path d="M203.75,113.29A25.17,25.17,0,0,0,213.92,97c6,3.69,7.43,7.79,4.49,12.42C214.11,116.19,209.75,117.34,203.75,113.29Z" class="cls-9"/></g></g></svg>