<svg xmlns="http://www.w3.org/2000/svg" viewBox="0 0 396.75 328.6"><defs><style>.cls-1{fill:#018be0}.cls-2{fill:#6f8efe}.cls-3{fill:#40a7e7}.cls-4{fill:#dae2fe}.cls-5{fill:#b3c4fe}.cls-6{fill:#8fa8fe}.cls-7{fill:#1599fe}.cls-8{fill:#f7f7f8}.cls-9{fill:#fdfbfc}.cls-10{fill:#fcfcfc}.cls-11{fill:#fdfbf9}.cls-12{fill:#fdfafc}.cls-13{fill:#f8f8fa}.cls-14{fill:#f8f4f6}.cls-15{fill:#2aa2f9}.cls-16{fill:#f8fafa}.cls-17{fill:#fcfbf8}</style></defs><title>Asset 22</title><g id="Layer_2" data-name="Layer 2"><g id="Objects"><path d="M304.67,174.49A55.2,55.2,0,0,1,300,190.56c-7.22,15.39-21.21,24.29-39.44,22.31-12.8-1.39-19,3.11-24.15,14.43-9.06,19.75-20,38.65-30.11,57.9-.6,1.15-1.09,2.57-2.67,2.6-2.36.05-2.75-2.11-3.55-3.62-11.18-21.11-22.46-42.18-33.37-63.44-2.85-5.55-6.36-8.11-12.76-7.66a96.83,96.83,0,0,1-19.78-.38c-17.44-2.39-29.09-14.08-33-32.25-2.44-4.36-2.62-9.1-2.33-13.92,0-5.32-.54-10.68.92-15.91a33.37,33.37,0,0,0,0-5.29c0-4.78-.12-9.57.06-14.35s1.27-9.51,1-14.33c.39-3.33-1-6.9,1.29-10,.94-23.54.73-47.16,3.18-70.6,2-19.56,13.42-31.13,32.65-35.19.38-.08.68-.58,1-.88h1c1.36.88,2.89.49,4.34.49q58.13,0,116.26,0c1.45,0,3,.39,4.34-.49h1c21.61,4.11,32.53,16.3,35.26,38.63,1.05,8.55.57,17.08.84,25.62.73,13,1.39,25.94,1,38.93a15.41,15.41,0,0,0,.68,3.87c.62,10.14.42,20.32,1.4,30.45-.15,3.33.15,6.66-.08,10-.21,5.1.49,10.15,1,15.21C305.82,166.66,307,170.76,304.67,174.49Z" class="cls-1"/><path d="M302.35,107c-1.32-2.12-.86-4.55-.76-6.73.6-12.31-1.13-24.55-.83-36.83,2.34,3,5.05,3.25,8.68,2.09a26.61,26.61,0,0,1,13.2-.69c4.24.81,8.53.12,13-.92-.15-2.06-1.65-3.17-2.78-4.42-2.09-2.34-4.49-4.38-6.54-6.75-4.08-4.71-4.17-8.26.18-12.53,5.07-5,9.5-10.53,14.53-15.52,3.9-3.88,6.37-4,10.15-.12,5.54,5.64,10.77,11.58,16.2,17.34,3.22,3.41,3,6-.14,9.61-3.41,4-7.6,7.27-10.88,11.37.88,1.78,2.38,1.13,3.56,1.17,3.46.11,6.93-.09,10.39.09,16.59.85,25.21,9.47,25.37,26,.12,13,.92,26,.56,39,0,2.42,0,4.84,0,7.26,0,1.6,0,3.21,0,4.82.24,1.77-.53,3.65.52,5.35v10.9a13.39,13.39,0,0,0-1.15,2.05c-3.86,10.78-9.77,15.54-21.35,15.52-6.81,0-10.5,2.7-13.26,8.66-3.79,8.2-8.31,16.07-12.65,24-2.39,4.37-3.79,4.34-6.18-.13-4.75-8.84-9.48-17.7-14-26.66-2.1-4.16-4.89-6.31-9.75-5.67-4.59.6-9.16-.43-13.74-.86q0-6-.05-12a6.09,6.09,0,0,1,3.16-1.26c3.32-.79,5.3-2.94,5.13-6.32s-2.37-5.68-5.92-6.27c-1.12-.19-2.33,0-3.28-.83,0-3.34-.07-6.68-.1-10a4.24,4.24,0,0,1,3.37.09c8.84,3.39,18.06,3.58,27.33,3.35,12.36-.31,24.73.61,37.08-1,15-1.94,16-2.74,15.89-17.59-.08-8.57.7-17.16-.69-25.69-.92-5.56-2.14-6.72-7.57-7.16-22.41-1.84-44.81-1.27-67.21,0-6.39.37-7.56,1.88-7.8,8.26C303.89,101.1,304.93,104.4,302.35,107Z" class="cls-2"/><path d="M264.87,0c-1.06,1.56-2.69,1-4.09,1Q202.4,1,144,1c-1.4,0-3,.59-4.08-1Z" class="cls-3"/><path d="M395.89,128.78c.28,0,.57,0,.86,0v7.93c-.33.46-.62.44-.86-.07Z" class="cls-4"/><path d="M395.89,136.68c.29,0,.57,0,.86.07v5c-.35.46-.65.43-.91-.08C395.85,140,395.87,138.33,395.89,136.68Z" class="cls-5"/><path d="M395.84,141.63l.91.08v4.95C395.1,145.23,395.93,143.35,395.84,141.63Z" class="cls-6"/><path d="M102.09,106.67v10.49c-2.11,0-3.13-1.66-4.33-3a16.81,16.81,0,0,0-13.16-5.73c-14.35.08-28.71-.08-43.06.07a20.5,20.5,0,0,0-20.15,17.17c-.39,2.13.35,3.12,2.36,3.43a31.36,31.36,0,0,0,4.94.19q32.67,0,65.33,0c2.43,0,5-.44,7.14,1.27l.06,15.08c-1,1.2-.14,2.71-.66,4a3.35,3.35,0,0,1-.81,1.21c-7.11,6.61-7,9.5.47,15.51-.27,4.72.45,9.37,1,14-6.17-5.38-19-2.95-23,4.52s-7.71,15.31-11.59,22.95c-.81,1.57-1.36,3.35-3.57,5-4.37-8.2-8.86-16.15-12.89-24.33-4.84-9.81-5.7-10.31-16.66-9.74a78.42,78.42,0,0,1-15.31-.69C9,176.81,1.38,167.84.36,157.52A113.28,113.28,0,0,1,0,145.15c.06-4.72,1.87-8.94,5.79-11.49,4.15-2.69,6.5-6.4,8.37-10.69.86-2,1.87-3.86,2.78-5.8C23.11,104,28,100.9,42.31,101.53c4.67.2,9,.47,10.19-5.51a2,2,0,0,1,.56-.8c3.93-4.46,19-2.65,21.45,2.75,1.37,3.08,3.2,4.25,6.51,3.76C88.67,100.6,95.81,101.86,102.09,106.67Z" class="cls-7"/><path d="M201,320c19.9.56,38.07-1.68,55.72-7.68a48.9,48.9,0,0,0,13.12-6.82c4.82-3.53,5-6.75.8-10.88-5.59-5.54-12.84-7.89-20.09-10.13-3.28-1-6.7-1.58-10-2.45-2.46-.64-5-1.36-4.35-4.81.66-3.73,3.7-3,5.89-2.63a73.55,73.55,0,0,1,16.59,4.69c3.7,1.64,6.68.77,9.45-1.7,9.59-8.53,19.12-17.12,28.72-25.63,7.51-6.64,15.12-13.18,22.64-19.8,1.35-1.18,3.52-2.29,3.39-4-.19-2.41-3-2.14-4.73-2.78-4.74-1.74-10.26-3.39-10.34-9.21-.07-6.17,5.65-7.85,10.56-9.51a30,30,0,0,1,5.22-1.45c1.17-.17,2.93-.66,3.41,1,.57,2-1.48,1.77-2.52,2.28-3.22,1.59-7,1.49-10.06,3.87-3.86,3-3.93,5.23.33,7.7,4.51,2.62,9.56,3.53,14.59,4.3,13.64,2.11,27.16,1.62,40.31-2.86,2.87-1,6.8-2.23,6.72-5.68-.07-3.05-3.85-4.19-6.58-5.3-2.42-1-5-1.55-7.49-2.41-.9-.31-1.93-.85-1.67-2.09.23-1.05,1.28-1,2-.89,6.13.89,12.05,2.41,16.19,7.45,2.43,2.95,1.27,7.29-2.52,9.66-7.31,4.59-15.55,6.36-24,6.5-7.71.14-15.48,1-23.19-.64-2-.42-3.75,1.11-5.11,2.61C308,248.5,290.59,265,273.69,281.93c-3.27,3.28-.22,4.54,1.42,6.23,5.85,6,7.65,13.12,3.81,18.12a36.93,36.93,0,0,1-15.54,11.84c-13.07,5.32-26.83,7.26-40.71,9.11a153.09,153.09,0,0,1-22.08,1.36c-12.86-.16-25.86-1.06-38.56-4.21-10.56-2.63-21.18-4.75-30.48-10.9-11.46-7.59-13.23-19-1-27.37,3-2,1.33-3.29-.29-4.91-8.79-8.73-17.61-17.44-26.29-26.28-6.12-6.23-12.17-12.54-18-19-6.11-6.78-13.67-7.44-22.14-6.71-12.15,1.06-23.9-.92-34.45-7.52-3.15-2-3.69-7.83-.87-10.46,4.1-3.81,9.24-5.58,14.8-6.05,1.12-.09,2.56,0,2.66,1.48.07,1.14-1.19,1.56-2.1,1.81-3.81,1.06-7.61,2.09-11.08,4.09-1.46.84-3,1.5-2.92,3.57s1.67,2.6,3.06,3.48c5.76,3.62,12.31,4.42,18.82,5.35,11,1.57,21.89.21,32.69-2,4.34-.89,9.76-2.43,10.09-6.64.34-4.43-5.46-5.26-9.23-6.71-1.67-.64-3.46-1-5.13-1.67-.92-.36-1.75-1.13-1.29-2.31a1.79,1.79,0,0,1,2.43-1c5.7,1.56,11.64,2.51,15.65,7.63,2.72,3.47,2.46,6.58-1,9.36-3.31,2.65-7.25,3.93-11.2,5-3.11.88-3.57,1.93-1.08,4.09,9.33,8.06,18.67,16.1,27.93,24.24,7.41,6.52,14.86,13,22,19.82,4.23,4,8.35,5.77,14.16,3.35,4.21-1.74,8.85-2.46,13.32-3.5,2.35-.55,4.55.24,5.24,2.59s-.91,3.89-3.29,4.59c-8.34,2.46-17,3.93-24.7,8.35-.57.32-1.22.52-1.76.89-10.66,7.35-9.14,11.37-.47,16.61,9.74,5.87,20.71,8.54,31.76,10.3C179.26,319.76,190.77,320.76,201,320Z" class="cls-8"/><path d="M119.11,109.73c0-17.47,0-34.94,0-52.41,0-8.39,3-11.82,11.24-12.61,13.13-1.26,26.3-1.79,39.47-2.42,13.88-.66,27.69.49,41.52.1,19-.53,37.92-.52,56.79,1.32,16.66,1.62,19.31,1.07,19.37,19.19.08,21.76.9,43.52,1.28,65.28.17,9.91-3.52,14-13.86,15.65-25.9,4.1-51.88,7.45-78.19,6.49-21.54-.78-43.17-.5-64.36-5.58-11.23-2.69-14.26-6.25-14.26-17.68V109.73Z" class="cls-9"/><path d="M302.35,107c0-4.11.09-8.23.1-12.34,0-3.29,1.45-5,4.85-5.68,6.52-1.4,13.15-1,19.68-1.39a409.32,409.32,0,0,1,53.91.82c4.48.36,6.87,2,7.23,7.32.79,11.7.34,23.4.83,35.09.22,5.21-2.36,7.81-7.22,9-15.43,3.71-31.11,3-46.77,3-9.89,0-19.83.39-29.15-3.88-.74-.34-1.47-.73-2.2-1.1Z" class="cls-10"/><path d="M101.16,130.63q-38.83.06-77.67.09c-4.8,0-5.4-.9-3.63-5.21a66.48,66.48,0,0,1,4.37-9.36,17.9,17.9,0,0,1,15.92-9.21q23.51-.12,47,.14c7.08.07,11.11,5,15,10.08Z" class="cls-11"/><path d="M198.93,33.63c-5.6,0-11.2.13-16.79,0-6.39-.19-11.51-9.31-8.72-15.09a4.67,4.67,0,0,1,4.74-2.79H220c1.7,0,3.19.34,4.22,2,3.39,5.37-1.68,15.65-8,15.89C210.46,33.8,204.69,33.63,198.93,33.63Z" class="cls-12"/><path d="M116,174c0-8.63,6.17-15.47,14-15.4s14,7.14,14,15.65c0,8.72-6.35,15.86-14.21,16C122.11,190.38,116,183.18,116,174Z" class="cls-12"/><path d="M288.82,174.46c-.08,8.92-6,14.86-14.81,14.81-8.34,0-13.25-5.88-13.1-15.58.12-8.48,6.65-15.3,14.4-15.06S288.9,165.74,288.82,174.46Z" class="cls-12"/><path d="M303.71,147.78c3.65-1.1,6.83-.55,9.17,2.7a7.35,7.35,0,0,1,.56,8.33c-2,3.65-5.11,4.3-8.82,3.65A66.87,66.87,0,0,1,303.71,147.78Z" class="cls-13"/><path d="M100.22,166.41c-4.59-.15-6.3-3.36-6.71-7.12-.53-4.88,2.1-8,6.73-9.56.67.07.69.65.87,1.1C99.89,156,100.7,161.22,100.22,166.41Z" class="cls-14"/><path d="M101.11,150.83l-.87-1.1c.18-1.38-.46-2.95,1-4C101.19,147.42,101.15,149.12,101.11,150.83Z" class="cls-15"/><path d="M388.76,154.81c-.06,4-4,8.69-7.33,8.77-3.67.08-7.55-4.9-7.49-9.62.06-4.28,2.66-7,6.64-7C385.68,147,388.83,150,388.76,154.81Z" class="cls-16"/><path d="M23.69,166.63c-4.54,0-7.71-3.45-7.71-8.31,0-4.41,3.75-8.61,7.73-8.66s8.16,4.43,8.07,8.94A7.86,7.86,0,0,1,23.69,166.63Z" class="cls-17"/></g></g></svg>