<?xml version="1.0" encoding="UTF-8"?> <svg xmlns="http://www.w3.org/2000/svg" width="829" height="657"><defs><clipPath id="clip-path"><path class="cls-1" d="M556.1 418.02h78.8v3.43h-78.8z"></path></clipPath><clipPath id="clip-path-2"><path class="cls-1" d="M269.05 420.82h78.8v3.43h-78.8z"></path></clipPath><style>.cls-1,.cls-43,.cls-58,.cls-59,.cls-6,.cls-7{fill:none}.cls-3,.cls-45{fill:#fff}.cls-22,.cls-31,.cls-32,.cls-34,.cls-36,.cls-37,.cls-38,.cls-4,.cls-40,.cls-42,.cls-43,.cls-45,.cls-8{fill-rule:evenodd}.cls-6,.cls-7{stroke:#032b3f;stroke-width:9.8px;stroke-linecap:round;stroke-linejoin:round}.cls-7{stroke:#e4ba26;stroke-width:1.4px;stroke-dasharray:4.2 4.2}.cls-8{fill:#ebebeb}.cls-9{fill:#0076c3}.cls-10{fill:#0d4c6b}.cls-11{fill:#26c6da}.cls-14{fill:#666}.cls-17{fill:#2c96c3}.cls-18{fill:#bbedf4}.cls-19{fill:#69d6e4}.cls-22{fill:#06995b}.cls-25{fill:#205468}.cls-26{fill:#0075c0}.cls-31,.cls-52{fill:#0782c5}.cls-32{fill:#25c1d5}.cls-34{fill:#f7971c}.cls-36{fill:#e34353}.cls-37{fill:#333}.cls-38{fill:#defaff}.cls-40{fill:#e7e7e7;opacity:.39}.cls-42{fill:#ff9200}.cls-48{fill:#f03e3b}.cls-51{fill:#8cd8e0}.cls-53{fill:#0773a3}.cls-57{fill:#0673a3}.cls-58,.cls-59{stroke:#f5a61e;stroke-miterlimit:10;stroke-width:1.29px}.cls-59{stroke:#8cd8e0}.cls-60{fill:#b7e5f1}.cls-61{fill:#2d2d2d}.cls-62{fill:#2b96c3;opacity:.43}.cls-63{fill:#f9cbcf}</style></defs><g id="illu-free-hero"><g id="Illustration"><path d="M482.12 447.48h-6.77c0-39-8.1-53.81-24.61-67.44-13.11-10.83-19.74-25.58-19.74-43.85 0-25.16 21.42-45.63 47.75-45.63 25.91 0 47.33 20.13 47.76 44.87v.74c0 18.29-6.65 33-19.77 43.87-16.52 13.63-24.62 28.41-24.62 67.44z" fill="#209db2"></path><path class="cls-3" d="M478.73 305.91a32.41 32.41 0 1032.41 32.41 32.44 32.44 0 00-32.41-32.41z"></path><path class="cls-4" d="M467.68 336.89H473a1.9 1.9 0 100-3.79h-5.35a1.9 1.9 0 000 3.79z"></path><path class="cls-4" d="M496.76 338.08a3.07 3.07 0 00-3.07-3.08H479a3.07 3.07 0 00-3.07 3.08v.08h-11.67v-9.43a1.78 1.78 0 10-3.55 0v19.17a1.78 1.78 0 103.55 0v-4.69h28.94v4.71a1.78 1.78 0 003.56 0v-8.3a1.72 1.72 0 00-.14-.68 3 3 0 00.14-.86z"></path><path d="M706.26 442.64h-5.53c0-31.84-6.6-43.89-20.07-55-10.7-8.84-16.12-20.87-16.12-35.78 0-20.52 17.47-37.22 39-37.22 21.14 0 38.62 16.42 39 36.61v.6c0 14.92-5.42 27-16.12 35.79-13.56 11.11-20.16 23.16-20.16 55z" fill="#e04c3f"></path><path class="cls-3" d="M703.49 327.15a26.44 26.44 0 1026.44 26.44 26.47 26.47 0 00-26.44-26.44z"></path><path class="cls-4" d="M700.34 347.08a1.23 1.23 0 010 .19v1.25a2.7 2.7 0 01-1.52 2.15l-1 .46a1.06 1.06 0 01-.19.06l.26 16.06c0 .62-.78.91-1.4.91s-1.4-.28-1.4-.91l.25-16.06a1.39 1.39 0 01-.19-.06l-1-.46a2.71 2.71 0 01-1.51-2.15v-1.25a1.15 1.15 0 010-.19.38.38 0 010-.15l.4-7.28c0-.35.19-.63.37-.63s.35.28.37.63l.37 6.18v.55a.72.72 0 00.78.62.71.71 0 00.77-.62v-.53l.34-6.2c0-.35.19-.63.37-.63s.35.28.37.63l.37 6.2v.53a.72.72 0 00.78.62.72.72 0 00.78-.62v-.6l.34-6.13c0-.35.19-.63.37-.63s.35.28.37.63l.44 7.28a.77.77 0 01.11.15zm13.91-1.94c0-3.38-2.2-6.12-4.93-6.12s-4.93 2.74-4.93 6.12c0 2.86 1.59 5.24 3.72 5.92l-.27 16.1c0 .62.82.91 1.48.91s1.49-.29 1.49-.91l-.28-16.1c2.14-.68 3.72-3.06 3.72-5.92z"></path><path class="cls-6" d="M433.56 599.25h160.79a4.2 4.2 0 001-8.29l-17.89-4.29a6 6 0 011.33-11.84q11.21-.12 14.4-.73 8.13-1.53 10-8.1"></path><path class="cls-7" d="M433.56 599.25h160.79a4.2 4.2 0 001-8.29l-17.89-4.29a6 6 0 011.33-11.84q11.21-.12 14.4-.73 8.13-1.53 10-8.1"></path><g id="Clouds"><path class="cls-8" d="M304.87 318.24v-.9c0-11.4 7.19-20.64 16.05-20.64 6.1 0 11.41 4.37 14.12 10.81a12.58 12.58 0 012.39-.26c6.77 0 12.53 5.45 14.82 13.12a10.51 10.51 0 017.21-3c6.79 0 12.29 7.07 12.29 15.8H285c1.53-9 7.78-15.8 15.27-15.8a12.42 12.42 0 014.6.87zM612.68 349.69v-.67c0-8.48-5.35-15.36-12-15.36-4.54 0-8.49 3.25-10.51 8a9.49 9.49 0 00-1.77-.19c-5 0-9.33 4.06-11 9.76a7.84 7.84 0 00-5.37-2.25c-5.05 0-9.15 5.26-9.15 11.76h64.58c-1.14-6.72-5.79-11.76-11.37-11.76a9.23 9.23 0 00-3.41.71z"></path></g><g id="Buildings_Back" data-name="Buildings Back"><path class="cls-9" d="M720.85 483.9h46.93v133.58h-46.93z"></path><path class="cls-10" d="M718.49 482.54h51.64v3.55h-51.64z"></path><path class="cls-3" transform="rotate(-180 760.135 492.075)" d="M757.64 488h5v8.15h-5z"></path><path class="cls-11" transform="rotate(-180 760.135 489.575)" d="M757.64 488h5v3.15h-5z"></path><path class="cls-3" transform="rotate(-180 749.545 492.075)" d="M747.04 488h5v8.15h-5z"></path><path class="cls-11" transform="rotate(-180 749.545 489.575)" d="M747.04 488h5v3.15h-5z"></path><path class="cls-3" transform="rotate(-180 728.355 492.075)" d="M725.86 488h5v8.15h-5z"></path><path class="cls-11" transform="rotate(-180 728.355 489.575)" d="M725.86 488h5v3.15h-5z"></path><path class="cls-3" transform="rotate(-180 738.95 492.075)" d="M736.45 488h5v8.15h-5z"></path><path class="cls-11" transform="rotate(-180 738.95 489.575)" d="M736.45 488h5v3.15h-5z"></path><path class="cls-3" transform="rotate(-180 760.135 505.605)" d="M757.64 501.53h5v8.15h-5z"></path><path class="cls-11" transform="rotate(-180 760.135 503.105)" d="M757.64 501.53h5v3.15h-5z"></path><path class="cls-3" transform="rotate(-180 749.545 505.605)" d="M747.04 501.53h5v8.15h-5z"></path><path class="cls-11" transform="rotate(-180 749.545 503.105)" d="M747.04 501.53h5v3.15h-5z"></path><path class="cls-3" transform="rotate(-180 728.355 505.605)" d="M725.86 501.53h5v8.15h-5z"></path><path class="cls-11" transform="rotate(-180 728.355 503.105)" d="M725.86 501.53h5v3.15h-5z"></path><path class="cls-3" transform="rotate(-180 738.95 505.605)" d="M736.45 501.53h5v8.15h-5z"></path><path class="cls-11" transform="rotate(-180 738.95 503.105)" d="M736.45 501.53h5v3.15h-5z"></path><path class="cls-3" transform="rotate(-180 760.135 515.66)" d="M757.64 511.59h5v8.15h-5z"></path><path class="cls-11" transform="rotate(-180 760.135 513.165)" d="M757.64 511.59h5v3.15h-5z"></path><path class="cls-3" transform="rotate(-180 749.545 515.66)" d="M747.04 511.59h5v8.15h-5z"></path><path class="cls-11" transform="rotate(-180 749.545 513.165)" d="M747.04 511.59h5v3.15h-5z"></path><path class="cls-3" transform="rotate(-180 728.355 515.66)" d="M725.86 511.59h5v8.15h-5z"></path><path class="cls-11" transform="rotate(-180 728.355 513.165)" d="M725.86 511.59h5v3.15h-5z"></path><path class="cls-3" transform="rotate(-180 738.95 515.66)" d="M736.45 511.59h5v8.15h-5z"></path><path class="cls-11" transform="rotate(-180 738.95 513.165)" d="M736.45 511.59h5v3.15h-5z"></path><path class="cls-3" transform="rotate(-180 760.135 529.07)" d="M757.64 525h5v8.15h-5z"></path><path class="cls-11" transform="rotate(-180 760.135 526.57)" d="M757.64 525h5v3.15h-5z"></path><path class="cls-3" transform="rotate(-180 749.545 529.07)" d="M747.04 525h5v8.15h-5z"></path><path class="cls-11" transform="rotate(-180 749.545 526.57)" d="M747.04 525h5v3.15h-5z"></path><path class="cls-3" transform="rotate(-180 728.355 529.07)" d="M725.86 525h5v8.15h-5z"></path><path class="cls-11" transform="rotate(-180 728.355 526.57)" d="M725.86 525h5v3.15h-5z"></path><path class="cls-3" transform="rotate(-180 738.95 529.07)" d="M736.45 525h5v8.15h-5z"></path><path class="cls-11" transform="rotate(-180 738.95 526.57)" d="M736.45 525h5v3.15h-5z"></path><path class="cls-3" transform="rotate(-180 760.135 539.62)" d="M757.64 535.55h5v8.15h-5z"></path><path class="cls-11" transform="rotate(-180 760.135 537.12)" d="M757.64 535.55h5v3.15h-5z"></path><path class="cls-3" transform="rotate(-180 749.545 539.62)" d="M747.04 535.55h5v8.15h-5z"></path><path class="cls-11" transform="rotate(-180 749.545 537.12)" d="M747.04 535.55h5v3.15h-5z"></path><path class="cls-3" transform="rotate(-180 728.355 539.62)" d="M725.86 535.55h5v8.15h-5z"></path><path class="cls-11" transform="rotate(-180 728.355 537.12)" d="M725.86 535.55h5v3.15h-5z"></path><path class="cls-3" transform="rotate(-180 738.95 539.62)" d="M736.45 535.55h5v8.15h-5z"></path><path class="cls-11" transform="rotate(-180 738.95 537.12)" d="M736.45 535.55h5v3.15h-5z"></path><path class="cls-3" transform="rotate(-180 760.135 552.41)" d="M757.64 548.33h5v8.15h-5z"></path><path class="cls-11" transform="rotate(-180 760.135 549.91)" d="M757.64 548.33h5v3.15h-5z"></path><path class="cls-3" transform="rotate(-180 749.545 552.41)" d="M747.04 548.33h5v8.15h-5z"></path><path class="cls-11" transform="rotate(-180 749.545 549.91)" d="M747.04 548.33h5v3.15h-5z"></path><path class="cls-3" transform="rotate(-180 728.355 552.41)" d="M725.86 548.33h5v8.15h-5z"></path><path class="cls-11" transform="rotate(-180 728.355 549.91)" d="M725.86 548.33h5v3.15h-5z"></path><path class="cls-3" transform="rotate(-180 738.95 552.41)" d="M736.45 548.33h5v8.15h-5z"></path><path class="cls-11" transform="rotate(-180 738.95 549.91)" d="M736.45 548.33h5v3.15h-5z"></path><path class="cls-3" transform="rotate(-180 760.135 563.085)" d="M757.64 559.01h5v8.15h-5z"></path><path class="cls-11" transform="rotate(-180 760.135 560.585)" d="M757.64 559.01h5v3.15h-5z"></path><path class="cls-3" transform="rotate(-180 749.545 563.085)" d="M747.04 559.01h5v8.15h-5z"></path><path class="cls-11" transform="rotate(-180 749.545 560.585)" d="M747.04 559.01h5v3.15h-5z"></path><path class="cls-3" transform="rotate(-180 728.355 563.085)" d="M725.86 559.01h5v8.15h-5z"></path><path class="cls-11" transform="rotate(-180 728.355 560.585)" d="M725.86 559.01h5v3.15h-5z"></path><path class="cls-3" transform="rotate(-180 738.95 563.085)" d="M736.45 559.01h5v8.15h-5z"></path><path class="cls-11" transform="rotate(-180 738.95 560.585)" d="M736.45 559.01h5v3.15h-5z"></path><path class="cls-3" transform="rotate(-180 760.135 576.37)" d="M757.64 572.29h5v8.15h-5z"></path><path class="cls-11" transform="rotate(-180 760.135 573.87)" d="M757.64 572.29h5v3.15h-5z"></path><path class="cls-3" transform="rotate(-180 749.545 576.37)" d="M747.04 572.29h5v8.15h-5z"></path><path class="cls-11" transform="rotate(-180 749.545 573.87)" d="M747.04 572.29h5v3.15h-5z"></path><path class="cls-3" transform="rotate(-180 728.355 576.37)" d="M725.86 572.29h5v8.15h-5z"></path><path class="cls-11" transform="rotate(-180 728.355 573.87)" d="M725.86 572.29h5v3.15h-5z"></path><path class="cls-3" transform="rotate(-180 738.95 576.37)" d="M736.45 572.29h5v8.15h-5z"></path><path class="cls-11" transform="rotate(-180 738.95 573.87)" d="M736.45 572.29h5v3.15h-5z"></path><path class="cls-3" transform="rotate(-180 760.135 586.92)" d="M757.64 582.85h5V591h-5z"></path><path class="cls-11" transform="rotate(-180 760.135 584.42)" d="M757.64 582.85h5V586h-5z"></path><path class="cls-3" transform="rotate(-180 749.545 586.92)" d="M747.04 582.85h5V591h-5z"></path><path class="cls-11" transform="rotate(-180 749.545 584.42)" d="M747.04 582.85h5V586h-5z"></path><path class="cls-3" transform="rotate(-180 728.355 586.92)" d="M725.86 582.85h5V591h-5z"></path><path class="cls-11" transform="rotate(-180 728.355 584.42)" d="M725.86 582.85h5V586h-5z"></path><path class="cls-3" transform="rotate(-180 738.95 586.92)" d="M736.45 582.85h5V591h-5z"></path><path class="cls-11" transform="rotate(-180 738.95 584.42)" d="M736.45 582.85h5V586h-5z"></path><path class="cls-3" transform="rotate(-180 760.135 599.83)" d="M757.64 595.76h5v8.15h-5z"></path><path class="cls-11" transform="rotate(-180 760.135 597.33)" d="M757.64 595.76h5v3.15h-5z"></path><path class="cls-3" transform="rotate(-180 749.545 599.83)" d="M747.04 595.76h5v8.15h-5z"></path><path class="cls-11" transform="rotate(-180 749.545 597.33)" d="M747.04 595.76h5v3.15h-5z"></path><path class="cls-3" transform="rotate(-180 728.355 599.83)" d="M725.86 595.76h5v8.15h-5z"></path><path class="cls-11" transform="rotate(-180 728.355 597.33)" d="M725.86 595.76h5v3.15h-5z"></path><path class="cls-3" transform="rotate(-180 760.135 610.67)" d="M757.64 606.6h5v8.15h-5z"></path><path class="cls-11" transform="rotate(-180 760.135 608.17)" d="M757.64 606.6h5v3.15h-5z"></path><path class="cls-3" transform="rotate(-180 728.355 610.67)" d="M725.86 606.6h5v8.15h-5z"></path><path class="cls-11" transform="rotate(-180 728.355 608.17)" d="M725.86 606.6h5v3.15h-5z"></path><path class="cls-3" transform="rotate(-180 738.95 599.83)" d="M736.45 595.76h5v8.15h-5z"></path><path class="cls-11" transform="rotate(-180 738.95 597.33)" d="M736.45 595.76h5v3.15h-5z"></path><path class="cls-3" d="M736.03 609h1.61v5.92h-1.61zM749.41 609.06h1.61v5.92h-1.61z"></path><path d="M751.12 609.3c0-1.49-3.39-2.7-7.58-2.7s-7.57 1.21-7.57 2.7z" fill="#26c6da" fill-rule="evenodd"></path><g><path fill="#0098c5" d="M626.51 465.63h45.04V617h-45.04z"></path><path class="cls-10" d="M623.01 462.16h52.04v4.2h-52.04z"></path><path class="cls-3" d="M660.61 469.48h6.57v10.29h-6.57z"></path><path class="cls-14" d="M660.61 469.48h6.57v3.15h-6.57z"></path><path class="cls-3" d="M650.75 469.48h6.57v10.29h-6.57z"></path><path class="cls-14" d="M650.75 469.48h6.57v3.15h-6.57z"></path><path class="cls-3" d="M640.9 469.48h6.57v10.29h-6.57z"></path><path class="cls-14" d="M640.9 469.48h6.57v3.15h-6.57z"></path><path class="cls-3" d="M631.05 469.48h6.57v10.29h-6.57z"></path><path class="cls-14" d="M631.05 469.48h6.57v3.15h-6.57z"></path><path class="cls-3" d="M660.61 483.2h6.57v10.29h-6.57z"></path><path class="cls-14" d="M660.61 483.2h6.57v3.15h-6.57z"></path><path class="cls-3" d="M650.75 483.2h6.57v10.29h-6.57z"></path><path class="cls-14" d="M650.75 483.2h6.57v3.15h-6.57z"></path><path class="cls-3" d="M640.9 483.2h6.57v10.29h-6.57z"></path><path class="cls-14" d="M640.9 483.2h6.57v3.15h-6.57z"></path><path class="cls-3" d="M631.05 483.2h6.57v10.29h-6.57z"></path><path class="cls-14" d="M631.05 483.2h6.57v3.15h-6.57z"></path><g><path class="cls-3" d="M660.61 497.07h6.57v10.29h-6.57z"></path><path class="cls-14" d="M660.61 497.07h6.57v3.15h-6.57z"></path><path class="cls-3" d="M650.75 497.07h6.57v10.29h-6.57z"></path><path class="cls-14" d="M650.75 497.07h6.57v3.15h-6.57z"></path><path class="cls-3" d="M640.9 497.07h6.57v10.29h-6.57z"></path><path class="cls-14" d="M640.9 497.07h6.57v3.15h-6.57z"></path><path class="cls-3" d="M631.05 497.07h6.57v10.29h-6.57z"></path><path class="cls-14" d="M631.05 497.07h6.57v3.15h-6.57z"></path><path class="cls-3" d="M660.61 510.79h6.57v10.29h-6.57z"></path><path class="cls-14" d="M660.61 510.79h6.57v3.15h-6.57z"></path><path class="cls-3" d="M650.75 510.79h6.57v10.29h-6.57z"></path><path class="cls-14" d="M650.75 510.79h6.57v3.15h-6.57z"></path><path class="cls-3" d="M640.9 510.79h6.57v10.29h-6.57z"></path><path class="cls-14" d="M640.9 510.79h6.57v3.15h-6.57z"></path><path class="cls-3" d="M631.05 510.79h6.57v10.29h-6.57z"></path><path class="cls-14" d="M631.05 510.79h6.57v3.15h-6.57z"></path></g><g><path class="cls-3" d="M660.61 524.73h6.57v10.29h-6.57z"></path><path class="cls-14" d="M660.61 524.73h6.57v3.15h-6.57z"></path><path class="cls-3" d="M650.75 524.73h6.57v10.29h-6.57z"></path><path class="cls-14" d="M650.75 524.73h6.57v3.15h-6.57z"></path><path class="cls-3" d="M640.9 524.73h6.57v10.29h-6.57z"></path><path class="cls-14" d="M640.9 524.73h6.57v3.15h-6.57z"></path><path class="cls-3" d="M631.05 524.73h6.57v10.29h-6.57z"></path><path class="cls-14" d="M631.05 524.73h6.57v3.15h-6.57z"></path><path class="cls-3" d="M660.61 538.46h6.57v10.29h-6.57z"></path><path class="cls-14" d="M660.61 538.46h6.57v3.15h-6.57z"></path><path class="cls-3" d="M650.75 538.46h6.57v10.29h-6.57z"></path><path class="cls-14" d="M650.75 538.46h6.57v3.15h-6.57z"></path><path class="cls-3" d="M640.9 538.46h6.57v10.29h-6.57z"></path><path class="cls-14" d="M640.9 538.46h6.57v3.15h-6.57z"></path><path class="cls-3" d="M631.05 538.46h6.57v10.29h-6.57z"></path><path class="cls-14" d="M631.05 538.46h6.57v3.15h-6.57z"></path></g><g><path class="cls-3" d="M660.61 552.33h6.57v10.29h-6.57z"></path><path class="cls-14" d="M660.61 552.33h6.57v3.15h-6.57z"></path><path class="cls-3" d="M650.75 552.33h6.57v10.29h-6.57z"></path><path class="cls-14" d="M650.75 552.33h6.57v3.15h-6.57z"></path><path class="cls-3" d="M640.9 552.33h6.57v10.29h-6.57z"></path><path class="cls-14" d="M640.9 552.33h6.57v3.15h-6.57z"></path><path class="cls-3" d="M631.05 552.33h6.57v10.29h-6.57z"></path><path class="cls-14" d="M631.05 552.33h6.57v3.15h-6.57z"></path><path class="cls-3" d="M660.61 566.05h6.57v10.29h-6.57z"></path><path class="cls-14" d="M660.61 566.05h6.57v3.15h-6.57z"></path><path class="cls-3" d="M650.75 566.05h6.57v10.29h-6.57z"></path><path class="cls-14" d="M650.75 566.05h6.57v3.15h-6.57z"></path><path class="cls-3" d="M640.9 566.05h6.57v10.29h-6.57z"></path><path class="cls-14" d="M640.9 566.05h6.57v3.15h-6.57z"></path><path class="cls-3" d="M631.05 566.05h6.57v10.29h-6.57z"></path><path class="cls-14" d="M631.05 566.05h6.57v3.15h-6.57z"></path></g><g><path class="cls-3" d="M660.61 579.99h6.57v10.29h-6.57z"></path><path class="cls-14" d="M660.61 579.99h6.57v3.15h-6.57z"></path><path class="cls-3" d="M650.75 579.99h6.57v10.29h-6.57z"></path><path class="cls-14" d="M650.75 579.99h6.57v3.15h-6.57z"></path><path class="cls-3" d="M640.9 579.99h6.57v10.29h-6.57z"></path><path class="cls-14" d="M640.9 579.99h6.57v3.15h-6.57z"></path><path class="cls-3" d="M631.05 579.99h6.57v10.29h-6.57z"></path><path class="cls-14" d="M631.05 579.99h6.57v3.15h-6.57z"></path><path class="cls-3" d="M660.61 593.71h6.57V604h-6.57z"></path><path class="cls-14" d="M660.61 593.71h6.57v3.15h-6.57z"></path><path class="cls-3" d="M650.75 593.71h6.57V604h-6.57z"></path><path class="cls-14" d="M650.75 593.71h6.57v3.15h-6.57z"></path><path class="cls-3" d="M640.9 593.71h6.57V604h-6.57z"></path><path class="cls-14" d="M640.9 593.71h6.57v3.15h-6.57z"></path><path class="cls-3" d="M631.05 593.71h6.57V604h-6.57z"></path><path class="cls-14" d="M631.05 593.71h6.57v3.15h-6.57z"></path></g></g><g><path class="cls-11" d="M514.26 430.22h48.67v101.35h-48.67z"></path><path class="cls-10" d="M512.88 429.49h51.43v3.47h-51.43zM519.1 441.3h38.99v3.47H519.1zM519.1 451.72h38.99v3.47H519.1zM519.1 465.61h38.99v3.47H519.1zM519.1 476.02h38.99v3.47H519.1z"></path><path class="cls-3" d="M519.1 469.08h16v3.47h-16zM539.71 469.08h16v3.47h-16zM519.1 479.49h16v3.47h-16zM539.71 479.49h16v3.47h-16zM519.1 444.77h16v3.47h-16zM539.71 444.77h16v3.47h-16zM519.1 455.19h16v3.47h-16zM539.71 455.19h16v3.47h-16zM519.1 493.38h16v3.47h-16zM539.71 493.38h16v3.47h-16zM519.1 503.8h16v3.47h-16zM519.1 517.68h19.49v13.89H519.1zM539.71 503.8h16v3.47h-16z"></path><path class="cls-10" d="M519.1 489.91h38.99v3.47H519.1zM519.1 500.32h38.99v3.47H519.1zM519.1 514.21h19.49v3.47H519.1z"></path></g><g><path transform="rotate(-180 595.505 518.365)" fill="#b0eff5" d="M559.39 419.73h72.24V617h-72.24z"></path><g clip-path="url(#clip-path)"><path class="cls-17" d="M551.1 413.01h88.81v13.43H551.1z"></path></g><path class="cls-11" transform="rotate(-180 595.145 434.24)" d="M567.23 428.31h55.82v11.86h-55.82z"></path><path class="cls-3" transform="rotate(-180 595.145 437.67)" d="M567.23 435.17h55.82v5h-55.82z"></path><path class="cls-11" transform="rotate(-180 595.145 450.605)" d="M567.23 444.68h55.82v11.86h-55.82z"></path><path class="cls-3" transform="rotate(-180 595.145 454.04)" d="M567.23 451.54h55.82v5h-55.82z"></path><path class="cls-11" transform="rotate(-180 595.145 467.76)" d="M567.23 461.83h55.82v11.86h-55.82z"></path><path class="cls-3" transform="rotate(-180 595.145 471.19)" d="M567.23 468.69h55.82v5h-55.82z"></path><path class="cls-11" transform="rotate(-180 595.145 484.97)" d="M567.23 479.04h55.82v11.86h-55.82z"></path><path class="cls-3" transform="rotate(-180 595.145 488.4)" d="M567.23 485.9h55.82v5h-55.82z"></path><path class="cls-11" transform="rotate(-180 595.145 502.715)" d="M567.23 496.78h55.82v11.86h-55.82z"></path><path class="cls-3" transform="rotate(-180 595.145 506.145)" d="M567.23 503.64h55.82v5h-55.82z"></path><path class="cls-11" transform="rotate(-180 595.145 519.08)" d="M567.23 513.15h55.82v11.86h-55.82z"></path><path class="cls-3" transform="rotate(-180 595.145 522.51)" d="M567.23 520.01h55.82v5h-55.82z"></path><path class="cls-11" transform="rotate(-180 595.145 536.235)" d="M567.23 530.3h55.82v11.86h-55.82z"></path><path class="cls-3" transform="rotate(-180 595.145 539.665)" d="M567.23 537.16h55.82v5h-55.82z"></path><path class="cls-11" transform="rotate(-180 595.145 553.445)" d="M567.23 547.51h55.82v11.86h-55.82z"></path><path class="cls-3" transform="rotate(-180 595.145 556.875)" d="M567.23 554.37h55.82v5h-55.82z"></path><path class="cls-18" transform="rotate(-180 595.245 494.45)" d="M594.02 426.45h2.45v136h-2.45z"></path><path class="cls-18" transform="rotate(-180 611.815 494.45)" d="M610.59 426.45h2.45v136h-2.45z"></path><path class="cls-18" transform="rotate(-180 578.675 494.45)" d="M577.45 426.45h2.45v136h-2.45z"></path></g><g><path class="cls-19" d="M670.25 442.56h61.45v174.92h-61.45z"></path><path class="cls-10" d="M667.16 440.77h67.63v3.74h-67.63z"></path><path class="cls-3" d="M676.59 447.92h7v10.67h-7z"></path><path class="cls-14" d="M676.59 447.92h7v4.12h-7z"></path><path class="cls-3" d="M690.46 447.92h7v10.67h-7z"></path><path class="cls-14" d="M690.46 447.92h7v4.12h-7z"></path><path class="cls-3" d="M718.21 447.92h7v10.67h-7z"></path><path class="cls-14" d="M718.21 447.92h7v4.12h-7z"></path><path class="cls-3" d="M704.33 447.92h7v10.67h-7z"></path><path class="cls-14" d="M704.33 447.92h7v4.12h-7z"></path><path class="cls-3" d="M676.59 465.64h7v10.67h-7z"></path><path class="cls-14" d="M676.59 465.64h7v4.12h-7z"></path><path class="cls-3" d="M690.46 465.64h7v10.67h-7z"></path><path class="cls-14" d="M690.46 465.64h7v4.12h-7z"></path><path class="cls-3" d="M718.21 465.64h7v10.67h-7z"></path><path class="cls-14" d="M718.21 465.64h7v4.12h-7z"></path><path class="cls-3" d="M704.33 465.64h7v10.67h-7z"></path><path class="cls-14" d="M704.33 465.64h7v4.12h-7z"></path><path class="cls-3" d="M676.59 478.81h7v10.67h-7z"></path><path class="cls-14" d="M676.59 478.81h7v4.12h-7z"></path><path class="cls-3" d="M690.46 478.81h7v10.67h-7z"></path><path class="cls-14" d="M690.46 478.81h7v4.12h-7z"></path><path class="cls-3" d="M718.21 478.81h7v10.67h-7z"></path><path class="cls-14" d="M718.21 478.81h7v4.12h-7z"></path><path class="cls-3" d="M704.33 478.81h7v10.67h-7z"></path><path class="cls-14" d="M704.33 478.81h7v4.12h-7z"></path><path class="cls-3" d="M676.59 496.37h7v10.67h-7z"></path><path class="cls-14" d="M676.59 496.37h7v4.12h-7z"></path><path class="cls-3" d="M690.46 496.37h7v10.67h-7z"></path><path class="cls-14" d="M690.46 496.37h7v4.12h-7z"></path><path class="cls-3" d="M718.21 496.37h7v10.67h-7z"></path><path class="cls-14" d="M718.21 496.37h7v4.12h-7z"></path><path class="cls-3" d="M704.33 496.37h7v10.67h-7z"></path><path class="cls-14" d="M704.33 496.37h7v4.12h-7z"></path><path class="cls-3" d="M676.59 510.19h7v10.67h-7z"></path><path class="cls-14" d="M676.59 510.19h7v4.12h-7z"></path><path class="cls-3" d="M690.46 510.19h7v10.67h-7z"></path><path class="cls-14" d="M690.46 510.19h7v4.12h-7z"></path><path class="cls-3" d="M718.21 510.19h7v10.67h-7z"></path><path class="cls-14" d="M718.21 510.19h7v4.12h-7z"></path><path class="cls-3" d="M704.33 510.19h7v10.67h-7z"></path><path class="cls-14" d="M704.33 510.19h7v4.12h-7z"></path><path class="cls-3" d="M676.59 526.93h7v10.67h-7z"></path><path class="cls-14" d="M676.59 526.93h7v4.12h-7z"></path><path class="cls-3" d="M690.46 526.93h7v10.67h-7z"></path><path class="cls-14" d="M690.46 526.93h7v4.12h-7z"></path><path class="cls-3" d="M718.21 526.93h7v10.67h-7z"></path><path class="cls-14" d="M718.21 526.93h7v4.12h-7z"></path><path class="cls-3" d="M704.33 526.93h7v10.67h-7z"></path><path class="cls-14" d="M704.33 526.93h7v4.12h-7z"></path><path class="cls-3" d="M676.59 540.91h7v10.67h-7z"></path><path class="cls-14" d="M676.59 540.91h7v4.12h-7z"></path><path class="cls-3" d="M690.46 540.91h7v10.67h-7z"></path><path class="cls-14" d="M690.46 540.91h7v4.12h-7z"></path><path class="cls-3" d="M718.21 540.91h7v10.67h-7z"></path><path class="cls-14" d="M718.21 540.91h7v4.12h-7z"></path><path class="cls-3" d="M704.33 540.91h7v10.67h-7z"></path><path class="cls-14" d="M704.33 540.91h7v4.12h-7z"></path><path class="cls-3" d="M676.59 558.31h7v10.67h-7z"></path><path class="cls-14" d="M676.59 558.31h7v4.12h-7z"></path><path class="cls-3" d="M690.46 558.31h7v10.67h-7z"></path><path class="cls-14" d="M690.46 558.31h7v4.12h-7z"></path><path class="cls-3" d="M718.21 558.31h7v10.67h-7z"></path><path class="cls-14" d="M718.21 558.31h7v4.12h-7z"></path><path class="cls-3" d="M704.33 558.31h7v10.67h-7z"></path><path class="cls-14" d="M704.33 558.31h7v4.12h-7z"></path><path class="cls-3" d="M676.59 572.12h7v10.67h-7z"></path><path class="cls-14" d="M676.59 572.12h7v4.12h-7z"></path><path class="cls-3" d="M690.46 572.12h7v10.67h-7z"></path><path class="cls-14" d="M690.46 572.12h7v4.12h-7z"></path><path class="cls-3" d="M718.21 572.12h7v10.67h-7z"></path><path class="cls-14" d="M718.21 572.12h7v4.12h-7z"></path><path class="cls-3" d="M704.33 572.12h7v10.67h-7z"></path><path class="cls-14" d="M704.33 572.12h7v4.12h-7z"></path><path class="cls-3" d="M676.59 589.03h7v10.67h-7z"></path><path class="cls-14" d="M676.59 589.03h7v4.12h-7z"></path><path class="cls-3" d="M690.46 589.03h7v10.67h-7z"></path><path class="cls-14" d="M690.46 589.03h7v4.12h-7z"></path><path class="cls-3" d="M718.21 589.03h7v10.67h-7z"></path><path class="cls-14" d="M718.21 589.03h7v4.12h-7z"></path><path class="cls-3" d="M676.59 603.23h7v10.67h-7z"></path><path class="cls-14" d="M676.59 603.23h7v4.12h-7z"></path><path class="cls-3" d="M718.21 603.23h7v10.67h-7z"></path><path class="cls-14" d="M718.21 603.23h7v4.12h-7z"></path><path class="cls-3" d="M704.33 589.03h7v10.67h-7z"></path><path class="cls-14" d="M704.33 589.03h7v4.12h-7z"></path><path class="cls-3" d="M691.57 606.29h2.05v7.55h-2.05zM708.61 606.36h2.05v7.55h-2.05z"></path><path d="M710.79 606.67c0-1.9-4.32-3.44-9.65-3.44s-9.66 1.54-9.66 3.44z" fill="#666" fill-rule="evenodd"></path></g></g><path d="M46 620h736c-27.86-5.07-29.47-10.33-53.19-29.72q-19.42-15.88-51.21-53.47A140 140 0 00520 496.68l-93.71 36.37a119 119 0 01-117.77-18.29l-20.59-16.59a96.28 96.28 0 00-133.74 12.53q-19.92 23.38-41.09 47.3c-36.29 40.9-58.66 62-67.1 62z" fill="#4bcc7f" fill-rule="evenodd"></path><g id="Trees"><path class="cls-22" d="M661.85 549.13a10.43 10.43 0 00-6.27-9.54 6.2 6.2 0 002.07-4.62 6.3 6.3 0 00-12.6 0 6.2 6.2 0 002.07 4.62 10.4 10.4 0 002.13 19.75v7.21h2.8v-7a10.44 10.44 0 009.8-10.42zM673.05 559a6.17 6.17 0 00-3.76-5.64 3.64 3.64 0 001.24-2.73 3.78 3.78 0 00-7.56 0 3.64 3.64 0 001.24 2.73 6.12 6.12 0 001.84 11.75v4.24h1.4v-4.24a6.21 6.21 0 005.6-6.11z"></path></g><g id="Buildings_Front" data-name="Buildings Front"><path class="cls-10" d="M233.24 468.63h45.04V620h-45.04z"></path><path class="cls-10" d="M229.74 465.16h52.04v4.2h-52.04z"></path><path class="cls-3" d="M267.34 472.48h6.57v10.29h-6.57z"></path><path class="cls-14" d="M267.34 472.48h6.57v3.15h-6.57z"></path><path class="cls-3" d="M257.49 472.48h6.57v10.29h-6.57z"></path><path class="cls-14" d="M257.49 472.48h6.57v3.15h-6.57z"></path><path class="cls-3" d="M247.64 472.48h6.57v10.29h-6.57z"></path><path class="cls-14" d="M247.64 472.48h6.57v3.15h-6.57z"></path><path class="cls-3" d="M237.79 472.48h6.57v10.29h-6.57z"></path><path class="cls-14" d="M237.79 472.48h6.57v3.15h-6.57z"></path><path class="cls-3" d="M267.34 486.2h6.57v10.29h-6.57z"></path><path class="cls-14" d="M267.34 486.2h6.57v3.15h-6.57z"></path><path class="cls-3" d="M257.49 486.2h6.57v10.29h-6.57z"></path><path class="cls-14" d="M257.49 486.2h6.57v3.15h-6.57z"></path><path class="cls-3" d="M247.64 486.2h6.57v10.29h-6.57z"></path><path class="cls-14" d="M247.64 486.2h6.57v3.15h-6.57z"></path><path class="cls-3" d="M237.79 486.2h6.57v10.29h-6.57z"></path><path class="cls-14" d="M237.79 486.2h6.57v3.15h-6.57z"></path><g><path class="cls-3" d="M267.34 500.07h6.57v10.29h-6.57z"></path><path class="cls-14" d="M267.34 500.07h6.57v3.15h-6.57z"></path><path class="cls-3" d="M257.49 500.07h6.57v10.29h-6.57z"></path><path class="cls-14" d="M257.49 500.07h6.57v3.15h-6.57z"></path><path class="cls-3" d="M247.64 500.07h6.57v10.29h-6.57z"></path><path class="cls-14" d="M247.64 500.07h6.57v3.15h-6.57z"></path><path class="cls-3" d="M237.79 500.07h6.57v10.29h-6.57z"></path><path class="cls-14" d="M237.79 500.07h6.57v3.15h-6.57z"></path><path class="cls-3" d="M267.34 513.79h6.57v10.29h-6.57z"></path><path class="cls-14" d="M267.34 513.79h6.57v3.15h-6.57z"></path><path class="cls-3" d="M257.49 513.79h6.57v10.29h-6.57z"></path><path class="cls-14" d="M257.49 513.79h6.57v3.15h-6.57z"></path><path class="cls-3" d="M247.64 513.79h6.57v10.29h-6.57z"></path><path class="cls-14" d="M247.64 513.79h6.57v3.15h-6.57z"></path><path class="cls-3" d="M237.79 513.79h6.57v10.29h-6.57z"></path><path class="cls-14" d="M237.79 513.79h6.57v3.15h-6.57z"></path></g><g><path class="cls-3" d="M267.34 527.73h6.57v10.29h-6.57z"></path><path class="cls-14" d="M267.34 527.73h6.57v3.15h-6.57z"></path><path class="cls-3" d="M257.49 527.73h6.57v10.29h-6.57z"></path><path class="cls-14" d="M257.49 527.73h6.57v3.15h-6.57z"></path><path class="cls-3" d="M247.64 527.73h6.57v10.29h-6.57z"></path><path class="cls-14" d="M247.64 527.73h6.57v3.15h-6.57z"></path><path class="cls-3" d="M237.79 527.73h6.57v10.29h-6.57z"></path><path class="cls-14" d="M237.79 527.73h6.57v3.15h-6.57z"></path><path class="cls-3" d="M267.34 541.46h6.57v10.29h-6.57z"></path><path class="cls-14" d="M267.34 541.46h6.57v3.15h-6.57z"></path><path class="cls-3" d="M257.49 541.46h6.57v10.29h-6.57z"></path><path class="cls-14" d="M257.49 541.46h6.57v3.15h-6.57z"></path><path class="cls-3" d="M247.64 541.46h6.57v10.29h-6.57z"></path><path class="cls-14" d="M247.64 541.46h6.57v3.15h-6.57z"></path><path class="cls-3" d="M237.79 541.46h6.57v10.29h-6.57z"></path><path class="cls-14" d="M237.79 541.46h6.57v3.15h-6.57z"></path></g><g><path class="cls-3" d="M267.34 555.33h6.57v10.29h-6.57z"></path><path class="cls-14" d="M267.34 555.33h6.57v3.15h-6.57z"></path><path class="cls-3" d="M257.49 555.33h6.57v10.29h-6.57z"></path><path class="cls-14" d="M257.49 555.33h6.57v3.15h-6.57z"></path><path class="cls-3" d="M247.64 555.33h6.57v10.29h-6.57z"></path><path class="cls-14" d="M247.64 555.33h6.57v3.15h-6.57z"></path><path class="cls-3" d="M237.79 555.33h6.57v10.29h-6.57z"></path><path class="cls-14" d="M237.79 555.33h6.57v3.15h-6.57z"></path><path class="cls-3" d="M267.34 569.05h6.57v10.29h-6.57z"></path><path class="cls-14" d="M267.34 569.05h6.57v3.15h-6.57z"></path><path class="cls-3" d="M257.49 569.05h6.57v10.29h-6.57z"></path><path class="cls-14" d="M257.49 569.05h6.57v3.15h-6.57z"></path><path class="cls-3" d="M247.64 569.05h6.57v10.29h-6.57z"></path><path class="cls-14" d="M247.64 569.05h6.57v3.15h-6.57z"></path><path class="cls-3" d="M237.79 569.05h6.57v10.29h-6.57z"></path><path class="cls-14" d="M237.79 569.05h6.57v3.15h-6.57z"></path></g><g><path class="cls-3" d="M267.34 582.99h6.57v10.29h-6.57z"></path><path class="cls-14" d="M267.34 582.99h6.57v3.15h-6.57z"></path><path class="cls-3" d="M257.49 582.99h6.57v10.29h-6.57z"></path><path class="cls-14" d="M257.49 582.99h6.57v3.15h-6.57z"></path><path class="cls-3" d="M247.64 582.99h6.57v10.29h-6.57z"></path><path class="cls-14" d="M247.64 582.99h6.57v3.15h-6.57z"></path><path class="cls-3" d="M237.79 582.99h6.57v10.29h-6.57z"></path><path class="cls-14" d="M237.79 582.99h6.57v3.15h-6.57z"></path><path class="cls-3" d="M267.34 596.71h6.57V607h-6.57z"></path><path class="cls-14" d="M267.34 596.71h6.57v3.15h-6.57z"></path><path class="cls-3" d="M257.49 596.71h6.57V607h-6.57z"></path><path class="cls-14" d="M257.49 596.71h6.57v3.15h-6.57z"></path><path class="cls-3" d="M247.64 596.71h6.57V607h-6.57z"></path><path class="cls-14" d="M247.64 596.71h6.57v3.15h-6.57z"></path><path class="cls-3" d="M237.79 596.71h6.57V607h-6.57z"></path><path class="cls-14" d="M237.79 596.71h6.57v3.15h-6.57z"></path></g><g><path fill="#045569" d="M272.33 422.53h72.24V619.8h-72.24z"></path><g clip-path="url(#clip-path-2)"><path class="cls-17" d="M264.05 415.82h88.81v13.43h-88.81z"></path></g><path class="cls-11" d="M280.9 431.11h55.82v11.86H280.9z"></path><path class="cls-3" d="M280.9 437.97h55.82v5H280.9z"></path><path class="cls-11" d="M280.9 447.48h55.82v11.86H280.9z"></path><path class="cls-3" d="M280.9 454.34h55.82v5H280.9z"></path><path class="cls-11" d="M280.9 464.63h55.82v11.86H280.9z"></path><path class="cls-3" d="M280.9 471.49h55.82v5H280.9z"></path><path class="cls-11" d="M280.9 481.84h55.82v11.86H280.9z"></path><path class="cls-3" d="M280.9 488.7h55.82v5H280.9z"></path><path class="cls-11" d="M280.9 499.58h55.82v11.86H280.9z"></path><path class="cls-3" d="M280.9 506.45h55.82v5H280.9z"></path><path class="cls-11" d="M280.9 515.95h55.82v11.86H280.9z"></path><path class="cls-3" d="M280.9 522.81h55.82v5H280.9z"></path><path class="cls-11" d="M280.9 533.11h55.82v11.86H280.9z"></path><path class="cls-3" d="M280.9 539.97h55.82v5H280.9z"></path><path class="cls-11" d="M280.9 550.32h55.82v11.86H280.9z"></path><path class="cls-3" d="M280.9 557.18h55.82v5H280.9z"></path><path class="cls-25" d="M308.68 429.25h2.45v136h-2.45zM293.3 429.25h2.45v136h-2.45zM324.06 429.25h2.45v136h-2.45z"></path></g><g><path class="cls-9" d="M132.05 486.85h48.27V619.8h-48.27z"></path><path class="cls-3" d="M138.48 492.03h35.4v7.22h-35.4z"></path><path class="cls-11" d="M138.48 492.03h35.4v3.77h-35.4z"></path><path class="cls-3" d="M138.48 502.53h35.4v7.22h-35.4z"></path><path class="cls-11" d="M138.48 502.53h35.4v3.77h-35.4z"></path><path class="cls-3" d="M138.48 512.86h35.4v7.22h-35.4z"></path><path class="cls-11" d="M138.48 512.86h35.4v3.77h-35.4z"></path><path class="cls-3" d="M138.48 523.28h35.4v7.22h-35.4z"></path><path class="cls-11" d="M138.48 523.28h35.4v3.77h-35.4z"></path><path class="cls-3" d="M138.48 533.61h35.4v7.22h-35.4z"></path><path class="cls-11" d="M138.48 533.61h35.4v3.77h-35.4z"></path><path class="cls-3" d="M138.48 544.16h35.4v7.22h-35.4z"></path><path class="cls-11" d="M138.48 544.16h35.4v3.77h-35.4z"></path><path class="cls-3" d="M138.48 554.49h35.4v7.22h-35.4z"></path><path class="cls-11" d="M138.48 554.49h35.4v3.77h-35.4z"></path><g><path class="cls-3" d="M138.48 554.51h35.4v7.22h-35.4z"></path><path class="cls-11" d="M138.48 554.51h35.4v3.77h-35.4z"></path><path class="cls-3" d="M138.48 565.01h35.4v7.22h-35.4z"></path><path class="cls-11" d="M138.48 565.01h35.4v3.77h-35.4z"></path><path class="cls-3" d="M138.48 575.34h35.4v7.22h-35.4z"></path><path class="cls-11" d="M138.48 575.34h35.4v3.77h-35.4z"></path><path class="cls-3" d="M138.48 585.75h35.4v7.22h-35.4z"></path><path class="cls-11" d="M138.48 585.75h35.4v3.77h-35.4z"></path><path class="cls-3" d="M138.48 596.09h35.4v7.22h-35.4z"></path><path class="cls-11" d="M138.48 596.09h35.4v3.77h-35.4z"></path></g><path class="cls-26" d="M167.06 490.17h4v115.85h-4zM141.31 490.17h4v115.85h-4zM158.48 490.17h4v115.85h-4zM149.89 490.17h4v115.85h-4z"></path><path class="cls-10" d="M130.12 483.1h52.12v4.73h-52.12z"></path></g><g><path class="cls-19" d="M173.4 445.86h61.15V619.8H173.4z"></path><path class="cls-3" d="M220.91 453.62h7v10.29h-7z"></path><path class="cls-14" d="M220.91 453.62h7v3.15h-7z"></path><path class="cls-3" d="M206.78 453.62h7v10.29h-7z"></path><path class="cls-14" d="M206.78 453.62h7v3.15h-7z"></path><path class="cls-3" d="M192.65 453.62h7v10.29h-7z"></path><path class="cls-14" d="M192.65 453.62h7v3.15h-7z"></path><path class="cls-3" d="M178.52 453.62h7v10.29h-7z"></path><path class="cls-14" d="M178.52 453.62h7v3.15h-7z"></path><path class="cls-3" d="M220.91 469.35h7v10.29h-7z"></path><path class="cls-14" d="M220.91 469.35h7v3.15h-7z"></path><path class="cls-3" d="M206.78 469.35h7v10.29h-7z"></path><path class="cls-14" d="M206.78 469.35h7v3.15h-7z"></path><path class="cls-3" d="M192.65 469.35h7v10.29h-7z"></path><path class="cls-14" d="M192.65 469.35h7v3.15h-7z"></path><path class="cls-3" d="M178.52 469.35h7v10.29h-7z"></path><path class="cls-14" d="M178.52 469.35h7v3.15h-7z"></path><path class="cls-3" d="M220.91 482.35h7v10.29h-7z"></path><path class="cls-14" d="M220.91 482.35h7v3.15h-7z"></path><path class="cls-3" d="M206.78 482.35h7v10.29h-7z"></path><path class="cls-14" d="M206.78 482.35h7v3.15h-7z"></path><path class="cls-3" d="M192.65 482.35h7v10.29h-7z"></path><path class="cls-14" d="M192.65 482.35h7v3.15h-7z"></path><path class="cls-3" d="M178.52 482.35h7v10.29h-7z"></path><path class="cls-14" d="M178.52 482.35h7v3.15h-7z"></path><path class="cls-3" d="M220.91 498.07h7v10.29h-7z"></path><path class="cls-14" d="M220.91 498.07h7v3.15h-7z"></path><path class="cls-3" d="M206.78 498.07h7v10.29h-7z"></path><path class="cls-14" d="M206.78 498.07h7v3.15h-7z"></path><path class="cls-3" d="M192.65 498.07h7v10.29h-7z"></path><path class="cls-14" d="M192.65 498.07h7v3.15h-7z"></path><path class="cls-3" d="M178.52 498.07h7v10.29h-7z"></path><path class="cls-14" d="M178.52 498.07h7v3.15h-7z"></path><path class="cls-3" d="M220.91 511.51h7v10.29h-7z"></path><path class="cls-14" d="M220.91 511.51h7v3.15h-7z"></path><path class="cls-3" d="M206.78 511.51h7v10.29h-7z"></path><path class="cls-14" d="M206.78 511.51h7v3.15h-7z"></path><path class="cls-3" d="M192.65 511.51h7v10.29h-7z"></path><path class="cls-14" d="M192.65 511.51h7v3.15h-7z"></path><path class="cls-3" d="M178.52 511.51h7v10.29h-7z"></path><path class="cls-14" d="M178.52 511.51h7v3.15h-7z"></path><path class="cls-3" d="M220.91 527.23h7v10.29h-7z"></path><path class="cls-14" d="M220.91 527.23h7v3.15h-7z"></path><path class="cls-3" d="M206.78 527.23h7v10.29h-7z"></path><path class="cls-14" d="M206.78 527.23h7v3.15h-7z"></path><path class="cls-3" d="M192.65 527.23h7v10.29h-7z"></path><path class="cls-14" d="M192.65 527.23h7v3.15h-7z"></path><path class="cls-3" d="M178.52 527.23h7v10.29h-7z"></path><path class="cls-14" d="M178.52 527.23h7v3.15h-7z"></path><path class="cls-3" d="M220.91 540.24h7v10.29h-7z"></path><path class="cls-14" d="M220.91 540.24h7v3.15h-7z"></path><path class="cls-3" d="M206.78 540.24h7v10.29h-7z"></path><path class="cls-14" d="M206.78 540.24h7v3.15h-7z"></path><path class="cls-3" d="M192.65 540.24h7v10.29h-7z"></path><path class="cls-14" d="M192.65 540.24h7v3.15h-7z"></path><path class="cls-3" d="M178.52 540.24h7v10.29h-7z"></path><path class="cls-14" d="M178.52 540.24h7v3.15h-7z"></path><path class="cls-3" d="M220.91 555.96h7v10.29h-7z"></path><path class="cls-14" d="M220.91 555.96h7v3.15h-7z"></path><path class="cls-3" d="M206.78 555.96h7v10.29h-7z"></path><path class="cls-14" d="M206.78 555.96h7v3.15h-7z"></path><path class="cls-3" d="M192.65 555.96h7v10.29h-7z"></path><path class="cls-14" d="M192.65 555.96h7v3.15h-7z"></path><path class="cls-3" d="M178.52 555.96h7v10.29h-7z"></path><path class="cls-14" d="M178.52 555.96h7v3.15h-7z"></path><path class="cls-3" d="M220.91 569.97h7v10.29h-7z"></path><path class="cls-14" d="M220.91 569.97h7v3.15h-7z"></path><path class="cls-3" d="M206.78 569.97h7v10.29h-7z"></path><path class="cls-14" d="M206.78 569.97h7v3.15h-7z"></path><path class="cls-3" d="M192.65 569.97h7v10.29h-7z"></path><path class="cls-14" d="M192.65 569.97h7v3.15h-7z"></path><path class="cls-3" d="M178.52 569.97h7v10.29h-7z"></path><path class="cls-14" d="M178.52 569.97h7v3.15h-7z"></path><path class="cls-3" d="M220.91 586.97h7v10.29h-7z"></path><path class="cls-14" d="M220.91 586.97h7v3.15h-7z"></path><path class="cls-3" d="M206.78 586.97h7v10.29h-7z"></path><path class="cls-14" d="M206.78 586.97h7v3.15h-7z"></path><path class="cls-3" d="M192.65 586.97h7v10.29h-7z"></path><path class="cls-14" d="M192.65 586.97h7v3.15h-7z"></path><path class="cls-3" d="M178.52 586.97h7v10.29h-7z"></path><path class="cls-14" d="M178.52 586.97h7v3.15h-7z"></path><path class="cls-3" d="M220.91 604.77h7v10.29h-7z"></path><path class="cls-14" d="M220.91 604.77h7v3.15h-7z"></path><path class="cls-3" d="M178.52 604.77h7v10.29h-7z"></path><path class="cls-14" d="M178.52 604.77h7v3.15h-7z"></path><path class="cls-3" d="M192.6 605.35h1.97v9.71h-1.97zM212.59 605.35h1.97v9.71h-1.97z"></path><path class="cls-14" d="M214.56 605.35c0-2.64-4.92-4.79-11-4.79s-11 2.15-11 4.79z"></path><path class="cls-10" d="M170.34 442.09h66.4v3.77h-66.4z"></path></g><g><path fill="#00c9dc" d="M100.46 518.51h48.67v101.35h-48.67z"></path><path class="cls-10" d="M99.07 517.77h51.43v3.47H99.07zM105.3 529.59h38.99v3.47H105.3zM105.3 540.01h38.99v3.47H105.3zM105.3 553.89h38.99v3.47H105.3zM105.3 564.31h38.99v3.47H105.3z"></path><path class="cls-3" d="M105.3 557.37h9.67v3.47h-9.67zM120.54 557.37h18.48v3.47h-18.48zM105.3 567.78h9.67v3.47h-9.67zM120.54 567.78h18.48v3.47h-18.48zM105.3 533.06h9.67v3.47h-9.67zM120.54 533.06h18.48v3.47h-18.48zM105.3 543.48h9.67v3.47h-9.67zM120.54 543.48h18.48v3.47h-18.48zM105.3 581.67h9.67v3.47h-9.67zM120.54 581.67h18.48v3.47h-18.48zM105.3 592.08h9.67v3.47h-9.67zM105.3 605.97h19.49v13.89H105.3zM120.54 592.08h18.48v3.47h-18.48z"></path><path class="cls-10" d="M105.3 578.2h38.99v3.47H105.3zM105.3 588.61h38.99v3.47H105.3zM105.3 602.5h19.49v3.47H105.3z"></path></g><g><path fill="#0282c8" d="M133.86 570.48h33.76v49.51h-33.76z"></path><path class="cls-3" transform="rotate(180 164.1 594.35)" d="M160.58 592.61h7.04v3.47h-7.04z"></path><path class="cls-3" transform="rotate(180 149.8 594.35)" d="M143.08 592.61h13.45v3.47h-13.45z"></path><path class="cls-3" transform="rotate(180 164.1 583.935)" d="M160.58 582.2h7.04v3.47h-7.04z"></path><path class="cls-3" transform="rotate(180 149.8 583.935)" d="M143.08 582.2h13.45v3.47h-13.45z"></path><path class="cls-10" transform="rotate(180 153.435 597.82)" d="M139.25 596.09h28.37v3.47h-28.37z"></path><path class="cls-3" transform="rotate(180 164.1 604.97)" d="M160.58 603.23h7.04v3.47h-7.04z"></path><path class="cls-3" transform="rotate(180 149.8 604.97)" d="M143.08 603.23h13.45v3.47h-13.45z"></path><path class="cls-10" transform="rotate(180 153.435 608.445)" d="M139.25 606.71h28.37v3.47h-28.37z"></path><path class="cls-10" transform="rotate(180 153.435 587.405)" d="M139.25 585.67h28.37v3.47h-28.37z"></path><path class="cls-10" d="M130.78 570.48h38.99v3.47h-38.99z"></path></g></g><g id="Trees-2" data-name="Trees"><path class="cls-22" d="M420.9 529a10.41 10.41 0 00-6.27-9.53 6.3 6.3 0 10-8.46 0 10.39 10.39 0 002.13 19.74v7.21h2.8v-7a10.44 10.44 0 009.8-10.42zM433.37 536.28a6.15 6.15 0 00-3.76-5.63 3.68 3.68 0 001.24-2.74 3.78 3.78 0 00-7.56 0 3.68 3.68 0 001.24 2.74 6.12 6.12 0 001.84 11.74v4.25h1.4v-4.25a6.2 6.2 0 005.6-6.11z"></path></g><path id="Hill_Front" data-name="Hill Front" class="cls-22" d="M775.22 620H83.79c28-1.64 44.38-3.1 70.26-8.89 38.83-8.69 81.13-40.85 126.28-44.51q30.45-2.48 64.53 10.33a119.1 119.1 0 0077.68 2.07l81.39-25.68a130.25 130.25 0 0183.85 1.87q46.13 16.85 89.55 33.51c41.91 16.12 74.54 26.68 97.89 31.3z"></path><path id="Plane" d="M173 151.77l14.06 4.76 5.09 11.47a8.73 8.73 0 005.2 4.76l-1.6-13.3 1.88.64a20.13 20.13 0 009.37.9l3.72-.54v.14a5.06 5.06 0 002.32 3.51l.1.06v-3.71h1.21v-1.23h-1.21l3.66-6.23a4.62 4.62 0 00-4.69.3l-5 3.41-10.97-3.71 10.94-9.88a8.8 8.8 0 00-7 .61l-12.42 6.8-7.09-1.8a7.25 7.25 0 00-5.07.57 2.43 2.43 0 00-2.43 2.43z" fill="#ade6f2" fill-rule="evenodd"></path><g id="Plane-2" data-name="Plane"><path d="M361.53 218.45H355c0-37.76-7.83-52.06-23.8-65.25-12.7-10.48-19.13-24.75-19.13-42.43 0-24.34 20.73-44.15 46.21-44.15 25.06 0 45.79 19.48 46.2 43.42v.71c0 17.7-6.43 32-19.12 42.45-15.99 13.19-23.83 27.49-23.83 65.25z" fill="#5fc782"></path><path class="cls-3" d="M358.26 81.47a31.36 31.36 0 1031.35 31.36 31.4 31.4 0 00-31.35-31.36z"></path><path class="cls-4" d="M348.65 102.75a7.69 7.69 0 013.48.31c1.53.42 4.32 1.3 6.67 2.06l-7.08 3.25-4.1-4.12s-.86-.67-.22-1a11.67 11.67 0 011.25-.5zm24.68-2.5a4 4 0 012.62.84 3.16 3.16 0 01.9.92c.5.77-1.18 2.08-1.54 2.39-.91.8-2.11 1.52-9.12 4.85l-.14.06c-1.25 2.82-5.31 12-5.75 13.12a6.63 6.63 0 01-3.09 2.93.52.52 0 01-.73-.52l-1.4-10.84-1.6.57-.23.07-1.34.44H351.76l-.68.21-.2.06-1.05.3-.34.09-.65.16-.53.13-.39.09-.58.12-.33.06-.56.1h-.21l-.66.1h-.15l-.65.07c-1.36-.27-2.43-2.24-2.43-2.24s-2.66-4.49-2.74-4.82a.69.69 0 01.32-.87 2.2 2.2 0 01.32-.12 1.79 1.79 0 01.36 0 1.5 1.5 0 01.56.07l.25.08.32.15c.08 0 .16.09.24.13s.61.32.89.49a2.68 2.68 0 01.33.22l.09.07.45.32.11.08c.12.09.26.19.39.3l.15.12.58.46.35.28a5.11 5.11 0 00.68.43h.5a.76.76 0 00.16-.06l6-2.78 16.68-7.77a10.68 10.68 0 013.99-.86z"></path><g id="Plane-3" data-name="Plane"><path class="cls-31" d="M292.37 223h-.15a.22.22 0 000 .44h.15a.22.22 0 000-.44h-.15a.22.22 0 000 .44h.15a.22.22 0 000-.44"></path><path class="cls-32" d="M308.1 221.11v3.24h-27.24l-.08-3.24-2.25-9.11-1.08-4.36-2.45-9.86h8.14a4.08 4.08 0 013.17 1.5l13.1 16.12 1.83 2.26 1 1.2a6.11 6.11 0 004.75 2.25z"></path><path d="M286.63 221h108.63c5.31 0 8.58.31 12.07 1.66s4.55 3.24 7.58 4.74 6.09 2.83 6.09 5.6-2.88 4.89-6.9 6.1-7.28 2-15.71 2h-77.55a34.08 34.08 0 01-12.84-2.47l-30-12.48a1.27 1.27 0 01-.79-1.17v-2.7a1.26 1.26 0 011-1.24z" fill="#eee" fill-rule="evenodd"></path><path class="cls-31" d="M326.34 227.29a1 1 0 01-1-1v-1a1 1 0 012 0v1a1 1 0 01-1 1M322.61 227.29a1 1 0 01-1-1v-1a1 1 0 012 0v1a1 1 0 01-1 1M318.88 227.29a1 1 0 01-1-1v-1a1 1 0 012 0v1a1 1 0 01-1 1M315.15 227.29a1 1 0 01-1-1v-1a1 1 0 012 0v1a1 1 0 01-1 1M386 227.29a1 1 0 01-1-1v-1a1 1 0 012 0v1a1 1 0 01-1 1M382.29 227.29a1 1 0 01-1-1v-1a1 1 0 012 0v1a1 1 0 01-1 1M389.75 227.29a1 1 0 01-1-1v-1a1 1 0 012 0v1a1 1 0 01-1 1M378.56 227.29a1 1 0 01-1-1v-1a1 1 0 012 0v1a1 1 0 01-1 1M374.83 227.29a1 1 0 01-1-1v-1a1 1 0 012 0v1a1 1 0 01-1 1M371.1 227.29a1 1 0 01-1-1v-1a1 1 0 012 0v1a1 1 0 01-1 1M367.37 227.29a1 1 0 01-1-1v-1a1 1 0 012 0v1a1 1 0 01-1 1M363.64 227.29a1 1 0 01-1-1v-1a1 1 0 012 0v1a1 1 0 01-1 1M359.91 227.29a1 1 0 01-1-1v-1a1 1 0 012 0v1a1 1 0 01-1 1M356.18 227.29a1 1 0 01-1-1v-1a1 1 0 012 0v1a1 1 0 01-1 1M352.45 227.29a1 1 0 01-1-1v-1a1 1 0 012 0v1a1 1 0 01-1 1M348.72 227.29a1 1 0 01-1-1v-1a1 1 0 012 0v1a1 1 0 01-1 1M345 227.29a1 1 0 01-1-1v-1a1 1 0 012 0v1a1 1 0 01-1 1M341.26 227.29a1 1 0 01-1-1v-1a1 1 0 012 0v1a1 1 0 01-1 1M337.53 227.29a1 1 0 01-1-1v-1a1 1 0 012 0v1a1 1 0 01-1 1M333.8 227.29a1 1 0 01-1-1v-1a1 1 0 012 0v1a1 1 0 01-1 1M330.07 227.29a1 1 0 01-1-1v-1a1 1 0 012 0v1a1 1 0 01-1 1"></path><path class="cls-32" d="M378 234.55h-39.87a3.3 3.3 0 100 6.59H378a3.3 3.3 0 100-6.59"></path><path class="cls-34" d="M376.25 236.86L323 228.05c-.65-.11-1.31-.2-2-.26a20.34 20.34 0 01-9.25-4.34 4.7 4.7 0 00-2.95-1l1 2.42a7.35 7.35 0 004 3.92l25 10.19H376a1.09 1.09 0 001.08-.86 1.05 1.05 0 00-.87-1.22"></path><path class="cls-31" d="M414.62 227.21h-5.81a1.47 1.47 0 01-1.05-.43 1.44 1.44 0 01-.43-1 1.47 1.47 0 011.48-1.47h1.59c.7.49 1.32 1 2 1.5a15.21 15.21 0 002.22 1.43M405.32 225.28v1a1 1 0 01-2 0v-1a1 1 0 012 0"></path><path d="M375.17 238.49v8.7a1.51 1.51 0 01-1.52 1.5h-6.35a64.56 64.56 0 01-13.17-1.58c-1.36-.3-2.57-.59-3.57-.84l-1.36-.34v-6.19l1.36-.33c1-.25 2.21-.54 3.57-.84A64.56 64.56 0 01367.3 237h6.35a1.51 1.51 0 011.52 1.5" fill="#66ca88" fill-rule="evenodd"></path><path class="cls-32" d="M350.56 239.41v6.86l-1.36-.34v-6.19l1.36-.33"></path><path class="cls-31" d="M354.13 238.57v8.54c-1.36-.3-2.57-.59-3.57-.84v-6.86c1-.25 2.21-.54 3.57-.84M375.17 238.49v8.7a1.51 1.51 0 01-1.52 1.5h-.8V237h.8a1.51 1.51 0 011.52 1.5"></path><path class="cls-32" d="M279.53 221v5.75l-1.52-.63a1.28 1.28 0 01-.79-1.07v-2.8a1.09 1.09 0 010-.18 1.27 1.27 0 011-1.06z"></path></g></g><g id="Road"><path class="cls-6" d="M423.64 606.58h160.8a4.2 4.2 0 001-8.29L567.53 594a6 6 0 011.33-11.85q11.21-.12 14.39-.73 8.13-1.51 10-8.1"></path><path class="cls-7" d="M423.64 606.58h160.8a4.2 4.2 0 001-8.29L567.53 594a6 6 0 011.33-11.85q11.21-.12 14.39-.73 8.13-1.51 10-8.1"></path></g><g id="Bus"><path class="cls-36" d="M458.9 563.74a1.2 1.2 0 011.22-1.19h5.34a4.58 4.58 0 014.64 4.51v4.44a2.32 2.32 0 01-4.64 0v-6.58h-5.34a1.2 1.2 0 01-1.22-1.18"></path><path class="cls-4" d="M453.38 620c3.62 0 6.55-4.08 6.55-9.11s-2.93-9.11-6.55-9.11h-3.25V620z"></path><path class="cls-4" d="M457.13 610.89c0 5-3.14 9.11-7 9.11s-7-4.08-7-9.11 3.13-9.11 7-9.11 7 4.08 7 9.11M343.35 620c3.61 0 6.54-4.08 6.54-9.11s-2.93-9.11-6.54-9.11h-3.25V620z"></path><path class="cls-4" d="M347.09 610.89c0 5-3.13 9.11-7 9.11s-7-4.08-7-9.11 3.13-9.11 7-9.11 7 4.08 7 9.11"></path><path class="cls-36" d="M274.69 553.26h179.73c3.09 0 5.7 2.77 6.12 6.49l1.81 12.14c2.25 15.22 3.38 25.7 3.38 41.06h-199V561.7c.55-4.84 4-8.44 8-8.44"></path><path class="cls-4" d="M403.37 620c3.61 0 6.54-4.08 6.54-9.11s-2.93-9.11-6.54-9.11h-3.26V620z"></path><path class="cls-37" d="M407.11 610.89c0 5-3.13 9.11-7 9.11s-7-4.08-7-9.11 3.14-9.11 7-9.11 7 4.08 7 9.11"></path><path class="cls-38" d="M404.31 610.19c0 3.1-1.88 5.61-4.2 5.61s-4.2-2.51-4.2-5.61 1.88-5.6 4.2-5.6 4.2 2.51 4.2 5.6"></path><path class="cls-4" d="M302 620c3.61 0 6.54-4.08 6.54-9.11s-2.93-9.11-6.54-9.11h-3.26V620z"></path><path class="cls-37" d="M305.72 610.89c0 5-3.13 9.11-7 9.11s-7-4.08-7-9.11 3.14-9.11 7-9.11 7 4.08 7 9.11"></path><path class="cls-38" d="M302.92 610.19c0 3.1-1.88 5.61-4.2 5.61s-4.2-2.51-4.2-5.61 1.88-5.6 4.2-5.6 4.2 2.51 4.2 5.6M465.76 601.78c.05 1.4.1 2.81.14 4.21h-3.45c-.67 0-1-1-.52-1.55l1.13-1.31a3.7 3.7 0 012.7-1.35M438.36 606h-7.87a5.16 5.16 0 01-3.48-1.35l-1.42-1.31a.9.9 0 01.66-1.55h7.87a5.16 5.16 0 013.48 1.35l1.42 1.32a.89.89 0 01-.66 1.54M456.16 556.94c1.06 0 2.36 1.38 2.6 3.44v.06l1.88 12.27c1.05 6.84 1.87 13.75 2.45 20.67H437a6.63 6.63 0 01-6.81-5.66q-.79-7.76-2-15.49L426.28 560a8.37 8.37 0 00-1-3.08z"></path><path class="cls-36" d="M425.71 563.74a1.2 1.2 0 011.22-1.19h5.34a4.57 4.57 0 014.63 4.51v4.44a2.32 2.32 0 01-4.63 0v-6.58h-5.34a1.2 1.2 0 01-1.22-1.18"></path><g><path class="cls-4" d="M281.14 563.1c.39-2.94 2.26-5.22 4.31-5.22h136.11c1 0 2.25 1.38 2.48 3.44l1.81 12.28c1 6.46 1.71 13 2.25 19.49a1.17 1.17 0 01-1.36 1.22l-13.27-2.1-.35-13.31H287.86l-4.68-5.46a8.77 8.77 0 01-2-5.59z"></path><path class="cls-36" d="M407.88 584.51h-3.59l5.09-28.03h1.9l-3.4 28.03z"></path><path fill="#e34353" d="M408.51 570.5h18.2v2.8h-18.2z"></path><path class="cls-40" d="M327.93 557.88l-40.07 21.02h23.57l21.53-10.66-.31-10.36h-4.72zM353.41 557.88l-16.28 21.02h9.57l11.28-11.65-2.66-9.37h-1.91zM380 557.88l-16.28 21.02h9.58l11.47-11.19-2.85-9.83H380zM405.2 557.88l-16.28 21.02h9.57l8.62-10.51 2.02-10.51h-3.93z"></path><path class="cls-36" d="M334.93 584.51h3.6l-5.1-28.03h-1.9l3.4 28.03zM358.73 584.51h3.59l-5.09-28.03h-1.91l3.41 28.03zM385.32 584.51h3.6l-5.1-28.03h-1.9l3.4 28.03z"></path></g></g><g id="Car"><path d="M220.91 580.26H216c0-57.62-14.27-79.44-38.64-99.56C158 464.71 148.2 442.93 148.2 416c0-37.14 31.63-67.36 70.5-67.36 38.26 0 69.88 29.72 70.51 66.25v1.09c0 27-9.82 48.78-29.18 64.77-24.37 20.07-39.12 41.89-39.12 99.51z" fill="#f7971c"></path><path class="cls-3" d="M218.7 371.25a47.85 47.85 0 1047.85 47.84 47.89 47.89 0 00-47.85-47.84z"></path><path class="cls-4" d="M243 410.46h-4.49l-2.8-5.32a8.35 8.35 0 00-7.37-4.56h-19.23a8.38 8.38 0 00-7.38 4.56l-2.79 5.32h-4.49c-1.12 0-2 .61-2 1.37v2.28a1.93 1.93 0 002 1.83h.37a2.25 2.25 0 00-.29 1.1v13.16a4.36 4.36 0 003.15 4.25v1a2.16 2.16 0 002.11 2.2H204a2.15 2.15 0 002.1-2.2v-.82h25.23v.82a2.15 2.15 0 002.1 2.2h4.2a2.16 2.16 0 002.11-2.2v-1a4.36 4.36 0 003.15-4.25V417a2.25 2.25 0 00-.29-1.1h.4a1.93 1.93 0 002-1.83v-2.28c0-.72-.92-1.33-2-1.33zm-4.29 15.35a3.15 3.15 0 11-3.15-3.29 3.23 3.23 0 013.11 3.29zm-36-15.47l2-3.36a7 7 0 016.09-3.38h15.87a7 7 0 016.09 3.38l2 3.36 2.25 3.84h-36.55zm-.82 12.18a3.3 3.3 0 11-3.16 3.29 3.23 3.23 0 013.16-3.29zm22.11 4.39h-10.55a1.1 1.1 0 010-2.19H224a1.1 1.1 0 010 2.19z"></path><g id="Un_coche" data-name="Un coche"><g id="Car-2" data-name="Car"><path class="cls-4" d="M272.45 597.07c3.9 0 7.06 5.13 7.06 11.47S276.35 620 272.45 620h-3.51c-3.9 0-7.07-5.13-7.07-11.46s3.17-11.47 7.07-11.47z"></path><path class="cls-42" d="M223.84 577.67h5.46c14.74 0 32.62 11.8 32.62 11.8l19.92 7.21c2.79 1 4.73 4.44 4.73 8.37v7.89h-80l-10-35.27z"></path><path class="cls-4" d="M207.19 597.07h-3.51c-3.9 0-7.06 5.13-7.06 11.47s3.16 11.46 7.06 11.46h3.51c3.9 0 7.06-5.13 7.06-11.46s-3.16-11.47-7.06-11.47"></path><path class="cls-43" d="M258.35 593.54l5.27-.67c1-.12 1.78-1.42 1.78-3s-.77-2.86-1.78-3l-3.17-.4c-1.13-.14-2.1 1.23-2.1 3z"></path><path class="cls-43" d="M263.31 593.26l-3.2.28a1.71 1.71 0 011.66-1.76h3.63a2.57 2.57 0 01-2.09 1.48"></path><path d="M229.62 579.43h-26v8.82h54.68c-5.39-2.83-18.06-8.82-28.73-8.82" fill="#042d48" fill-rule="evenodd"></path><path class="cls-4" d="M179.67 619.93c5.85 0 10.6-5.53 10.6-12.34s-4.75-12.35-10.6-12.35h-5.28l1.77 24.69z"></path><path class="cls-37" d="M185.25 608.07c0 6.59-3.74 11.93-8.35 11.93s-8.34-5.34-8.34-11.93 3.73-11.94 8.34-11.94 8.35 5.34 8.35 11.94"></path><path class="cls-45" d="M182.2 608.54c0 3.89-2.37 7.05-5.3 7.05s-5.29-3.16-5.29-7.05 2.37-7.06 5.29-7.06 5.3 3.16 5.3 7.06"></path><path class="cls-4" d="M241.25 620c3.9 0 7.06-5.13 7.06-11.46s-3.16-11.47-7.06-11.47h-3.52V620z"></path><path class="cls-37" d="M244.24 608.54c0 6.33-3.56 11.46-7.94 11.46s-7.94-5.13-7.94-11.46 3.56-11.47 7.94-11.47 7.94 5.13 7.94 11.47"></path><path class="cls-45" d="M241.59 608.54c0 3.89-2.37 7.05-5.29 7.05s-5.29-3.16-5.29-7.05 2.37-7.06 5.29-7.06 5.29 3.16 5.29 7.06"></path><path class="cls-42" d="M250.18 596.68l-19.52-7.21s-17.52-11.8-32-11.8h-5.34c-13 0-30.5 8.37-30.5 8.37v12.08a18.91 18.91 0 00-3.26 10.94v3.88h9.7v-5.76c0-5.87 3.43-10.64 7.67-10.64s7.68 4.77 7.68 10.64v5.76h42.79v-5.76c0-5.87 3.43-10.64 7.67-10.64s7.67 4.77 7.67 10.64v5.76h12.08v-7.89c0-3.93-1.9-7.36-4.64-8.37"></path><path d="M197.87 579.43h-5.31c-6.84 0-15.13 2.3-21.18 4.37a1.61 1.61 0 00-.94 2.45L173 590h52.75a.76.76 0 00.45-1.42c-5.21-2.89-17.76-9.17-28.32-9.17" fill="#0d4c6b" fill-rule="evenodd"></path><path class="cls-43" d="M226.19 588.6c-5.22-2.89-17.82-9.17-28.42-9.17h-5.32c-6.87 0-15.19 2.31-21.26 4.37a1.77 1.77 0 00-1 .85c8.8-2.42 29.76-6.13 49.25 5.37h6.33a.76.76 0 00.45-1.42"></path><path class="cls-34" d="M201.91 593.54h-4.16l-1.13-14.11h2.78l2.51 14.11zM175.45 590.63h2.77l.76-9.43h-1.86l-1.67 9.43z"></path><path class="cls-42" d="M261.87 591.78l5.28-.5a2.3 2.3 0 000-4.48l-3.18-.3a2.08 2.08 0 00-2.1 2.24zM223.07 591.78l-5.27-.5a2.3 2.3 0 010-4.48l3.17-.3a2.08 2.08 0 012.1 2.24z"></path><path class="cls-43" d="M226.12 595.07l-1.3-1.53h-1.12c-.51 0-.8.91-.51 1.58l1.23 2.84a1.35 1.35 0 00.9.87c.7.09 1.28-.78 1.28-1.88v-.36a2.42 2.42 0 00-.48-1.52"></path><path class="cls-45" d="M259 602.36h-8.92a5 5 0 01-4-2.26l-1.61-2.21c-.68-.94-.21-2.58.75-2.58h8.92a5 5 0 013.94 2.26l1.62 2.2c.68 1 .21 2.59-.75 2.59M282.14 597.07a5.89 5.89 0 00-.75.82l-1.56 2.11c-.67.88-.21 2.41.72 2.41h4.25a12.29 12.29 0 00-2.66-5.29"></path><path fill="#f03e3b" fill-rule="evenodd" d="M163.1 586.49l3.53 2.85v2.71l-3.53 5.02v-10.58z"></path></g><circle class="cls-48" cx="253.65" cy="609.91" r="2.49"></circle><circle class="cls-48" cx="283.29" cy="609.91" r="2.49"></circle></g></g><g id="Hotel"><path d="M501.56 445.54h-32.89v17.31h39.59v-11.67h.19c0-3.12-3.09-5.64-6.89-5.64" fill="#8cd8e0" fill-rule="evenodd"></path><path fill="#41b7cb" d="M492.35 451.04h35.99v96.77h-35.99z"></path><path class="cls-51" d="M439.3 451.04h59.67v96.77H439.3z"></path><path class="cls-52" d="M518.87 458.91h8.53v10.23h-8.53z"></path><path class="cls-53" d="M518.87 458.91h8.53v3.15h-8.53z"></path><path class="cls-51" d="M526.45 458.91h.95v10.23h-.95z"></path><path class="cls-52" d="M518.87 474.65h8.53v10.23h-8.53z"></path><path class="cls-53" d="M518.87 474.65h8.53v3.15h-8.53z"></path><path class="cls-51" d="M526.45 474.65h.95v10.23h-.95z"></path><path class="cls-52" d="M518.87 491.17h8.53v10.23h-8.53z"></path><path class="cls-53" d="M518.87 491.17h8.53v3.15h-8.53z"></path><path class="cls-51" d="M526.45 491.17h.95v10.23h-.95z"></path><path class="cls-52" d="M518.87 506.9h8.53v10.23h-8.53z"></path><path class="cls-53" d="M518.87 506.9h8.53v3.15h-8.53z"></path><path class="cls-51" d="M526.45 506.9h.95v10.23h-.95z"></path><path d="M476.25 534.44H462v-83c0-3.26 3.18-5.89 7.1-5.89s7.11 2.63 7.11 5.89z" fill="#41b7cb" fill-rule="evenodd"></path><path fill="#f4c121" d="M511.29 451.04h12.31v97.56h-12.31z"></path><path class="cls-45" d="M519.82 477.79l-8.53 5.66v3l8.53-5.66v-3zM519.82 531.29l-8.53 5.66v3l8.53-5.66v-3zM519.82 528.15l-8.53 5.59v1.49l8.53-5.6v-1.48zM519.82 513.2l-8.53 5.65v3l8.53-5.65v-3zM519.82 510.84l-8.53 5.59v1.49l8.53-5.6v-1.48zM519.82 495.1l-8.53 5.66v3l8.53-5.66v-3zM519.82 492.74l-8.53 5.6v1.48l8.53-5.59v-1.49zM519.82 474.65l-8.53 5.59v1.49l8.53-5.6v-1.48zM519.82 459.7l-8.53 5.65v3l8.53-5.65v-3zM519.82 456.55l-8.53 5.6v1.48l8.53-5.59v-1.49z"></path><path fill="#f5a61e" d="M519.82 451.04h4.74v97.56h-4.74z"></path><path class="cls-51" d="M439.3 545.46h71.99v3.15H439.3z"></path><path class="cls-52" d="M462.04 532.08h14.21v16.52h-14.21z"></path><path class="cls-57" d="M462.98 532.87h5.68v12.59h-5.68zM469.61 532.87h5.68v12.59h-5.68z"></path><path class="cls-51" d="M524.55 545.46h4.74v3.15h-4.74z"></path><path class="cls-31" d="M469.14 459.7c-1.83 0-3.31 1.12-3.31 2.51v6.93h6.63v-6.93c0-1.39-1.49-2.51-3.32-2.51M469.14 474.65c-1.83 0-3.31 1.12-3.31 2.51v6.93h6.63v-6.93c0-1.39-1.49-2.51-3.32-2.51M469.14 490.38c-1.83 0-3.31 1.13-3.31 2.52v6.92h6.63v-6.92c0-1.39-1.49-2.52-3.32-2.52M469.14 506.12c-1.83 0-3.31 1.12-3.31 2.51v6.93h6.63v-6.93c0-1.39-1.49-2.51-3.32-2.51"></path><path class="cls-52" d="M442.15 506.12h16.1v10.23h-16.1z"></path><path class="cls-53" d="M442.15 506.12h16.1v3.15h-16.1z"></path><path class="cls-52" d="M480.03 506.12h16.1v10.23h-16.1z"></path><path class="cls-53" d="M480.03 506.12h16.1v3.15h-16.1z"></path><path class="cls-52" d="M442.15 490.38h16.1v10.23h-16.1z"></path><path class="cls-53" d="M442.15 490.38h16.1v3.15h-16.1z"></path><path class="cls-52" d="M480.03 490.38h16.1v10.23h-16.1z"></path><path class="cls-53" d="M480.03 490.38h16.1v3.15h-16.1z"></path><path class="cls-52" d="M442.15 474.65h16.1v10.23h-16.1z"></path><path class="cls-53" d="M442.15 474.65h16.1v3.15h-16.1z"></path><path class="cls-52" d="M480.03 474.65h16.1v10.23h-16.1z"></path><path class="cls-53" d="M480.03 474.65h16.1v3.15h-16.1z"></path><path class="cls-52" d="M442.15 458.91h16.1v10.23h-16.1z"></path><path class="cls-53" d="M442.15 458.91h16.1v3.15h-16.1z"></path><path class="cls-52" d="M480.03 458.91h16.1v10.23h-16.1z"></path><path class="cls-53" d="M480.03 458.91h16.1v3.15h-16.1z"></path><path class="cls-52" d="M501.82 458.91h8.53v10.23h-8.53z"></path><path class="cls-53" d="M501.82 458.91h8.53v3.15h-8.53z"></path><path class="cls-51" d="M508.45 458.91h.95v10.23h-.95z"></path><path class="cls-52" d="M501.82 474.65h8.53v10.23h-8.53z"></path><path class="cls-53" d="M501.82 474.65h8.53v3.15h-8.53z"></path><path class="cls-51" d="M508.45 474.65h.95v10.23h-.95z"></path><path class="cls-52" d="M501.82 491.17h8.53v10.23h-8.53z"></path><path class="cls-53" d="M501.82 491.17h8.53v3.15h-8.53z"></path><path class="cls-51" d="M508.45 491.17h.95v10.23h-.95z"></path><path class="cls-52" d="M501.82 506.9h8.53v10.23h-8.53z"></path><path class="cls-53" d="M501.82 506.9h8.53v3.15h-8.53z"></path><path class="cls-51" d="M508.45 506.9h.95v10.23h-.95z"></path><path class="cls-58" d="M511.29 472.29h13.26M511.29 455.76h13.26M511.29 488.02h13.26M511.29 503.76h13.26M511.29 519.49h13.26M511.29 536.02h13.26"></path><path class="cls-52" d="M480.03 532.08h16.1v13.38h-16.1zM501.82 532.08h8.53v13.38h-8.53z"></path><path class="cls-51" d="M508.45 532.08h.95v13.38h-.95z"></path><path class="cls-59" d="M479.72 536.02h17.75"></path><path class="cls-52" d="M443.09 532.08h16.1v13.38h-16.1z"></path><path class="cls-59" d="M441.85 536.02h17.75M501.82 536.02h7.58"></path><path class="cls-45" d="M475.65 530c0-3.2-3.12-5.8-7-5.8s-7 2.6-7 5.8h-8.17v2.07h30.31V530z"></path><path class="cls-3" d="M453.51 532.08h.95v16.52h-.95zM482.87 532.08h.95v16.52h-.95z"></path></g><g><path class="cls-60" d="M543.85 537.89h66.74v35.02h-66.74z"></path><path class="cls-3" transform="rotate(180 606.42 555.68)" d="M604.65 541.35h3.53V570h-3.53z"></path><path class="cls-3" d="M571.66 541.35h9.45v28.27h-9.45z"></path><path class="cls-60" d="M575.23 539.03h2.01v32.92h-2.01z"></path><path class="cls-3" transform="rotate(180 548.02 555.68)" d="M546.26 541.35h3.53V570h-3.53z"></path><path class="cls-61" d="M543.85 537.86h66.74l-8.34-3.9h-48.91l-9.49 3.9z"></path><path class="cls-60" transform="rotate(90 576.885 554.385)" d="M576.12 522.74h1.53v63.29h-1.53z"></path><path class="cls-60" transform="rotate(90 576.885 546.045)" d="M576.12 514.4h1.53v63.29h-1.53z"></path><path class="cls-60" transform="rotate(90 576.885 564.125)" d="M576.12 532.48h1.53v63.29h-1.53z"></path><path class="cls-62" transform="rotate(180 560.535 555.38)" d="M551.49 537.86h18.09v35.05h-18.09z"></path><path class="cls-60" d="M553.07 533.99h14.94v38.91h-14.94z"></path><path class="cls-61" d="M568 533.99h-14.93l4.26-6.29h6.41l4.26 6.29z"></path><path class="cls-3" d="M556.27 536.33h9.01v33.09h-9.01z"></path><path class="cls-60" d="M559.23 535.66h3.09v36.1h-3.09z"></path><path class="cls-60" transform="rotate(90 560.775 556.785)" d="M559.85 551.69h1.84v10.19h-1.84z"></path><path class="cls-60" transform="rotate(90 560.775 550.105)" d="M559.85 545.01h1.84v10.19h-1.84z"></path><path class="cls-60" transform="rotate(90 560.775 543.425)" d="M559.85 538.33h1.84v10.19h-1.84z"></path><path class="cls-60" transform="rotate(90 560.775 563.465)" d="M559.85 558.37h1.84v10.19h-1.84z"></path><path class="cls-62" transform="rotate(180 592.515 555.395)" d="M583.47 537.89h18.09v35.02h-18.09z"></path><g><path class="cls-60" d="M585.05 533.99h14.94v38.91h-14.94z"></path><path class="cls-61" d="M599.98 533.99h-14.93l4.26-6.29h6.41l4.26 6.29z"></path><path class="cls-3" d="M588.25 536.33h9.01v33.09h-9.01z"></path><path class="cls-60" d="M591.21 535.66h3.09v36.1h-3.09z"></path><path class="cls-60" transform="rotate(90 592.755 556.785)" d="M591.83 551.69h1.84v10.19h-1.84z"></path><path class="cls-60" transform="rotate(90 592.755 550.105)" d="M591.83 545.01h1.84v10.19h-1.84z"></path><path class="cls-60" transform="rotate(90 592.755 543.425)" d="M591.83 538.33h1.84v10.19h-1.84z"></path><path class="cls-60" transform="rotate(90 592.755 563.465)" d="M591.83 558.37h1.84v10.19h-1.84z"></path></g><g><path class="cls-63" d="M500.75 544.4h66.74v28.5h-66.74z"></path><path class="cls-3" transform="rotate(180 563.315 558.175)" d="M561.55 546.35h3.53V570h-3.53z"></path><path class="cls-3" d="M523.48 546.35h11.74V570h-11.74z"></path><path class="cls-63" d="M527.34 544.4h4.02v27.55h-4.02z"></path><path class="cls-63" transform="rotate(90 521.935 552.995)" d="M521.17 537.3h1.53v31.39h-1.53z"></path><path class="cls-63" transform="rotate(90 521.935 562.725)" d="M521.17 547.03h1.53v31.39h-1.53z"></path><path class="cls-63" transform="rotate(90 563.315 552.995)" d="M562.55 548.82h1.53v8.34h-1.53z"></path><path class="cls-63" transform="rotate(90 563.315 562.725)" d="M562.55 558.56h1.53v8.34h-1.53z"></path><path transform="rotate(180 549.41 557.4)" fill="#eeabb0" d="M538.53 541.89h21.76v31.01h-21.76z"></path><path class="cls-61" d="M500.75 544.4h66.74l-8.35-3.9h-48.9l-9.49 3.9z"></path><path class="cls-63" d="M539.68 540.5h19.47v32.4h-19.47z"></path><path class="cls-61" d="M559.14 540.5h-19.46l5.56-5.23h8.34l5.56 5.23z"></path><path class="cls-3" d="M543.85 542.45h11.74V570h-11.74z"></path><path class="cls-63" d="M547.71 541.89h4.02v30.05h-4.02z"></path><path class="cls-63" transform="rotate(90 549.725 557.165)" d="M548.95 550.52h1.53v13.28h-1.53z"></path><path class="cls-63" transform="rotate(90 549.725 551.605)" d="M548.95 544.96h1.53v13.28h-1.53z"></path><path class="cls-63" transform="rotate(90 549.72 546.04)" d="M548.95 539.4h1.53v13.28h-1.53z"></path><path class="cls-63" transform="rotate(90 549.72 562.73)" d="M548.95 556.09h1.53v13.28h-1.53z"></path></g></g></g></g></svg> 