<svg xmlns="http://www.w3.org/2000/svg" viewBox="0 0 190.94 370.5"><defs><style>.cls-1{fill:#818284;}.cls-2{fill:#010101;}.cls-3{fill:#535353;}.cls-4{fill:#fff;}.cls-5{fill:none;stroke:#fff;stroke-linecap:round;stroke-linejoin:round;stroke-width:0.75px;}.cls-6{fill:#f5fdff;opacity:0.1;}.cls-7{fill:#f8f8f8;}.cls-8{fill:#36b5fa;}.cls-9{fill:#fefefe;}.cls-10{fill:#bababa;}.cls-11{fill:#3abafc;}.cls-12{fill:#34b1f9;}.cls-13{fill:#2ba3f6;}.cls-14{fill:#28a0f5;}.cls-15{fill:#30abf8;}.cls-16{fill:#2da7f7;}.cls-17{fill:#33b0f9;}.cls-18{fill:#259bf3;}.cls-19{fill:#2296f2;}.cls-20{fill:#757575;}.cls-21{fill:#767676;}.cls-22{fill:#777;}.cls-23{fill:#787878;}.cls-24{fill:#31acf8;}.cls-25{fill:#33aff9;}.cls-26{fill:#d5d5d5;}.cls-27{fill:#fdfdfd;}.cls-28{fill:#fcfcfc;}.cls-29{fill:#fbfbfb;}.cls-30{fill:#fafafa;}.cls-31{fill:#33b1f9;}.cls-32{fill:#fcfdfe;}.cls-33{fill:#fbfdfe;}.cls-34{fill:#fdfdfe;}.cls-35{fill:#f5fafe;}.cls-36{fill:#2fa9f7;}.cls-37{fill:#bdbdbd;}.cls-38{fill:#bebebe;}.cls-39{fill:#c5c5c5;}.cls-40{fill:#bbb;}.cls-41{fill:#bcbcbc;}.cls-42{fill:#bfbfbf;}.cls-43{fill:#32aef9;}.cls-44{fill:#30acf8;}.cls-45{fill:#2ea9f7;}.cls-46{fill:#34b0f9;}.cls-47{fill:#2a9ef3;}.cls-48{fill:#299cf3;}.cls-49{fill:#269cf4;}</style></defs><title>register</title><g id="Layer_2" data-name="Layer 2"><g id="Objects"><rect class="cls-1" width="190.94" height="370.5" rx="28.16"/><rect class="cls-2" x="1.44" y="2.03" width="188.44" height="365.66" rx="28.16"/><path class="cls-3" d="M113.68,19.73H76.09a1.31,1.31,0,0,1-1.32-1.29h0a1.3,1.3,0,0,1,1.32-1.28h37.59A1.3,1.3,0,0,1,115,18.44h0A1.31,1.31,0,0,1,113.68,19.73Z"/><rect class="cls-4" x="35.38" y="348.55" width="7.14" height="0.95"/><rect class="cls-5" x="93.26" y="349.07" width="5.6" height="5.37"/><path class="cls-5" d="M148.89,348.74l-2.58,2.51a1,1,0,0,0,0,1.37l2.58,2.51"/><path class="cls-6" d="M114.94,1.07,3.44,341.26,1,27.48C.85,13.34,12.49,1.76,27,1.56,60.75,1.11,115,.47,114.94,1.07Z"/><path class="cls-7" d="M3.84,334V143.69c.29-.13.54,0,.78.14A255.38,255.38,0,0,0,29,153.14q9.53,3.08,19.28,5.3c3.57.82,7.16,1.55,10.76,2.22.13,0,.25,0,.38,0q7,1.2,14,2c2.76.3,5.52.53,8.29.71,3.23.2,6.46.36,9.7.39.94,0,1.89.17,2.85.11.76,0,1.51,0,2.27,0a38.69,38.69,0,0,0,4.57-.08c1.47,0,2.93-.25,4.4-.17a2.43,2.43,0,0,0,.93-.08l4.5-.3c1.75-.1,3.5-.29,5.25-.43,2.51-.21,5-.62,7.51-.85a1.83,1.83,0,0,0,.25-.06c4.11-.64,8.23-1.28,12.31-2.1s8.35-1.78,12.49-2.85q4.58-1.23,9.12-2.56c3-.88,6-1.89,8.94-2.91,6.49-2.23,12.85-4.76,19.13-7.53a3,3,0,0,1,.76-.28c.18,0,.34,0,.33.24q0,94.61,0,189.21c0,1.08.16.95-.92,1-2.08,0-4.16,0-6.24,0-.54,0-.72-.21-.74-.69,0-.26,0-.51,0-.77,0-3.81,0-7.63,0-11.44a2.1,2.1,0,0,0-.63-1.73,1.7,1.7,0,0,0-1.08-.48H14.4a9.73,9.73,0,0,0-1.08,0,1.83,1.83,0,0,0-1.61,1.63,7.67,7.67,0,0,0,0,.83v11.45c0,1.18,0,1.18-1.19,1.18h-6A1.43,1.43,0,0,1,3.84,334Z"/><path class="cls-8" d="M94.25,164c-3.36,0-6.73-.11-10.09-.3q-3.8-.19-7.59-.55c-4-.37-8.08-.84-12.09-1.46-1.74-.27-3.48-.48-5.2-.86-.66-.19-.88-.83-1.25-1.29-1.73-2.2-3.44-4.4-5.15-6.61l-4-5.12-4-5.16c-1.33-1.7-2.65-3.41-4-5.11l-4-5.16L33,127.32l-4.05-5.21q-2-2.53-3.94-5.06l-4.09-5.27-3.94-5.06-4.05-5.21L9,96.44c-1.36-1.75-2.72-3.51-4.1-5.26-.34-.43-.63-.9-1-1.3V49.3c.46-.15.57.28.75.51,1,1.21,1.91,2.44,2.86,3.66L23.29,73.84Q28.86,81,34.4,88.14l15.57,20q3.68,4.71,7.33,9.44a14.55,14.55,0,0,0,1.08,1.14,2.74,2.74,0,0,1-.14,1.3c-.1.49-.24,1-.32,1.48-.14.86-.15.85.76.87a14.23,14.23,0,0,1,2.26.06,15,15,0,0,1,1.58,2q6.91,8.91,13.84,17.8l16.37,21.06a1,1,0,0,0,1,.49C93.88,163.76,94.17,163.69,94.25,164Z"/><path class="cls-9" d="M3.84,334c2.33,0,4.66,0,7,0,.51,0,.65-.14.65-.65,0-4.17,0-8.35,0-12.53a2,2,0,0,1,2.11-2.1H177.25a2,2,0,0,1,2.09,2.12c0,4.13,0,8.27,0,12.4,0,.56.11.77.73.76,2.07,0,4.15,0,6.23,0,.58,0,.77-.19.68-.73V143.69c-.31-.34-.21-.77-.21-1.16q0-9.89,0-19.77c0-4.36,0-8.73,0-13.09a3.62,3.62,0,0,1,0-.57c0-12.3,0-24.6,0-36.9,0-.42,0-.84,0-1.27,0-9.13,0-18.27,0-27.41,0-.53,0-1.06,0-1.59-.05-3.83,0-7.67,0-11.5a1,1,0,0,1,.21-.72s.14-.06.13.07v.5q0,151.64,0,303.27c0,.48-.11.59-.58.59q-91.07,0-182.12,0C4.23,334.12,4,334.26,3.84,334Z"/><path class="cls-10" d="M187,29.71q0,6.12,0,12.22a.94.94,0,0,1-.72.21H164.72l-.25,0a10.84,10.84,0,0,1-1.14,0H135.6a8.81,8.81,0,0,1-.89,0,10.84,10.84,0,0,1-1.14,0H107.68c-.36,0-.72,0-1.08,0a9.51,9.51,0,0,1-1.07,0H83a8.75,8.75,0,0,1-.89,0,10.84,10.84,0,0,1-1.14,0h-24c-.4,0-.8,0-1.21,0a9.51,9.51,0,0,1-1.07,0H31.38c-.36,0-.72,0-1.08,0a8.68,8.68,0,0,1-1,0H12.69c-.36,0-.72,0-1.08,0-2.37.05-4.75,0-7.12,0a.86.86,0,0,1-.65-.21c0-3.88,0-7.76,0-11.64,0-.47.1-.58.58-.58H187Z"/><path class="cls-11" d="M3.84,89.88c.31,0,.46.27.63.49l4.3,5.54c1,1.33,2,2.68,3.08,4,1.32,1.7,2.65,3.38,4,5.07,1,1.26,2,2.54,2.94,3.8l3.3,4.23,2.9,3.75c1.12,1.43,2.24,2.85,3.35,4.28l3.05,4c1.05,1.34,2.11,2.68,3.15,4s2,2.53,2.94,3.8,2.21,2.81,3.31,4.23c1,1.24,1.93,2.5,2.9,3.75,1.12,1.43,2.24,2.85,3.35,4.28l3,3.9c1.06,1.37,2.13,2.72,3.19,4.08l2.91,3.75c.81,1,1.62,2.1,2.45,3.13.24.29.32.71.7.88-4.41-.71-8.76-1.67-13.1-2.7A241.15,241.15,0,0,1,9.67,146.2c-2-.8-3.89-1.67-5.83-2.51Z"/><path class="cls-12" d="M3.84,41.92l7.76,0c.91,1,1.7,2.12,2.53,3.19L32.71,69l12,15.46,14.83,19.07c.23.3.54.47.78.74,0,.23-.24.27-.4.35a11.22,11.22,0,0,0-3.58,2.8,4.2,4.2,0,0,0-.92,3.51,1.8,1.8,0,0,0,1.44,1.45c.28.08.56.23.82-.06a6.12,6.12,0,0,1,.74-4.92,3.45,3.45,0,0,1,2.08-1.8,1.93,1.93,0,0,1,.73.77c-.6,1.66-.71,3.43-1.22,5.1-.43,1.38-.57,2.81-1,4.19a3.22,3.22,0,0,0-.14.7c-.11.55-.19,1.11-.33,1.66a1,1,0,0,1-.3.6.73.73,0,0,1-.69-.38l-6.76-8.76c-3.07-3.94-6.16-7.86-9.23-11.81-2.27-2.91-4.5-5.84-6.77-8.75-2.47-3.18-5-6.35-7.44-9.52-1.66-2.13-3.3-4.27-5-6.4-2.2-2.83-4.41-5.65-6.6-8.48l-5-6.45L4.14,49.51a.41.41,0,0,0-.3-.21Z"/><path class="cls-9" d="M95.4,235.79H13.76a2,2,0,0,1-2.29-2.3V208a2,2,0,0,1,2.18-2.22H177.18a2,2,0,0,1,2.16,2.17v25.7a2,2,0,0,1-2.18,2.15Z"/><path class="cls-9" d="M95.41,311.1H13.71a2,2,0,0,1-2.24-2.22V283.25a2,2,0,0,1,2.17-2.17H177.17a2,2,0,0,1,2.17,2.16v25.69a2,2,0,0,1-2.17,2.17Z"/><path class="cls-9" d="M95.4,273.45H13.76a2,2,0,0,1-2.29-2.31v-25.5a2,2,0,0,1,2.18-2.22H177.18a2,2,0,0,1,2.16,2.18v25.69a2,2,0,0,1-2.18,2.16Z"/><path class="cls-13" d="M82.05,41.94h23.79l.76,0c1.05,1.23,2,2.53,3,3.8l15.8,20.32q5.47,7,10.93,14l14.91,19.17,12,15.41,15.61,20.07c2.31,3,4.63,6,6.94,8.94a.79.79,0,0,1,.21.38c-2.75,1.3-5.57,2.43-8.4,3.56-3.43,1.37-6.88,2.68-10.39,3.87l-.3.07a26.47,26.47,0,0,1-2.26-2.81q-7.51-9.65-15-19.31l-11.15-14.34c-.83-1.07-1.66-2.14-2.52-3.19a4.93,4.93,0,0,0-.58-1.65c-.16-.76-.16-.77-.94-.58a.25.25,0,0,1-.34-.17,17,17,0,0,0-2.11-2.92c-1.64-2.14-3.3-4.25-5-6.37s-3.27-4.22-4.91-6.32l-4.92-6.32-4.87-6.27-4.09-5.27-4-5.06-4-5.17-4.8-6.17-5-6.42Q88,50.12,85.6,47c-1.16-1.49-2.33-3-3.46-4.47C82,42.33,81.87,42.16,82.05,41.94Z"/><path class="cls-14" d="M186,144.08a11.87,11.87,0,0,1-1.73-2.08c-2.53-3.21-5-6.45-7.55-9.68l-5-6.39-6.6-8.48-5-6.46c-2.18-2.81-4.38-5.61-6.57-8.42l-5-6.45L142,87.69c-1.67-2.14-3.32-4.3-5-6.45-2.19-2.81-4.39-5.61-6.57-8.42-1.67-2.15-3.33-4.31-5-6.45l-6.57-8.43-5-6.45-6.56-8.43a2.54,2.54,0,0,1-.7-1.12h27.34l.76,0c1.73,2.14,3.38,4.33,5.08,6.49S143.26,53,145,55.17a.53.53,0,0,1,.14.28c0,.26-.22.4-.35.59a1.84,1.84,0,0,0-.1,2.18,1.86,1.86,0,0,0,2.18.72c.26-.09.48-.3.77-.26a9.9,9.9,0,0,1,1.23,1.51c.15.2.25.45,0,.64a2.11,2.11,0,0,1-.93-.17,6.54,6.54,0,0,0-4.46.41,1.57,1.57,0,0,0-1.07,1.44c0,.39.14.59.55.59,2.21,0,4.41,0,6.61,0,.61,0,.57-.43.66-.8s.21-.23.36,0c2.95,3.9,6,7.73,9,11.6q7.38,9.51,14.78,19l10.1,13,2.5,3.21c0,.17,0,.34,0,.5v34.1Z"/><path class="cls-15" d="M148.84,157.06c-2,.64-4,1-6,1.51-4.36,1-8.76,1.86-13.18,2.63-1.86.32-3.74.54-5.61.81-.51.19-.74-.18-1-.49-1.52-2-3-3.91-4.57-5.86l-14.93-19.2-10.87-14c-.27-.36-.67-.69-.43-1.24.46-.56.66-.56,1,0A2.24,2.24,0,0,0,95,122.59a3.14,3.14,0,0,0,1.43,0,5.28,5.28,0,0,0,2.44-1.31c.31-.31.62-.43,1,0,1.08,1.37,2.57,1.41,4.11,1.2a5,5,0,0,0,2.56-1.17c.77-.63,1.65-1.11,2.44-1.73.43-.33.62-.22.67.34a3.41,3.41,0,0,0,.34,1.47,2.74,2.74,0,0,0,3.19,1.09,4.71,4.71,0,0,0,2.57-1.53c.49-.57.64-.57,1,.06a3.31,3.31,0,0,0,2.82,1.55,13.7,13.7,0,0,0,2.4-.15c2.11,2.91,4.38,5.7,6.58,8.54,2.86,3.71,5.75,7.4,8.62,11.1,3.76,4.81,7.49,9.64,11.25,14.45A4.58,4.58,0,0,1,148.84,157.06Z"/><path class="cls-16" d="M148.84,157.06c-.69-.29-1-1-1.39-1.5-2.52-3.2-5-6.41-7.51-9.62l-5-6.45c-2.18-2.81-4.38-5.61-6.57-8.42l-5-6.45c-.4-.52-.81-1-1.22-1.54-.14-.18-.33-.34-.18-.61s.25-.21.4-.28a9.84,9.84,0,0,0,2.38-1.55c.17-.15.33-.34.6-.27a.54.54,0,0,1,.21.53c-.07.48-.18.95-.28,1.42,0,.07-.21.27.1.18a20.19,20.19,0,0,0,3.11,0c.35-.17.27-.58.44-.85a1,1,0,0,0,.11-.62,18.63,18.63,0,0,1,.51-2.68c.33-1.61.63-3.24,1-4.84a2.07,2.07,0,0,1,1.51-1.56.83.83,0,0,1,1.16.57c.17.47.3,1,.92,1a1.81,1.81,0,0,0,1.52-1c.1-.21.06-.53.37-.61q1.5,1.9,3,3.82,2.13,2.7,4.25,5.42,3.31,4.26,6.64,8.53c1.36,1.74,2.71,3.5,4.06,5.24l6.61,8.48c1.66,2.14,3.33,4.29,5,6.45a8.29,8.29,0,0,1,1.28,1.78c-2,.8-4.06,1.4-6.11,2.07-3.85,1.26-7.77,2.3-11.68,3.39A2.11,2.11,0,0,1,148.84,157.06Z"/><path class="cls-17" d="M92.35,121.3c-.17.64.38,1,.67,1.34,1.71,2.25,3.46,4.47,5.2,6.7l6.58,8.42c1.65,2.13,3.3,4.27,5,6.4l6.6,8.48,5,6.45,1.94,2.5c.18.23.39.47.74.42-1.46.2-2.92.44-4.38.6q-6.27.73-12.56,1.08c-.19,0-.38,0-.57,0-.66.21-1.06-.12-1.44-.61-2.43-3.18-4.9-6.34-7.36-9.5L82.85,134.46l-8.27-10.64-.19-.26c-.46-.64-.41-.77.36-.9a1.54,1.54,0,0,0,.3-.11A9,9,0,0,0,78,121.3a15.87,15.87,0,0,0,1.35-1.24c.5-.45.67-.42.89.21a3,3,0,0,0,2.11,2.17,3.73,3.73,0,0,0,2.66-.3c.15-.07.28-.19.43-.25s.46-.56.8-.23,0,1-.4,1.21-.67.26-1,.4a5.61,5.61,0,0,0-2,1.31,2.47,2.47,0,0,0-.68,2.62,2.31,2.31,0,0,0,2.2,1.54,4.07,4.07,0,0,0,4.33-2.63,9.9,9.9,0,0,0,.62-2.39,1.44,1.44,0,0,1,1.06-1.34,4,4,0,0,0,1.53-.88C92,121.38,92.13,121.23,92.35,121.3Z"/><path class="cls-12" d="M75.06,122.71a.39.39,0,0,1-.16.1c-.8.13-.79.12-.27.81l8.25,10.64c3.07,3.93,6.16,7.86,9.22,11.8,2,2.54,3.93,5.11,5.91,7.65,2.49,3.2,5,6.36,7.46,9.57.32.42.67.36,1,.4-.23.16-.49.08-.73.09-1.55.06-3.1.1-4.65.15-1.13.13-2.26,0-3.39.06a9.51,9.51,0,0,0-1.19,0,14.84,14.84,0,0,1-2.31,0c-.08,0-.16-.1-.23-.08-.81.18-1.25-.28-1.69-.86q-3.39-4.42-6.8-8.82l-8.92-11.48-7.11-9.14-8.12-10.42a1.26,1.26,0,0,1-.31-.62,9.41,9.41,0,0,1,.46-2.23,1,1,0,0,0,.12-.67c.36-2.09.86-4.14,1.27-6.22a.82.82,0,0,1,.7-.72,1.85,1.85,0,0,1,1.69.5,1.77,1.77,0,0,1,.4,1.11,9.72,9.72,0,0,1-.61,3.55c-.23.78-.47,1.57-.7,2.36a2.94,2.94,0,0,0,0,1.61,1.46,1.46,0,0,0,1.46,1,7.06,7.06,0,0,0,1.94-.23c.27-.06.45-.18.22-.48a2.57,2.57,0,0,1-.34-2.07c.18-1.19.57-2.34.86-3.51a.43.43,0,0,1,.22-.3.57.57,0,0,1,.59.27,7.49,7.49,0,0,0,.85.84,3.3,3.3,0,0,1,.09,1.25c0,2.68,1.15,3.84,3.82,3.86C74.42,122.52,74.78,122.43,75.06,122.71Z"/><path class="cls-8" d="M96.56,164a6.53,6.53,0,0,1,1.87-.09c.9,0,1.8,0,2.71,0A41.19,41.19,0,0,1,96.56,164Z"/><path class="cls-9" d="M64.26,120.28c.2-1.25.72-2.42,1-3.65a7.2,7.2,0,0,0,.25-2.44A1.51,1.51,0,0,0,63.44,113a.44.44,0,0,0-.3.37l-1.32,6.24a1.2,1.2,0,0,0,0,.19c-.15.19.08.47-.16.64a13.6,13.6,0,0,1-.59,2.19H58.28c-.79,0-.78,0-.63-.79a28,28,0,0,0,.63-3.16c.17-.77.33-1.55.5-2.32.15-.18,0-.42.12-.6.32-1.39.55-2.78.92-4.16s.66-3,1-4.52c.06-.28.06-.6.41-.73.11-.15.28-.16.45-.19.77-.14,1.54-.25,2.32-.34s.95.09.79.83c-.19.93-.37,1.87-.58,2.8-.1.43-.2.86-.27,1.3,0,.26-.24.57,0,.76s.49,0,.72-.13A4.45,4.45,0,0,0,67,106.48a2.55,2.55,0,0,0-3-1.63,10.33,10.33,0,0,0-3,.7.84.84,0,0,1-.49.11c-2.57,1.24-3.28,4.48-2.73,6.49a1.52,1.52,0,0,0,.18.33,1.66,1.66,0,0,1-1.14,0c-1.23-.38-1.54-.89-1.64-2.17a4.59,4.59,0,0,1,1.48-3.57,11.2,11.2,0,0,1,3.61-2.52c.26-.47.79-.43,1.2-.6a5.45,5.45,0,0,1,.8-.18,3.31,3.31,0,0,0,.7-.12,2.68,2.68,0,0,1,.63,0h1.18a2.68,2.68,0,0,1,.63,0,4,4,0,0,0,.69.12,6.11,6.11,0,0,1,2.21.9,3.86,3.86,0,0,1,1.78,2.73c0,.31,0,.62,0,.92a6.8,6.8,0,0,1-.3,1.18,6,6,0,0,1-1.74,2.3c-.32.27-.3.43,0,.66a2.24,2.24,0,0,1,1,2,3.63,3.63,0,0,1-.31,2.2,32.56,32.56,0,0,0-1,3.74,2.12,2.12,0,0,0,.81,2.49,7.07,7.07,0,0,1-3.12.48,1.41,1.41,0,0,1-1.3-1.1A4.41,4.41,0,0,1,64.26,120.28Z"/><path class="cls-18" d="M145.17,55.42a11.61,11.61,0,0,1-1.94-2.31q-3.3-4.19-6.58-8.41c-.61-.78-1.21-1.56-1.83-2.34a.63.63,0,0,1-.12-.42h29l.76,0c2,2.65,4.08,5.25,6.11,7.88,1.91,2.48,3.84,5,5.76,7.42l4.87,6.26c1.63,2.09,3.27,4.16,4.86,6.28.29.39.72.66.89,1.14,0,.17,0,.34,0,.51v37.15c0,.17,0,.34,0,.51A7.71,7.71,0,0,1,185.1,107c-2.23-2.8-4.42-5.64-6.62-8.47-1.66-2.13-3.31-4.27-5-6.4l-6.61-8.48-5-6.45-6.58-8.43q-2.06-2.64-4.1-5.3c-.31-.41-.79-.71-.87-1.28a16.79,16.79,0,0,0-1.43-1.37c0-.72-.71-1-1-1.6-.08-.16-.26-.27-.26-.48s.06-.32.15-.46a1.8,1.8,0,0,0,0-2.07,1.87,1.87,0,0,0-2-.83C145.62,55.36,145.41,55.49,145.17,55.42Z"/><path class="cls-19" d="M187,70.92a10,10,0,0,1-1.86-2.14c-1.47-1.81-2.88-3.67-4.31-5.52-1-1.33-2-2.67-3.08-4-1.33-1.71-2.68-3.41-4-5.12-1-1.24-1.93-2.5-2.9-3.74l-3.34-4.28-2.8-3.58a.85.85,0,0,1-.19-.6H187c0,2,0,3.9,0,5.85V70.16C187,70.42,187,70.67,187,70.92Z"/><path class="cls-20" d="M19.9,331.2a4.9,4.9,0,0,1,1.41.12,2.65,2.65,0,0,1,2,2.24c0,.17.13.43-.19.43s-.47.15-.58-.27c-.44-1.65-1.39-2.19-3.15-1.89-.28.05-.28.19-.28.39,0,.47,0,.93,0,1.4s-.14.38-.42.38-.36-.12-.35-.38c0-.63,0-1.27,0-1.9,0-.43.14-.57.54-.53S19.43,331.2,19.9,331.2Z"/><path class="cls-21" d="M52.29,334c-1.55,0-1.55,0-1.55-1.53,0-1.27,0-1.27,1.29-1.27a5.45,5.45,0,0,1,1.51.13,1.36,1.36,0,0,1,1.05,1.59A1.3,1.3,0,0,1,53.18,334Z"/><path class="cls-20" d="M41.19,331.17A2.71,2.71,0,0,1,44,333.48c0,.19.18.5-.23.52s-.48,0-.55-.39a1.91,1.91,0,0,0-2-1.79,1.88,1.88,0,0,0-2,1.77c-.08.44-.32.43-.62.4s-.18-.32-.16-.48A2.66,2.66,0,0,1,41.19,331.17Z"/><path class="cls-22" d="M67.6,334c-.26,0-.5.14-.74-.16a1,1,0,0,0-1.48-.21c-.12.09-.22.19-.33.29a.64.64,0,0,1-.66.07c-.2-.07-.12-.29-.12-.45,0-.63,0-1.27,0-1.9,0-.27-.07-.56.38-.55s.34.28.34.52c0,.56,0,1.12,0,1.72C66.47,332.5,67.38,332.74,67.6,334Z"/><path class="cls-21" d="M47.09,331.4c0,.17-.06.28-.25.29a2.12,2.12,0,0,0-.44.05c-.48.17-.52.58-.49,1s.4.18.61.23a1.08,1.08,0,0,0,.31,0c.2,0,.26.1.25.28a.2.2,0,0,1-.22.23c-.4,0-.92-.2-1,.47,0,0-.16.05-.24,0-.46-.08-.63-.57-1-.76-.06,0,0-.25.12-.23.64.09.49-.41.56-.74a1.29,1.29,0,0,1,1.52-1.09C47,331.21,47.07,331.23,47.09,331.4Z"/><path class="cls-21" d="M63.37,333.24c0,.22-.13.24-.31.26-.34,0-.85-.23-.91.43,0,0-.14.06-.22.06-.5,0-.58-.65-1.07-.67,0,0,0-.26.17-.26.57,0,.54-.39.57-.77,0-.15.06-.29.08-.44s.15-.28.35-.26.17.2.18.34a2.09,2.09,0,0,1,0,.25c-.08.58,0,.94.74.81C63.12,333,63.36,332.91,63.37,333.24Z"/><path class="cls-21" d="M30.56,333.22c0,.26-.15.26-.33.28-.35,0-.81-.19-.91.43,0,.13-.4.12-.45.05a1.29,1.29,0,0,0-.8-.61c-.08,0-.05-.28.1-.29.72,0,.56-.58.66-1,0-.12,0-.25.08-.37s.19-.14.32-.13.16.11.16.22a1.69,1.69,0,0,1,0,.45c-.07.54.09.83.7.73C30.27,333,30.54,332.89,30.56,333.22Z"/><path class="cls-22" d="M31.37,334a1.65,1.65,0,0,1,1.44-1.12,1.6,1.6,0,0,1,1.66.68c.08.12.27.3.09.43a.42.42,0,0,1-.52-.06c-.92-.76-1.12-.77-1.94,0C31.87,334.07,31.65,334,31.37,334Z"/><path class="cls-22" d="M25.86,332.82a1.25,1.25,0,0,1,1.26.7c.07.13.24.32.05.43s-.46.15-.58-.05c-.48-.78-1.06-.6-1.67-.21-.2.12-.39.19-.53-.07s.11-.33.24-.43A1.9,1.9,0,0,1,25.86,332.82Z"/><path class="cls-22" d="M58.7,333.64a1.35,1.35,0,0,1,1.36-.81c.25,0,.41.09.37.38s-.14.37-.42.31a1.07,1.07,0,0,0-1,.34.7.7,0,0,1-.87.08c-.26-.21-.11-.63-.09-1,0-.13.15-.12.25-.12s.26,0,.3.17S58.64,333.36,58.7,333.64Z"/><path class="cls-23" d="M56.28,331.08c.31,0,.52.19.53.47a.49.49,0,1,1-1,0C55.83,331.28,56.05,331.16,56.28,331.08Z"/><path class="cls-20" d="M56.66,333.43c0,.27.1.59-.37.57s-.29-.38-.31-.6-.13-.57.35-.55S56.59,333.23,56.66,333.43Z"/><path class="cls-16" d="M82.05,41.94A3.36,3.36,0,0,0,83,43.33c1.45,1.92,2.94,3.82,4.42,5.71s3.23,4.07,4.82,6.12c1.38,1.77,2.72,3.57,4.09,5.34,1.6,2,3.22,4.07,4.82,6.11,1.06,1.36,2.08,2.74,3.14,4.09,1.6,2.07,3.24,4.11,4.85,6.18,1.06,1.37,2.1,2.77,3.17,4.14,1.6,2.06,3.24,4.11,4.85,6.17,1.35,1.74,2.67,3.5,4,5.23,1.62,2.09,3.26,4.15,4.88,6.23,1.37,1.75,2.7,3.53,4.06,5.28s2.61,3.33,3.93,5c.17.21.14.47.23.72a.71.71,0,0,1,.92-.22c.36.17.3.52.29.84a.31.31,0,0,1-.25,0,3,3,0,0,0-3.12.64,3,3,0,0,1-.35.27c-.15.08-.31.18-.47.06s-.1-.27-.1-.42c0-.77,0-.77-.75-.78-.6,0-1.19,0-1.78,0s-.71.2-.81.68c-.39,2-.92,3.92-1.22,5.91a4.9,4.9,0,0,1-2.49,3.4,4.19,4.19,0,0,1-2.85.69,1.6,1.6,0,0,1-1.57-1.39,5.48,5.48,0,0,1,0-1.46c0-.52.43-.64.85-.69a6.18,6.18,0,0,0,3.1-1.36,4.52,4.52,0,0,0,1.87-4.22,1.75,1.75,0,0,0-1.34-1.59,5.14,5.14,0,0,0-5,1.25c-.35.3-.62.69-1,1a4,4,0,0,0-.56.26.35.35,0,0,1-.47,0c-.44-.48-1-.91-1-1.64.14-.73.14-.73-.58-.79s-.71-.17-.6-.82c.15-.83.33-1.65.53-2.47.15-.62.09-.7-.51-.64-.76.07-1.51.21-2.26.31a.69.69,0,0,0-.62.61,12.08,12.08,0,0,1-.67,2.44c-.13.35-.46.4-.75.5a.61.61,0,0,0-.18.79c.14.14.39.09.51.28a1.76,1.76,0,0,1-.09,1c-.41.38-.63.37-1-.11-.57-.71-1.12-1.43-1.68-2.15q-7.8-10.07-15.61-20.08Q83.06,77.46,73.51,65.19q-6.48-8.34-13-16.67c-1.53-2-3.08-3.94-4.6-5.93-.14-.18-.41-.34-.23-.65H81.29Z"/><path class="cls-24" d="M55.73,41.94a26.39,26.39,0,0,0,2,2.63c1.4,1.84,2.84,3.66,4.26,5.49l6.58,8.42,5,6.45,6.57,8.43,4.11,5.29,6.61,8.48c1.65,2.13,3.3,4.27,5,6.39l6.61,8.48,5,6.45q1.35,1.76,2.71,3.5c.18.23.4.39.71.19.22.22.12.48.07.72-.36,1.57-.66,3.15-1,4.72-.2.88-.93,1.23-1.63,1.57-.42.2-.48-.21-.5-.51,0-.65,0-1.31-.1-2-.15-2.2-.39-4.39-.43-6.59,0-.77,0-.78-.79-.72s-1.39.19-2.08.26a1,1,0,0,0-.89.76,39.52,39.52,0,0,1-1.9,4.91,6.25,6.25,0,0,1-1.56,2.36,2.24,2.24,0,0,0-.67,1.34,1.71,1.71,0,0,1-1.77,1.41,1.06,1.06,0,0,1-1.13-1.17,11.69,11.69,0,0,1,.44-2.43c.42-2,.85-4.07,1.27-6.1.12-.6.08-.66-.55-.67s-1.27,0-1.9,0-.78.23-.89.76c-.44,2.27-1,4.52-1.42,6.78a6.08,6.08,0,0,1-1.71,3.27,3.46,3.46,0,0,1-1.25.74c-.39.13-.57,0-.56-.43a3.44,3.44,0,0,1,.09-.56c.72-3.19,1.37-6.38,2.06-9.57l0-.13c.17-.8.14-.84-.66-.85H89.68c-.39,0-.76,0-1,.42-.13.25-.36.2-.54.06-1.25-1-2.55-.65-3.85-.16a3,3,0,0,1-.59.23c-.49,0-.73-.38-1-.71l-7.23-9.28L60.57,81.38,49.49,67.12,34.78,48.2c-1.42-1.82-2.85-3.63-4.24-5.48-.17-.22-.45-.43-.25-.78l3.68,0H54.9Z"/><path class="cls-25" d="M30.29,41.94a9.23,9.23,0,0,0,1.55,2.22c2.76,3.59,5.55,7.16,8.33,10.74l8.92,11.48,7.07,9.09c2.77,3.55,5.56,7.1,8.33,10.66,2,2.52,3.91,5.07,5.88,7.6L77,102.15c1.67,2.14,3.31,4.31,5,6.45a7.66,7.66,0,0,0,1.65,1.9c0,.17-.08.27-.21.36-1.82,1.26-2.53,3.17-3.06,5.18a5.46,5.46,0,0,0-.23,1.38,2.37,2.37,0,0,1-1,1.9,4.9,4.9,0,0,1-3.76,1.39,1.59,1.59,0,0,1-1.62-1.61,1.21,1.21,0,0,1,0-.19c0-1.55-.07-1.55,1.38-1.87a5.92,5.92,0,0,0,4.33-3.67.91.91,0,0,0,.14-.62v-.63a2.18,2.18,0,0,0-1.44-2.23.89.89,0,0,0-.64-.1H76.29a1.6,1.6,0,0,0-.75.06,7.11,7.11,0,0,0-3.35,2.25.34.34,0,0,1-.5-.07,26.82,26.82,0,0,1-2-2.54.32.32,0,0,1,0-.3l.29-1.12a2.3,2.3,0,0,0,0-1c-.46-2.06-2-2.91-3.83-3.44-.21-.15-.47,0-.68-.12l-.6,0a3.14,3.14,0,0,0-1.26,0l-.6,0c-.22.12-.47,0-.68.11l-2,.64c-.77,0-1-.75-1.36-1.21C56.3,99.67,53.67,96.27,51,92.87c-2-2.53-3.91-5.07-5.88-7.6-2.18-2.81-4.39-5.61-6.58-8.42-1.67-2.15-3.32-4.31-5-6.45C31.4,67.58,29.2,64.78,27,62c-1.66-2.12-3.31-4.26-5-6.39L15.44,47.1q-1.83-2.34-3.65-4.69a1.78,1.78,0,0,1-.19-.47l14.7,0Z"/><path class="cls-9" d="M31.07,39.1a.62.62,0,0,1-.25-.63c0-1.76,0-3.51,0-5.27,0-.48.12-.69.64-.68,1.95,0,3.89,0,5.84,0,.45,0,.65.12.64.61,0,1.31,0,2.63,0,3.94,0,.42-.14.54-.55.54-1.4,0-2.79,0-4.19,0a1.48,1.48,0,0,0-1.37.58C31.57,38.49,31.32,38.79,31.07,39.1Z"/><path class="cls-9" d="M152.88,33.66c0,1.72,0,3.43,0,5.14,0,.42-.09.6-.56.59q-1.74,0-3.48,0c-.47,0-.56-.17-.56-.59,0-1.71,0-3.42,0-5.14a.89.89,0,0,1,.64-.21c1.09,0,2.19,0,3.28,0A.87.87,0,0,1,152.88,33.66Z"/><path class="cls-9" d="M56.79,35.44h2.66c.29,0,.48,0,.48.41s-.2.35-.46.37-.53-.14-.54.23.32.26.52.26.49,0,.48.41-.21.38-.46.35c-.44-.05-.65.12-.84.53a1.93,1.93,0,0,1-2,1.14,2,2,0,0,1-1.85-1.21.64.64,0,0,0-.76-.46c-.26,0-.5,0-.5-.37s.23-.38.5-.39.53.11.5-.28-.31-.21-.5-.22-.5,0-.5-.38.23-.39.5-.38Z"/><path class="cls-9" d="M119.82,35.88c0,.91,0,1.82,0,2.73,0,.53-.19.79-.74.78-1,0-2.07,0-3.11,0-.56,0-.74-.25-.74-.78,0-1.86,0-3.72,0-5.59,0-.53.18-.78.74-.77,1,0,2.07,0,3.11,0,.56,0,.75.24.74.77C119.81,34,119.82,34.93,119.82,35.88Z"/><path class="cls-26" d="M128.72,35.3l3.06-2.91a.85.85,0,0,1,0,.17c0,2.09,0,4.18,0,6.27,0,.41-.12.57-.54.56-.8,0-1.61,0-2.41,0a.67.67,0,0,1-.18-.46A27.16,27.16,0,0,1,128.72,35.3Z"/><path class="cls-27" d="M12,39.38c-.53,0-1.06,0-1.59,0a1.92,1.92,0,0,1-2-2q0-1.59,0-3.18a1.91,1.91,0,0,1,2-2c1.06,0,2.12,0,3.17,0a1.92,1.92,0,0,1,2,2c0,1,0,2.11,0,3.17a1.93,1.93,0,0,1-2,2C13,39.4,12.5,39.38,12,39.38Z"/><path class="cls-9" d="M45.41,33.22a3.24,3.24,0,0,0-.37.28c-.14.13-.28.2-.42,0s0-.27.11-.38a2.28,2.28,0,0,1,.22-.22c.85-.81.56-.85,1.42,0,.16.16.47.3.25.62-.1.15-.16.13-.69-.16,0,.87,0,1.71,0,2.55,0,.24,0,.44.34.41s.68.16.88-.15-.07-.37-.3-.54-.15-.75-.12-1.13.37-.23.56-.21.81-.23.87.22.39,1-.34,1.22c-.13,0-.11.22-.1.34.05.71-.38.85-1,.87-.27,0-.65-.19-.79.18a.86.86,0,0,0,.26,1,.71.71,0,0,1-.09,1.12.75.75,0,0,1-1,0A.74.74,0,0,1,45,38.08c.08-.1.2-.16.27-.26a.76.76,0,0,0,.06-.73c-.08-.22-.33-.14-.51-.14-1,0-1,0-1.35-1a1.36,1.36,0,0,0-.28-.41.78.78,0,0,1,1.15-1.06.72.72,0,0,1,.09,1.07c-.19.23-.52.47-.23.73s.69.11,1,0c.14,0,.13-.2.13-.33Z"/><path class="cls-9" d="M128.72,35.3c.18.14.13.34.13.53,0,1.18,0,2.36,0,3.54H125l-.31,0Z"/><path class="cls-9" d="M178.19,36.7V35.17c0-.38.27-.47.49-.28s.35.12.57,0a1.34,1.34,0,0,1,1.54.17c.19.17.28.18.46,0a1.46,1.46,0,0,1,1.61-.19c.57.25.57.79.57,1.31v2c0,.23,0,.42-.33.42s-.32-.21-.32-.44c0-.63,0-1.27,0-1.9s-.26-1-.76-1a.87.87,0,0,0-.88.9c0,.62,0,1.23,0,1.85,0,.23.09.54-.34.53s-.29-.33-.3-.56c0-.61,0-1.23,0-1.84s-.25-.86-.79-.88-.86.31-.87.92v2c0,.21,0,.38-.29.39s-.36-.14-.36-.39C178.19,37.71,178.19,37.21,178.19,36.7Z"/><path class="cls-9" d="M25.18,39.39a1.66,1.66,0,0,1-1.75-1.68,1.72,1.72,0,1,1,3.43,0A1.65,1.65,0,0,1,25.18,39.39Z"/><path class="cls-9" d="M56.69,35.06c-.55,0-1.1,0-1.65,0s-.53-.16-.38-.54a1.59,1.59,0,0,1,.13-.35A.81.81,0,0,0,54.84,33c-.1-.13-.17-.32,0-.44a.28.28,0,0,1,.41.17c.19.51.51.43.9.25a1.19,1.19,0,0,1,.87-.08c.49.17,1,.44,1.27-.29a.2.2,0,0,1,.28-.07c.13.08.2.22.11.32-.48.53-.14,1,.07,1.49s.18.67-.5.67Z"/><path class="cls-27" d="M167.38,35.24c0,.36,0,.72,0,1.08s0,.56.41.54c.18,0,.25.14.24.3s0,.29-.19.28c-.54,0-.46.36-.46.69s0,.5-.39.49-.37-.28-.34-.53c.06-.5-.14-.68-.64-.63s-.85,0-1.27,0-.48-.17-.3-.47c.7-1.11,1.41-2.21,2.12-3.3.15-.24.42-.19.64-.14s.17.3.18.48C167.39,34.44,167.38,34.84,167.38,35.24Z"/><path class="cls-27" d="M137.14,37.11A1.24,1.24,0,0,1,136,38.4a1.59,1.59,0,0,1-1.67-.61,1.29,1.29,0,0,1,.22-1.62c.26-.23.18-.33,0-.54a1.26,1.26,0,0,1,0-1.66,1.68,1.68,0,0,1,2-.06,1.2,1.2,0,0,1,.1,1.7c-.19.22-.32.35,0,.58A1,1,0,0,1,137.14,37.11Z"/><path class="cls-27" d="M171,36a1.34,1.34,0,0,1,.68,1.54,1.44,1.44,0,0,1-1.31,1.12,1.66,1.66,0,0,1-1.64-.62.92.92,0,0,1-.14-.28c0-.2-.16-.44.13-.53s.37,0,.48.28a1,1,0,0,0,1.48.44A.83.83,0,0,0,171,37a.9.9,0,0,0-.92-.72c-.23,0-.56.09-.54-.33s.31-.28.53-.28a.77.77,0,0,0,.87-.73.76.76,0,0,0-.52-.91.88.88,0,0,0-1.17.48c-.12.31-.31.49-.6.31s-.07-.42,0-.61a1.76,1.76,0,0,1,2.06-.68,1.31,1.31,0,0,1,.84,1.47C171.55,35.35,171.47,35.48,171,36Z"/><path class="cls-27" d="M137.87,36a5.84,5.84,0,0,1,.1-1.38,1.49,1.49,0,0,1,1.36-1,1.28,1.28,0,0,1,1.38,1,6.39,6.39,0,0,1,0,2.82,1.27,1.27,0,0,1-1.34,1,1.48,1.48,0,0,1-1.37-1A5.47,5.47,0,0,1,137.87,36Z"/><path class="cls-27" d="M175.76,34.79c1,0,1.43.38,1.44,1.34a12.08,12.08,0,0,0,.1,2.08c.06.37-.22.54-.43.37-.39-.3-.66,0-1,.06a1.2,1.2,0,0,1-1.63-1.31c.11-.66.64-.83,1.18-1,.1,0,.21,0,.31,0,.26-.07.64.19.77-.21a.57.57,0,0,0-.31-.7.85.85,0,0,0-1.05.13.53.53,0,0,0-.11.15.36.36,0,0,1-.58.17c-.25-.19,0-.41.11-.58A1.33,1.33,0,0,1,175.76,34.79Z"/><path class="cls-9" d="M159.88,38.1h1.93c.2,0,.46-.05.45.28s-.25.23-.43.23h-2.48c-.16,0-.36.07-.44-.14a.48.48,0,0,1,.16-.51c.62-.7,1.23-1.4,1.85-2.09a1.36,1.36,0,0,0,.38-.92.78.78,0,0,0-.62-.9c-.5-.09-1,0-1.13.57-.09.32-.21.56-.54.39s-.14-.44,0-.66a1.75,1.75,0,0,1,2.25-.73,1.35,1.35,0,0,1,.56,2,14.54,14.54,0,0,1-1.72,2.11C160,37.82,159.85,37.88,159.88,38.1Z"/><path class="cls-26" d="M152.88,33.66h-4.56c-.08-.48.08-.72.61-.64.3,0,.56,0,.53-.42s.17-.35.41-.34h1.27c.34,0,.64,0,.62.48s.3.31.51.28C152.8,33,153,33.18,152.88,33.66Z"/><path class="cls-9" d="M157.08,36.09c0,.7,0,1.4,0,2.1,0,.22,0,.42-.32.43s-.33-.19-.33-.42c0-1.08,0-2.16,0-3.24,0-.46-.09-.63-.58-.43-.2.08-.52.42-.68,0s.28-.49.55-.6c1.34-.54,1.35-.54,1.35.92C157.09,35.29,157.09,35.69,157.08,36.09Z"/><path class="cls-27" d="M22.92,37.22c0-.36,0-.72,0-1.07a1.17,1.17,0,0,0-.31-1,.6.6,0,0,1,.08-1,.67.67,0,0,1,1,0,.61.61,0,0,1,.06,1,1.1,1.1,0,0,0-.3.92,1.23,1.23,0,0,1-.1.68,1.87,1.87,0,0,0,0,1.87c.06.12.17.27,0,.4a.31.31,0,0,1-.23.05c-.24-.05-.19-.25-.19-.41C22.91,38.19,22.92,37.71,22.92,37.22Z"/><path class="cls-27" d="M19.61,34.75a3.19,3.19,0,0,1,.73-2.25c.12-.16.25-.32.47-.12s.1.27,0,.43a3.06,3.06,0,0,0,0,3.87c.12.17.17.28,0,.43s-.35,0-.46-.14A3,3,0,0,1,19.61,34.75Z"/><path class="cls-28" d="M143.84,37.37c0-.71.37-1.16,1-1.16a1,1,0,0,1,1,1.1c0,.7-.37,1.16-1,1.15A1,1,0,0,1,143.84,37.37Z"/><path class="cls-28" d="M143.47,34.71a1,1,0,0,1-.95,1.1c-.59,0-1-.45-1-1.15s.37-1.09.94-1.1A1,1,0,0,1,143.47,34.71Z"/><path class="cls-9" d="M114.1,35.82c0-.51,0-1,0-1.52,0-.25.06-.4.35-.39s.29.19.29.39c0,1,0,2,0,3,0,.25-.06.41-.35.39s-.29-.18-.29-.38Z"/><path class="cls-9" d="M121,35.85c0,.51,0,1,0,1.52,0,.22-.07.36-.32.36s-.32-.15-.32-.37q0-1.55,0-3.09c0-.23.07-.36.32-.36s.32.14.32.36C121,34.8,121,35.33,121,35.85Z"/><path class="cls-27" d="M26.74,34.76a2.84,2.84,0,0,1-.1,1c-.06.12-.05.32-.28.24a.3.3,0,0,1-.25-.37,3.16,3.16,0,0,0-.63-2.91c-.13-.16,0-.26.08-.36s.32,0,.42.12A3.19,3.19,0,0,1,26.74,34.76Z"/><path class="cls-27" d="M125.81,33.6c-.06-.47,0-.88.56-1.05a.67.67,0,0,1,.79.23c.07.08.17.18.11.28s-.23.09-.33,0c-.27-.22-.6-.34-.7.06s-.25.89.22,1.22a.3.3,0,0,0,.4-.06c.11-.13.13-.28-.06-.36s-.29-.15-.18-.32.27-.07.42-.08a.24.24,0,0,1,.28.26c0,.39,0,.78-.48.88s-1-.08-1-.61A3.53,3.53,0,0,1,125.81,33.6Z"/><path class="cls-28" d="M144.88,34.41c-.08.13-.13.25-.19.35l-1.83,2.91c-.08.13-.14.36-.36.24s-.09-.34,0-.48c.62-1,1.25-2,1.88-3,.08-.12.15-.28.34-.18S144.82,34.34,144.88,34.41Z"/><path class="cls-9" d="M125.54,34.07c-.05.21-.08.4-.14.58s-.3.18-.32,0c0-.4-.29-.4-.58-.39s-.41-.14-.27-.43l.57-1.13a.37.37,0,0,1,.42-.21c.24,0,.19.24.2.4A2.74,2.74,0,0,0,125.54,34.07Z"/><path class="cls-9" d="M121.48,35.81v-.94c0-.21.07-.31.29-.32s.34.09.34.33v1.89c0,.2-.07.31-.29.32s-.35-.09-.34-.33Z"/><path class="cls-9" d="M113.59,35.83v.88c0,.22,0,.37-.3.38S113,37,113,36.75V34.86c0-.21.09-.31.3-.31s.34.1.33.34Z"/><path class="cls-28" d="M21,34.62a2.17,2.17,0,0,1,.38-1.1c.11-.14.19-.31.4-.15a.25.25,0,0,1,.07.41,1.59,1.59,0,0,0,0,1.94c.15.2,0,.31-.11.41s-.26,0-.35-.14A2,2,0,0,1,21,34.62Z"/><path class="cls-29" d="M25.36,34.78c-.05.19-.1.4-.15.6a.35.35,0,0,1-.48.28c-.27-.1-.06-.31,0-.42a1.49,1.49,0,0,0-.19-1.39c-.11-.19-.19-.33,0-.48s.32.06.43.2A2.65,2.65,0,0,1,25.36,34.78Z"/><path class="cls-30" d="M163.35,38.63c-.27,0-.41-.14-.4-.39a.38.38,0,0,1,.75,0A.35.35,0,0,1,163.35,38.63Z"/><path class="cls-30" d="M163.32,34.81a.37.37,0,0,1,.38.4.35.35,0,0,1-.41.36.34.34,0,0,1-.35-.35A.37.37,0,0,1,163.32,34.81Z"/><path class="cls-31" d="M60.56,105.66a7,7,0,0,1,4.45-.93,2.36,2.36,0,0,1,2.27,2.45,4.88,4.88,0,0,1-2.34,4.24,3.23,3.23,0,0,1-.65.25c-.68.19-.79.08-.63-.63l1-4.53c.14-.63.1-.66-.57-.57l-2.83.36A.76.76,0,0,1,60.56,105.66Z"/><path class="cls-8" d="M56.87,112.52c.38,0,.76.12,1.14,0A1,1,0,0,1,56.87,112.52Z"/><path class="cls-8" d="M58.9,115.71c0,.21.06.43-.12.6C58.81,116.11,58.7,115.87,58.9,115.71Z"/><path class="cls-21" d="M25.79,220.61a1.75,1.75,0,0,1,1-.73,1.28,1.28,0,0,1,1.68,1.18c.09.9,0,1.82,0,2.73,0,.28-.16.29-.37.3s-.36-.11-.36-.38c0-.76,0-1.52,0-2.28s-.26-1-.78-1-.9.34-.92,1,0,1.45,0,2.17c0,.28,0,.48-.39.48s-.34-.22-.34-.46c0-.76,0-1.53,0-2.29,0-.52-.16-.93-.78-.94a.88.88,0,0,0-.92,1c0,.76,0,1.52,0,2.29,0,.27,0,.42-.38.43s-.34-.21-.34-.45c0-1.08,0-2.17,0-3.25,0-.17-.15-.45.19-.5s.43.18.48.45C24.8,219.63,25.22,219.67,25.79,220.61Z"/><path class="cls-20" d="M18.31,221.13c0-.81,0-1.61,0-2.42,0-.34.07-.49.45-.48.89,0,1.78,0,2.67,0,.23,0,.47,0,.46.33s-.28.3-.49.3c-.63,0-1.27,0-1.9,0-.29,0-.4.08-.42.39-.1,1.54-.11,1.52,1.43,1.55.28,0,.84-.3.81.33s-.54.26-.81.26c-1.44,0-1.42,0-1.44,1.48,0,.51.18.6.62.58s1.19,0,1.78,0c.22,0,.42,0,.42.31s-.17.33-.41.33c-.91,0-1.82,0-2.73,0-.39,0-.44-.17-.44-.5C18.32,222.78,18.31,222,18.31,221.13Z"/><path class="cls-20" d="M31.88,223.6a2,2,0,0,1-1.51.52,1,1,0,0,1-1-.78,1,1,0,0,1,.51-1.12,4.08,4.08,0,0,1,1.33-.39c.28-.06.73.14.67-.46s-.35-1-.87-1a1.32,1.32,0,0,0-.77.26c-.2.11-.41.33-.59,0s.13-.41.31-.52a1.89,1.89,0,0,1,1.88-.15,1.46,1.46,0,0,1,.71,1.51c0,.64,0,1.27,0,1.91,0,.21.19.54-.18.64S32.09,223.75,31.88,223.6Z"/><path class="cls-20" d="M36.56,221.1v2.54c0,.24,0,.45-.34.46s-.34-.22-.34-.46v-5.08c0-.24,0-.46.34-.46s.34.21.34.46Z"/><path class="cls-20" d="M34.5,222c0,.57,0,1.14,0,1.71,0,.25,0,.4-.35.4s-.34-.16-.34-.4c0-1.14,0-2.28,0-3.43,0-.25,0-.39.35-.39s.34.16.34.4C34.5,220.85,34.5,221.42,34.5,222Z"/><path class="cls-22" d="M34.65,218.6a.49.49,0,0,1-.44.52.44.44,0,0,1-.51-.43.46.46,0,0,1,.45-.56C34.43,218.12,34.6,218.31,34.65,218.6Z"/><path class="cls-21" d="M19,294.87c0,1.45,0,2.73,0,4,0,.23.11.53-.33.52s-.33-.3-.33-.53c0-1.58,0-3.17,0-4.76,0-.18-.13-.45.16-.55s.47.1.63.31q1.42,1.88,2.86,3.73a5.1,5.1,0,0,0,.36.44v-4c0-.23-.05-.47.32-.48s.37.23.37.49c0,1.63,0,3.26,0,4.89,0,.17.1.41-.19.47a.53.53,0,0,1-.55-.23c-.47-.63-.95-1.25-1.43-1.87Z"/><path class="cls-20" d="M29.18,295.68c1-.77,1.49-.71,2.18.23a1.4,1.4,0,0,1,1.22-.74A1.24,1.24,0,0,1,34,296.4c.05.88,0,1.78,0,2.66,0,.25-.08.33-.33.34s-.35-.13-.35-.38q0-1.08,0-2.16c0-.8-.29-1.16-.87-1.15s-.87.42-.88,1.17V299c0,.21,0,.42-.3.42s-.39-.14-.38-.42q0-1.08,0-2.16c0-.78-.29-1.12-.83-1.11s-.91.42-.91,1.12v2.1c0,.22.07.47-.32.47s-.36-.24-.36-.5c0-1,0-2.07,0-3.11,0-.2-.15-.49.2-.58S29,295.49,29.18,295.68Z"/><path class="cls-21" d="M27.36,297.83c0,.4,0,.8,0,1.2,0,.13.07.32-.15.36s-.36,0-.41-.21c-.09-.35-.24-.24-.42-.09a1.72,1.72,0,0,1-1.26.33.92.92,0,0,1-.93-.71,1,1,0,0,1,.49-1.19,3.63,3.63,0,0,1,1.33-.38c.31-.05.72.08.64-.5s-.22-.91-.82-.92A1.54,1.54,0,0,0,25,296c-.17.11-.34.2-.5,0s0-.33.17-.45a2,2,0,0,1,1.93-.27,1.46,1.46,0,0,1,.81,1.52C27.37,297.15,27.36,297.49,27.36,297.83Z"/><path class="cls-20" d="M36.75,295.17a1.61,1.61,0,0,1,1.7,1.52c0,.42-.05.62-.53.6s-1.23,0-1.84,0-.55.2-.44.6a1.24,1.24,0,0,0,1.44.95,2.81,2.81,0,0,0,.66-.21c.19-.08.41-.25.55,0s-.15.4-.33.49a2.32,2.32,0,0,1-1.84.16,2.16,2.16,0,0,1-1.23-2.46A1.82,1.82,0,0,1,36.75,295.17Z"/><path class="cls-20" d="M35.3,260.37c.33-1,.63-1.93.92-2.84.07-.24.11-.5.46-.5s.39.29.46.52c.28.89.55,1.78.88,2.81.3-1,.56-1.9.84-2.79.16-.53.16-.52.83-.5-.43,1.34-.84,2.65-1.26,4-.07.22-.25.18-.41.19s-.34-.11-.4-.31c-.23-.73-.47-1.45-.71-2.18-.06-.19-.06-.41-.32-.58l-.85,2.59c-.08.23-.11.48-.48.49s-.4-.23-.47-.47c-.39-1.22-.77-2.45-1.16-3.67.51-.18.74,0,.86.47C34.73,258.47,35,259.35,35.3,260.37Z"/><path class="cls-21" d="M18.36,258.28v-2.47c0-.22,0-.44.31-.43a10.24,10.24,0,0,1,2.21.11,1.64,1.64,0,0,1,1.37,1.66,1.75,1.75,0,0,1-1.32,1.79,3.92,3.92,0,0,1-1.32.12c-.4,0-.52.12-.49.5s0,.85,0,1.27-.08.41-.39.41-.4-.15-.38-.42v-2.54Z"/><path class="cls-21" d="M50.83,260.58c-.24.17-.4.31-.58.41a1.43,1.43,0,0,1-2.15-.7,3,3,0,0,1,0-2.11c.41-1.15,1.35-1.44,2.73-.84,0-.57,0-1.11,0-1.66,0-.27,0-.43.37-.43s.36.18.36.44c0,1.65,0,3.3,0,4.95,0,.2.18.55-.25.59S50.91,260.9,50.83,260.58Z"/><path class="cls-20" d="M40.08,259.1a2,2,0,1,1,3.91,0,2,2,0,0,1-2,2.15A1.93,1.93,0,0,1,40.08,259.1Z"/><path class="cls-21" d="M25.25,260.73a2,2,0,0,1-1.58.53.93.93,0,0,1-.88-.7,1,1,0,0,1,.43-1.16A3.36,3.36,0,0,1,24.6,259c.34-.05.74,0,.65-.55s-.34-.89-.87-.88a1.62,1.62,0,0,0-.82.31c-.19.12-.38.23-.53-.05s.09-.34.24-.44a1.9,1.9,0,0,1,1.92-.22A1.49,1.49,0,0,1,26,258.7c0,.63,0,1.27,0,1.9,0,.21.15.51-.14.61S25.41,261,25.25,260.73Z"/><path class="cls-21" d="M28.24,261.26a1.77,1.77,0,0,1-1-.19c-.15-.09-.47-.1-.35-.41s.36-.22.58-.08a1.33,1.33,0,0,0,.85.18.68.68,0,0,0,.71-.6c.06-.36-.21-.53-.49-.64s-.69-.22-1-.38a1.05,1.05,0,0,1-.24-1.79,1.93,1.93,0,0,1,2.09-.08c.11.09.25.17.14.36a.24.24,0,0,1-.37.1,1.46,1.46,0,0,0-.91-.2.65.65,0,0,0-.66.5c-.07.34.19.5.45.61s.52.19.77.28c.7.27,1,.65.89,1.21a1.31,1.31,0,0,1-1.21,1.12Z"/><path class="cls-21" d="M31.62,261.27a1.7,1.7,0,0,1-1-.27c-.13-.08-.34-.13-.22-.36a.3.3,0,0,1,.48-.12,1.41,1.41,0,0,0,1.09.22.65.65,0,0,0,.56-.53.55.55,0,0,0-.39-.65c-.33-.13-.68-.23-1-.37a1,1,0,0,1-.7-1,1.06,1.06,0,0,1,.71-1,1.88,1.88,0,0,1,1.65.08c.13.07.36.12.26.36s-.25.24-.46.12a1.29,1.29,0,0,0-.92-.16.6.6,0,0,0-.57.5c-.05.31.16.48.4.58s.55.21.83.31c.54.2.93.52.87,1.16a1.29,1.29,0,0,1-1.23,1.16Z"/><path class="cls-20" d="M45.6,257.83A1.37,1.37,0,0,1,47,257c.24,0,.41.08.37.38s-.14.33-.42.32c-.89,0-1.32.39-1.33,1.28,0,.57,0,1.14,0,1.71,0,.23.12.53-.32.54s-.35-.26-.35-.5c0-1.06,0-2.12,0-3.18,0-.19-.15-.51.26-.52s.35.23.38.47A2.08,2.08,0,0,0,45.6,257.83Z"/><path class="cls-9" d="M79.59,113.41a6.16,6.16,0,0,1-5.1,4c-.44.07-.64.21-.6.67a7,7,0,0,0,.1,1.51,1.28,1.28,0,0,0,1.07,1,5.08,5.08,0,0,0,4.65-2.06c.31-.52.17-1.16.29-1.74a10.41,10.41,0,0,1,2.74-5.59c.26-.25.64-.33.86-.62a5.6,5.6,0,0,1,2.45-.78,2.51,2.51,0,0,1,2.5,1c-.06-1.11.6-.91,1.15-.91.72,0,1.44,0,2.16,0,.44,0,.52.12.43.55-.78,3.56-1.52,7.12-2.28,10.68a.53.53,0,0,0,0,.46,3.8,3.8,0,0,0,2.2-1.67,11,11,0,0,0,1.29-4c.4-1.84.78-3.69,1.16-5.53.07-.35.22-.48.6-.47.89,0,1.78,0,2.67,0,.39,0,.56,0,.45.52-.6,2.75-1.17,5.51-1.75,8.26-.22,1,0,1.46.62,1.58a1.5,1.5,0,0,0,1.83-1.26,2,2,0,0,1,.62-1.3c1.2-1,1.59-2.36,2.18-3.65a28.14,28.14,0,0,0,1.42-3.88.8.8,0,0,1,.8-.64c.89-.08,1.77-.21,2.64-.36.46-.08.6.07.61.51.05,2.06.21,4.11.37,6.16a16.78,16.78,0,0,1,.1,3.43c.91-.58,1.78-.92,2-2.1.25-1.67.67-3.31,1-5-.07-.39.29-.74.14-1.14-.19-.15-.44,0-.63-.12,0-.36-.18-.78.25-1,.25-.14.69.13.76-.37.22-.93.45-1.87.67-2.81a.49.49,0,0,1,.49-.4c1-.11,2-.23,2.94-.38.37-.06.44,0,.36.39-.23,1-.43,2.06-.67,3.09-.09.4,0,.55.41.49h.06c1,0,1,0,.7,1a.75.75,0,0,1-.59.18c-.54,0-.79.2-.9.73-.45,2.2-.94,4.39-1.38,6.59a5,5,0,0,0-.1.56c-.1.93.38,1.31,1.26,1a2,2,0,0,0,1.28-1.72,12.47,12.47,0,0,1,1.62-5.42,1.76,1.76,0,0,1,.58-.66,6.38,6.38,0,0,1,3.44-2.36,5.2,5.2,0,0,1,2.82,0,2,2,0,0,1,1.4,1.85c.26,2.8-2,4.89-4.47,5.54l-.19,0c-1.3.3-1.35.37-1.19,1.82.11,1,.62,1.43,1.7,1.47,2,.07,3.39-1.1,4.49-2.56a5.39,5.39,0,0,0,.52-2.07c.4-1.86.78-3.72,1.17-5.59.07-.32.17-.51.57-.49q1.36,0,2.73,0c.47,0,.54.16.41.55-.07.24-.1.5-.17.88,1.33-.92,2.53-2.06,4.2-1a2.73,2.73,0,0,1,.62,1.61,2,2,0,0,1-1.45,1.73,1,1,0,0,1-1.46-.87c-.2-.78-.5-.94-1.22-.59a2,2,0,0,0-1.23,1.48c-.45,2.3-1,4.59-1.47,6.88a2.91,2.91,0,0,0,0,.51c-.14.2.09.5-.17.67s0,.68-.33.93a32.51,32.51,0,0,1-3.42,0c-.06,0-.21,0-.19-.11.1-.51.22-1,.32-1.53s.1-.53-.17-.56a8.6,8.6,0,0,1-3.27,2.07,7.24,7.24,0,0,1-3.14.15,3.17,3.17,0,0,1-2.47-1.87.83.83,0,0,0-.11-.15s0,0-.09,0a5.21,5.21,0,0,1-2.29,1.83c-2.64,1.07-4.4,0-4.54-3-.92.82-1.94,1.37-2.84,2.08a5.69,5.69,0,0,1-5.2,1.07,2.81,2.81,0,0,1-1.68-1.18c-.22-.34-.36-.31-.61,0a4.9,4.9,0,0,1-2.6,1.41,4.56,4.56,0,0,1-1.52,0,2.09,2.09,0,0,1-1.78-1.34c-.33-.62-.31-.62-.77-.07a5.3,5.3,0,0,1-2.26,1.36.68.68,0,0,0-.54.6,15.58,15.58,0,0,1-.78,3,4.25,4.25,0,0,1-4.66,2.64A2.37,2.37,0,0,1,82,127.41a2.64,2.64,0,0,1,.47-2.74,5.68,5.68,0,0,1,2.82-1.76c.7-.21.84-.64.86-1.39a4.07,4.07,0,0,1-3.74,1.13,3.27,3.27,0,0,1-2.51-2.81c-.31.1-.44.36-.62.55a8,8,0,0,1-4.21,2.32,10.8,10.8,0,0,1-2.27-.1,3.3,3.3,0,0,1-2.69-3.23c0-.67,0-1.35,0-2a1.6,1.6,0,0,1,0-1,13.15,13.15,0,0,1,1.38-3.64c.16-.29.43-.45.61-.71a6.23,6.23,0,0,1,3.3-2.28c.25-.18.56,0,.81-.13h1.33c.2.15.48-.07.66.16a2.2,2.2,0,0,1,1.52,2.35v.63C79.6,112.94,79.83,113.23,79.59,113.41Z"/><path class="cls-9" d="M148.94,60.78c.6.33,1.25.6,1.43,1.37,0,1.15,0,1.15-1.23,1.15-2.12,0-4.23,0-6.34,0-.45,0-.6-.08-.62-.58a1.75,1.75,0,0,1,1.22-1.85A6.89,6.89,0,0,1,148.94,60.78Z"/><path class="cls-9" d="M145.17,55.42a2.08,2.08,0,0,1,2.5,3.28,2,2,0,0,1-3.2-2.46A5,5,0,0,1,145.17,55.42Z"/><path class="cls-17" d="M94.9,122.71h1.52A2.1,2.1,0,0,1,94.9,122.71Z"/><path class="cls-15" d="M125.3,122.6h3.42A11.53,11.53,0,0,1,125.3,122.6Z"/><path class="cls-15" d="M125.26,120.4c.1-.13.17-.29.39-.32a2.53,2.53,0,0,1-.22.88C125.4,120.77,125.48,120.54,125.26,120.4Z"/><path class="cls-15" d="M129.05,121.67c.08-.21,0-.47.17-.67C129.19,121.23,129.36,121.52,129.05,121.67Z"/><path class="cls-17" d="M72.13,112a13.86,13.86,0,0,0-1.84,4.42,2.44,2.44,0,0,1-.19.92c-.37,0-.52-.23-.71-.48a3.8,3.8,0,0,0-.58-.55c.06-.56.13-1.12.16-1.69a2.42,2.42,0,0,0-1.66-2.73,7,7,0,0,0,2.39-2.72c.69.91,1.38,1.82,2.06,2.74A.25.25,0,0,0,72.13,112Z"/><path class="cls-8" d="M64.26,120.28l0,1.66A2.27,2.27,0,0,1,64.26,120.28Z"/><path class="cls-8" d="M61.66,120.4c.08-.21,0-.45.16-.64C61.79,120,61.94,120.25,61.66,120.4Z"/><path class="cls-12" d="M63.62,103.48a1.54,1.54,0,0,1,1.26,0Z"/><path class="cls-17" d="M70,107.06a1.06,1.06,0,0,1,0,1Z"/><path class="cls-12" d="M62.34,103.62c.19-.21.45-.1.68-.11A1.32,1.32,0,0,1,62.34,103.62Z"/><path class="cls-12" d="M65.48,103.5c.23,0,.48-.09.68.12A1.33,1.33,0,0,1,65.48,103.5Z"/><path class="cls-32" d="M165.59,60.66c-.23,0-.53-.1-.56.23s.31.34.55.36.64,0,.95,0a.84.84,0,0,1,.83.58,1,1,0,0,1-.27,1,2.24,2.24,0,0,1-2.65.15c-.2-.18-.43-.49-.3-.65.41-.51.22-1.16.5-1.68.12-.22.07-.29,0-.45a1.15,1.15,0,0,1,.88-1.89c.62-.06,1.19.26,1.81.19a.22.22,0,0,1,.19.13.21.21,0,0,1-.19.28c-.26,0-.27.16-.27.38C167,60.28,166.59,60.66,165.59,60.66Z"/><path class="cls-32" d="M161.82,62c-.94.13-1.65-1-1.59-1.93A1.74,1.74,0,1,1,161.82,62Z"/><path class="cls-33" d="M169.91,60.12V58.66c0-.12,0-.27.14-.31s.34-.07.38.12c.12.5.32.19.51.07a1.21,1.21,0,0,1,1.94.89c.08.76,0,1.52.06,2.28,0,.27-.13.31-.36.32s-.34-.1-.33-.34c0-.66,0-1.31,0-2s-.2-.87-.77-.86a.9.9,0,0,0-.92.9c0,.61,0,1.23,0,1.84,0,.21,0,.42-.3.43s-.35-.2-.35-.45Z"/><path class="cls-34" d="M157.09,56.94c.59-.13.7.15.68.68,0,1.1,0,2.2,0,3.29,0,.38.11.53.51.51s.88,0,1.32,0c.23,0,.42,0,.42.33s-.24.28-.44.28h-2.47a30.69,30.69,0,0,1-.06-3.46A5.86,5.86,0,0,1,157.09,56.94Z"/><path class="cls-32" d="M168.16,60.12c0-.48,0-1,0-1.46,0-.24.09-.33.34-.33s.32.12.32.35c0,1,0,2,0,3,0,.21,0,.36-.3.37s-.36-.12-.36-.38C168.17,61.14,168.16,60.63,168.16,60.12Z"/><path class="cls-35" d="M168.45,56.81c.3,0,.46.16.48.43a.39.39,0,0,1-.4.46.42.42,0,0,1-.49-.44A.46.46,0,0,1,168.45,56.81Z"/><path class="cls-14" d="M157.09,56.94V62c-.14-.1-.13-.25-.13-.4V57.33C157,57.19,157,57,157.09,56.94Z"/><path class="cls-27" d="M52.37,331.82c.46,0,.94,0,1.28.37a1,1,0,0,1-.31,1.47,2.11,2.11,0,0,1-1.66.12c-.41-.16-.16-.75-.17-1.15C51.5,331.72,51.36,331.83,52.37,331.82Z"/><path class="cls-36" d="M118,112.14a12.65,12.65,0,0,0-2,6.45,2,2,0,0,1-2.42,1.58.75.75,0,0,1-.51-.85,15.23,15.23,0,0,1,.49-2.68c.33-1.61.69-3.22,1-4.83.2-.93.18-.93,1.1-.94h.57c.07.63.57,1,.9,1.47.11.15.24.14.37,0A.59.59,0,0,1,118,112.14Z"/><path class="cls-24" d="M111.3,109.47c0,.69-.5.26-.76.37C110.77,109.65,111.15,109.79,111.3,109.47Z"/><path class="cls-24" d="M110.29,110.88c.21,0,.46-.11.63.12C110.71,111,110.47,111.08,110.29,110.88Z"/><path class="cls-9" d="M97.33,108.47a2,2,0,0,1-2.06-2,2,2,0,1,1,4.09,0A2,2,0,0,1,97.33,108.47Z"/><path class="cls-17" d="M76.24,109.61a1.73,1.73,0,0,1-.81.13C75.67,109.49,76,109.64,76.24,109.61Z"/><path class="cls-17" d="M78.23,109.77l-.66-.16C77.8,109.64,78.07,109.48,78.23,109.77Z"/><path class="cls-17" d="M79.59,113.41c.06-.22.11-.44.16-.66C79.73,113,79.88,113.24,79.59,113.41Z"/><path class="cls-37" d="M34.39,34.17h1.53c.14,0,.33,0,.32.2s-.17.17-.29.17H32.77c-.12,0-.28,0-.28-.17s.17-.2.32-.2Z"/><path class="cls-10" d="M32.52,35.75H36.2v.13H32.52Z"/><path class="cls-10" d="M150.35,38.35V37.21c0-.39,0-.66-.54-.83s-.14-.92-.21-1.42c0-.21-.17-.59.18-.64a9.63,9.63,0,0,1,1.52,0c.19,0,.13.18.1.3s-.1.45-.16.67c-.12.45-.12.8.64.64l-1.41,2.47Z"/><path class="cls-10" d="M116,35.77c0-.72,0-1.44,0-2.16,0-.3,0-.48.41-.47q1.11,0,2.22,0c.36,0,.43.16.42.47,0,1.48,0,3,0,4.45,0,.33-.13.44-.45.43-.72,0-1.44,0-2.16,0-.39,0-.46-.17-.46-.5C116,37.26,116,36.51,116,35.77Z"/><path class="cls-28" d="M130.43,37.49c.35,0,.77-.11.82,0,.11.41-.17.78-.34,1.26A5,5,0,0,1,130.43,37.49Z"/><path class="cls-28" d="M130.84,35.6c.23.13.22.32.28.46.31.85.29.86-.65.71A4.52,4.52,0,0,1,130.84,35.6Z"/><path class="cls-10" d="M14.9,35.82c0,.51,0,1,0,1.52a1.32,1.32,0,0,1-1.34,1.39c-1.05,0-2.11,0-3.17,0a1.3,1.3,0,0,1-1.33-1.39c0-1,0-2,0-3a1.31,1.31,0,0,1,1.33-1.4c1.06,0,2.12,0,3.17,0a1.32,1.32,0,0,1,1.34,1.4C14.91,34.8,14.9,35.31,14.9,35.82Z"/><path class="cls-38" d="M25.45,37.76v.7c0,.17-.07.29-.26.28s-.21-.1-.24-.24c-.09-.47.22-1-.32-1.43-.12-.1.28-.21.45-.3s.35-.08.36.17,0,.55,0,.82Z"/><path class="cls-39" d="M55.61,34.51a.19.19,0,0,1-.2-.17c0-.12.08-.18.19-.18s.21,0,.21.16A.19.19,0,0,1,55.61,34.51Z"/><path class="cls-39" d="M57.86,34.16c.1,0,.21,0,.22.15a.18.18,0,0,1-.17.2.2.2,0,0,1-.23-.16C57.65,34.22,57.75,34.18,57.86,34.16Z"/><path class="cls-40" d="M166.64,34.62c0,.72,0,1.25,0,1.77,0,.32-.09.49-.44.47s-.58,0-1,0A16.31,16.31,0,0,1,166.64,34.62Z"/><path class="cls-40" d="M136.5,37.11c0,.53-.24.77-.8.76s-.88-.24-.88-.82a.78.78,0,0,1,.82-.85A.81.81,0,0,1,136.5,37.11Z"/><path class="cls-40" d="M135.63,35.69a.69.69,0,0,1-.69-.76c0-.52.2-.79.74-.79a.69.69,0,0,1,.76.73A.75.75,0,0,1,135.63,35.69Z"/><path class="cls-10" d="M140.18,36c0,.34,0,.68,0,1s-.2.82-.74.86a.74.74,0,0,1-.87-.72,8.73,8.73,0,0,1,0-2.34.8.8,0,0,1,1.59,0,7.22,7.22,0,0,1,0,1.14Z"/><path class="cls-40" d="M176.55,37.23a.82.82,0,0,1-.89.88c-.41,0-.7-.16-.75-.6s.37-.68,1-.68C176.24,36.83,176.62,36.73,176.55,37.23Z"/><path class="cls-41" d="M145.26,37.42c0,.23,0,.57-.48.56s-.52-.34-.51-.66.12-.64.55-.62S145.27,37,145.26,37.42Z"/><path class="cls-41" d="M143,34.63c0,.43-.06.7-.47.69S142,35,142,34.66s.12-.65.54-.63S143,34.41,143,34.63Z"/><path class="cls-42" d="M125,33.16c0,.25.2.55-.12.73a.3.3,0,0,1-.22,0A.94.94,0,0,1,125,33.16Z"/><path class="cls-28" d="M31.44,222.28c.26,0,.5,0,.49.39a1.06,1.06,0,0,1-1.09,1c-.39,0-.72-.1-.78-.54S30.52,222.32,31.44,222.28Z"/><path class="cls-27" d="M26.25,297.58c.34-.06.41.13.41.44a1,1,0,0,1-1.12.94c-.39,0-.71-.14-.72-.61S25.4,297.58,26.25,297.58Z"/><path class="cls-27" d="M36.68,296.85a3.23,3.23,0,0,1-.44,0c-.2,0-.47.11-.57-.1s.06-.49.22-.68a1.1,1.1,0,0,1,1.84.21c.14.33.18.63-.35.58A5.45,5.45,0,0,0,36.68,296.85Z"/><path class="cls-27" d="M19.13,257.17c0-1.29,0-1.29,1.27-1.15a1.14,1.14,0,0,1,1.09,1.11,1.17,1.17,0,0,1-.94,1.25,7.2,7.2,0,0,1-1.14.05c-.22,0-.29-.11-.28-.31Z"/><path class="cls-9" d="M50.79,259c0,.21,0,.42,0,.63,0,.59-.35.84-.83.94a.91.91,0,0,1-1.19-.56,2.46,2.46,0,0,1,0-1.67,1.1,1.1,0,0,1,1.32-.81c.64.1.81.51.74,1.09C50.78,258.78,50.79,258.9,50.79,259Z"/><path class="cls-9" d="M43.25,259.16a1.78,1.78,0,0,1-.18.89,1.1,1.1,0,0,1-1.09.63c-.84,0-1.25-.69-1.16-1.84.08-.91.58-1.38,1.38-1.29S43.26,258.19,43.25,259.16Z"/><path class="cls-27" d="M24.81,259.42c.32-.07.46.07.45.44a1,1,0,0,1-1.12.94c-.36,0-.68-.12-.72-.56S23.9,259.45,24.81,259.42Z"/><path class="cls-43" d="M83.6,118.27a11.77,11.77,0,0,1,1.64-5.58,2.86,2.86,0,0,1,1.28-1.2,1.2,1.2,0,0,1,1.32.08c.39.31.34.72.24,1.16-.4,1.81-.79,3.64-1.18,5.46a2.72,2.72,0,0,1-1.16,1.75,1.22,1.22,0,0,1-2-.89C83.64,118.78,83.63,118.5,83.6,118.27Z"/><path class="cls-44" d="M103.57,112.72a7.31,7.31,0,0,1,.28,2.13,23.22,23.22,0,0,1,.24,3.73,2,2,0,0,1-2.61,2.07,1.2,1.2,0,0,1-.9-.73c-.22-.52-.14-.67.42-.64a1.07,1.07,0,0,0,1-.6,1.05,1.05,0,0,0-.05-1.25c-.13-.16-.35-.28-.22-.54A38.16,38.16,0,0,0,103.57,112.72Z"/><path class="cls-45" d="M123.74,112.05a4.44,4.44,0,0,1-2.88,4c-.22.07-.48.21-.66.06s0-.4,0-.59a10.6,10.6,0,0,1,1.25-3.17,3.62,3.62,0,0,1,.71-.89c.32-.3.68-.59,1.13-.38S123.71,111.73,123.74,112.05Z"/><path class="cls-25" d="M77.75,112a4.35,4.35,0,0,1-2.89,4c-.2.06-.44.19-.61.07s0-.39,0-.58a10,10,0,0,1,1.6-3.7,3.07,3.07,0,0,1,.34-.38c.32-.29.68-.58,1.13-.4S77.73,111.71,77.75,112Z"/><path class="cls-46" d="M85.65,124a5.08,5.08,0,0,1-.81,2.42c-.38.51-.85.63-1.25.34a1,1,0,0,1-.14-1.32A4.41,4.41,0,0,1,85.65,124Z"/><path class="cls-47" d="M165.78,61.76c.11,0,.34,0,.57.07s.41.12.42.39a.5.5,0,0,1-.32.5,1.68,1.68,0,0,1-1.23.1c-.28-.09-.54-.21-.5-.55a.56.56,0,0,1,.62-.51Z"/><path class="cls-48" d="M165.68,60.24c-.45-.05-.75-.23-.74-.75s.28-.66.73-.67.78.21.79.69S166.14,60.2,165.68,60.24Z"/><path class="cls-49" d="M163,60.21c0,.85-.39,1.31-1.06,1.3s-1.06-.52-1-1.39.43-1.3,1.1-1.27S163,59.37,163,60.21Z"/><path class="cls-27" d="M13.9,35.84A1.92,1.92,0,1,1,12,33.9,1.89,1.89,0,0,1,13.9,35.84Z"/><path class="cls-29" d="M13.88,33.52c.25,0,.4.14.39.39s-.15.48-.41.45a.46.46,0,0,1-.42-.48A.42.42,0,0,1,13.88,33.52Z"/><path class="cls-40" d="M13.25,35.79A1.3,1.3,0,0,1,12,37.09a1.27,1.27,0,1,1,1.28-1.3Z"/></g></g></svg>